%FSLAX45Y45*%
G04 Gerber Fmt 4.5, Leading zero omitted, Abs format (unit mm)*
G04 Created by KiCad (PCBNEW 6.0.6-3a73a75311~116~ubuntu20.04.1) date 2022-07-31 18:11:12*
%MOMM*%
%LPD*%
G01*
G04 APERTURE LIST*
%TA.AperFunction,Profile*%
%ADD10C,0.100000*%
%TD*%
%ADD11C,0.200000*%
%ADD12C,0.040000*%
%ADD13C,0.050000*%
%ADD14C,0.070000*%
%ADD15C,0.075000*%
%ADD16C,0.080000*%
%ADD17C,0.099060*%
%ADD18C,0.100000*%
%ADD19C,0.150000*%
%ADD20C,0.300000*%
G04 APERTURE END LIST*
D10*
X30734000Y-13335000D02*
X8001000Y-13335000D01*
X31115000Y-13716000D02*
G75*
G03*
X30734000Y-13335000I-381000J0D01*
G01*
X7620000Y-13716000D02*
X7620000Y-22527092D01*
X8001000Y-13335000D02*
G75*
G03*
X7620000Y-13716000I0J-381000D01*
G01*
X31115000Y-22527092D02*
X31115000Y-13716000D01*
X8001000Y-22908092D02*
X30734000Y-22908092D01*
X7619998Y-22527092D02*
G75*
G03*
X8001000Y-22908092I381002J2D01*
G01*
X30734000Y-22908090D02*
G75*
G03*
X31115000Y-22527092I0J381000D01*
G01*
D11*
D12*
X7663500Y-16109000D02*
X7703500Y-16149000D01*
X7703500Y-16109000D02*
X7663500Y-16149000D01*
X7663500Y-17125000D02*
X7703500Y-17165000D01*
X7703500Y-17125000D02*
X7663500Y-17165000D01*
X7727000Y-13632500D02*
X7767000Y-13672500D01*
X7767000Y-13632500D02*
X7727000Y-13672500D01*
X7727000Y-15855000D02*
X7767000Y-15895000D01*
X7767000Y-15855000D02*
X7727000Y-15895000D01*
X7727000Y-16591600D02*
X7767000Y-16631600D01*
X7767000Y-16591600D02*
X7727000Y-16631600D01*
X7727000Y-16871000D02*
X7767000Y-16911000D01*
X7767000Y-16871000D02*
X7727000Y-16911000D01*
X7727000Y-18712500D02*
X7767000Y-18752500D01*
X7767000Y-18712500D02*
X7727000Y-18752500D01*
X7879400Y-19766600D02*
X7919400Y-19806600D01*
X7919400Y-19766600D02*
X7879400Y-19806600D01*
X7981000Y-20808000D02*
X8021000Y-20848000D01*
X8021000Y-20808000D02*
X7981000Y-20848000D01*
X7981000Y-21747800D02*
X8021000Y-21787800D01*
X8021000Y-21747800D02*
X7981000Y-21787800D01*
X7981000Y-22141500D02*
X8021000Y-22181500D01*
X8021000Y-22141500D02*
X7981000Y-22181500D01*
X8108000Y-22205000D02*
X8148000Y-22245000D01*
X8148000Y-22205000D02*
X8108000Y-22245000D01*
X8133400Y-18953800D02*
X8173400Y-18993800D01*
X8173400Y-18953800D02*
X8133400Y-18993800D01*
X8158800Y-19512600D02*
X8198800Y-19552600D01*
X8198800Y-19512600D02*
X8158800Y-19552600D01*
X8158800Y-19715800D02*
X8198800Y-19755800D01*
X8198800Y-19715800D02*
X8158800Y-19755800D01*
X8171500Y-21125500D02*
X8211500Y-21165500D01*
X8211500Y-21125500D02*
X8171500Y-21165500D01*
X8235000Y-16236000D02*
X8275000Y-16276000D01*
X8275000Y-16236000D02*
X8235000Y-16276000D01*
X8235000Y-22268500D02*
X8275000Y-22308500D01*
X8275000Y-22268500D02*
X8235000Y-22308500D01*
X8235000Y-22611400D02*
X8275000Y-22651400D01*
X8275000Y-22611400D02*
X8235000Y-22651400D01*
X8285800Y-18674400D02*
X8325800Y-18714400D01*
X8325800Y-18674400D02*
X8285800Y-18714400D01*
X8311200Y-15702600D02*
X8351200Y-15742600D01*
X8351200Y-15702600D02*
X8311200Y-15742600D01*
X8362000Y-13442000D02*
X8402000Y-13482000D01*
X8402000Y-13442000D02*
X8362000Y-13482000D01*
X8362000Y-13823000D02*
X8402000Y-13863000D01*
X8402000Y-13823000D02*
X8362000Y-13863000D01*
X8362000Y-14077000D02*
X8402000Y-14117000D01*
X8402000Y-14077000D02*
X8362000Y-14117000D01*
X8362000Y-15093000D02*
X8402000Y-15133000D01*
X8402000Y-15093000D02*
X8362000Y-15133000D01*
X8362000Y-15347000D02*
X8402000Y-15387000D01*
X8402000Y-15347000D02*
X8362000Y-15387000D01*
X8362000Y-16617000D02*
X8402000Y-16657000D01*
X8402000Y-16617000D02*
X8362000Y-16657000D01*
X8362000Y-17887000D02*
X8402000Y-17927000D01*
X8402000Y-17887000D02*
X8362000Y-17927000D01*
X8362000Y-18395000D02*
X8402000Y-18435000D01*
X8402000Y-18395000D02*
X8362000Y-18435000D01*
X8362000Y-20935000D02*
X8402000Y-20975000D01*
X8402000Y-20935000D02*
X8362000Y-20975000D01*
X8362000Y-22332000D02*
X8402000Y-22372000D01*
X8402000Y-22332000D02*
X8362000Y-22372000D01*
X8387400Y-14432600D02*
X8427400Y-14472600D01*
X8427400Y-14432600D02*
X8387400Y-14472600D01*
X8387400Y-14712000D02*
X8427400Y-14752000D01*
X8427400Y-14712000D02*
X8387400Y-14752000D01*
X8425500Y-20681000D02*
X8465500Y-20721000D01*
X8465500Y-20681000D02*
X8425500Y-20721000D01*
X8489000Y-13696000D02*
X8529000Y-13736000D01*
X8529000Y-13696000D02*
X8489000Y-13736000D01*
X8489000Y-20427000D02*
X8529000Y-20467000D01*
X8529000Y-20427000D02*
X8489000Y-20467000D01*
X8489000Y-21747800D02*
X8529000Y-21787800D01*
X8529000Y-21747800D02*
X8489000Y-21787800D01*
X8552500Y-15855000D02*
X8592500Y-15895000D01*
X8592500Y-15855000D02*
X8552500Y-15895000D01*
X8590600Y-19919000D02*
X8630600Y-19959000D01*
X8630600Y-19919000D02*
X8590600Y-19959000D01*
X8616000Y-17633000D02*
X8656000Y-17673000D01*
X8656000Y-17633000D02*
X8616000Y-17673000D01*
X8616000Y-20579400D02*
X8656000Y-20619400D01*
X8656000Y-20579400D02*
X8616000Y-20619400D01*
X8700210Y-19167801D02*
X8740210Y-19207801D01*
X8740210Y-19167801D02*
X8700210Y-19207801D01*
X8743000Y-16553500D02*
X8783000Y-16593500D01*
X8783000Y-16553500D02*
X8743000Y-16593500D01*
X8743000Y-19792000D02*
X8783000Y-19832000D01*
X8783000Y-19792000D02*
X8743000Y-19832000D01*
X8743000Y-20935000D02*
X8783000Y-20975000D01*
X8783000Y-20935000D02*
X8743000Y-20975000D01*
X8768400Y-17175800D02*
X8808400Y-17215800D01*
X8808400Y-17175800D02*
X8768400Y-17215800D01*
X8806500Y-21189000D02*
X8846500Y-21229000D01*
X8846500Y-21189000D02*
X8806500Y-21229000D01*
X8844600Y-20173000D02*
X8884600Y-20213000D01*
X8884600Y-20173000D02*
X8844600Y-20213000D01*
X8870000Y-14648500D02*
X8910000Y-14688500D01*
X8910000Y-14648500D02*
X8870000Y-14688500D01*
X8870000Y-16363000D02*
X8910000Y-16403000D01*
X8910000Y-16363000D02*
X8870000Y-16403000D01*
X8933500Y-20681000D02*
X8973500Y-20721000D01*
X8973500Y-20681000D02*
X8933500Y-20721000D01*
X8997000Y-13696000D02*
X9037000Y-13736000D01*
X9037000Y-13696000D02*
X8997000Y-13736000D01*
X8997000Y-18141000D02*
X9037000Y-18181000D01*
X9037000Y-18141000D02*
X8997000Y-18181000D01*
X8997000Y-21747800D02*
X9037000Y-21787800D01*
X9037000Y-21747800D02*
X8997000Y-21787800D01*
X9124000Y-20935000D02*
X9164000Y-20975000D01*
X9164000Y-20935000D02*
X9124000Y-20975000D01*
X9124000Y-22611400D02*
X9164000Y-22651400D01*
X9164000Y-22611400D02*
X9124000Y-22651400D01*
X9167171Y-14561007D02*
X9207171Y-14601007D01*
X9207171Y-14561007D02*
X9167171Y-14601007D01*
X9187500Y-19220500D02*
X9227500Y-19260500D01*
X9227500Y-19220500D02*
X9187500Y-19260500D01*
X9187500Y-19601500D02*
X9227500Y-19641500D01*
X9227500Y-19601500D02*
X9187500Y-19641500D01*
X9200200Y-20173000D02*
X9240200Y-20213000D01*
X9240200Y-20173000D02*
X9200200Y-20213000D01*
X9225600Y-15194600D02*
X9265600Y-15234600D01*
X9265600Y-15194600D02*
X9225600Y-15234600D01*
X9225600Y-15702600D02*
X9265600Y-15742600D01*
X9265600Y-15702600D02*
X9225600Y-15742600D01*
X9225600Y-17836200D02*
X9265600Y-17876200D01*
X9265600Y-17836200D02*
X9225600Y-17876200D01*
X9251000Y-16032800D02*
X9291000Y-16072800D01*
X9291000Y-16032800D02*
X9251000Y-16072800D01*
X9301800Y-14077000D02*
X9341800Y-14117000D01*
X9341800Y-14077000D02*
X9301800Y-14117000D01*
X9314500Y-16934500D02*
X9354500Y-16974500D01*
X9354500Y-16934500D02*
X9314500Y-16974500D01*
X9378000Y-13696000D02*
X9418000Y-13736000D01*
X9418000Y-13696000D02*
X9378000Y-13736000D01*
X9378000Y-16591600D02*
X9418000Y-16631600D01*
X9418000Y-16591600D02*
X9378000Y-16631600D01*
X9403400Y-15956600D02*
X9443400Y-15996600D01*
X9443400Y-15956600D02*
X9403400Y-15996600D01*
X9479600Y-17099600D02*
X9519600Y-17139600D01*
X9519600Y-17099600D02*
X9479600Y-17139600D01*
X9479600Y-17887000D02*
X9519600Y-17927000D01*
X9519600Y-17887000D02*
X9479600Y-17927000D01*
X9505000Y-18776000D02*
X9545000Y-18816000D01*
X9545000Y-18776000D02*
X9505000Y-18816000D01*
X9568500Y-14077000D02*
X9608500Y-14117000D01*
X9608500Y-14077000D02*
X9568500Y-14117000D01*
X9568500Y-19220500D02*
X9608500Y-19260500D01*
X9608500Y-19220500D02*
X9568500Y-19260500D01*
X9581200Y-14559600D02*
X9621200Y-14599600D01*
X9621200Y-14559600D02*
X9581200Y-14599600D01*
X9581200Y-19741200D02*
X9621200Y-19781200D01*
X9621200Y-19741200D02*
X9581200Y-19781200D01*
X9581200Y-20782600D02*
X9621200Y-20822600D01*
X9621200Y-20782600D02*
X9581200Y-20822600D01*
X9581200Y-21760500D02*
X9621200Y-21800500D01*
X9621200Y-21760500D02*
X9581200Y-21800500D01*
X9632000Y-13442000D02*
X9672000Y-13482000D01*
X9672000Y-13442000D02*
X9632000Y-13482000D01*
X9695500Y-15601000D02*
X9735500Y-15641000D01*
X9735500Y-15601000D02*
X9695500Y-15641000D01*
X9695500Y-20173000D02*
X9735500Y-20213000D01*
X9735500Y-20173000D02*
X9695500Y-20213000D01*
X9708200Y-19538000D02*
X9748200Y-19578000D01*
X9748200Y-19538000D02*
X9708200Y-19578000D01*
X9708200Y-22205000D02*
X9748200Y-22245000D01*
X9748200Y-22205000D02*
X9708200Y-22245000D01*
X9759000Y-18776000D02*
X9799000Y-18816000D01*
X9799000Y-18776000D02*
X9759000Y-18816000D01*
X9835200Y-22205000D02*
X9875200Y-22245000D01*
X9875200Y-22205000D02*
X9835200Y-22245000D01*
X9886000Y-22611400D02*
X9926000Y-22651400D01*
X9926000Y-22611400D02*
X9886000Y-22651400D01*
X9911400Y-19766600D02*
X9951400Y-19806600D01*
X9951400Y-19766600D02*
X9911400Y-19806600D01*
X10013000Y-18776000D02*
X10053000Y-18816000D01*
X10053000Y-18776000D02*
X10013000Y-18816000D01*
X10140000Y-18903000D02*
X10180000Y-18943000D01*
X10180000Y-18903000D02*
X10140000Y-18943000D01*
X10203500Y-14585000D02*
X10243500Y-14625000D01*
X10243500Y-14585000D02*
X10203500Y-14625000D01*
X10203500Y-15093000D02*
X10243500Y-15133000D01*
X10243500Y-15093000D02*
X10203500Y-15133000D01*
X10203500Y-17125000D02*
X10243500Y-17165000D01*
X10243500Y-17125000D02*
X10203500Y-17165000D01*
X10203500Y-17379000D02*
X10243500Y-17419000D01*
X10243500Y-17379000D02*
X10203500Y-17419000D01*
X10203500Y-18395000D02*
X10243500Y-18435000D01*
X10243500Y-18395000D02*
X10203500Y-18435000D01*
X10241600Y-18217200D02*
X10281600Y-18257200D01*
X10281600Y-18217200D02*
X10241600Y-18257200D01*
X10267000Y-13442000D02*
X10307000Y-13482000D01*
X10307000Y-13442000D02*
X10267000Y-13482000D01*
X10267000Y-18585500D02*
X10307000Y-18625500D01*
X10307000Y-18585500D02*
X10267000Y-18625500D01*
X10289000Y-21125500D02*
X10329000Y-21165500D01*
X10329000Y-21125500D02*
X10289000Y-21165500D01*
X10326878Y-19077985D02*
X10366878Y-19117985D01*
X10366878Y-19077985D02*
X10326878Y-19117985D01*
X10330500Y-17760000D02*
X10370500Y-17800000D01*
X10370500Y-17760000D02*
X10330500Y-17800000D01*
X10330500Y-20109500D02*
X10370500Y-20149500D01*
X10370500Y-20109500D02*
X10330500Y-20149500D01*
X10330500Y-20490500D02*
X10370500Y-20530500D01*
X10370500Y-20490500D02*
X10330500Y-20530500D01*
X10330500Y-20935000D02*
X10370500Y-20975000D01*
X10370500Y-20935000D02*
X10330500Y-20975000D01*
X10352500Y-21379500D02*
X10392500Y-21419500D01*
X10392500Y-21379500D02*
X10352500Y-21419500D01*
X10368600Y-17404400D02*
X10408600Y-17444400D01*
X10408600Y-17404400D02*
X10368600Y-17444400D01*
X10394000Y-19474500D02*
X10434000Y-19514500D01*
X10434000Y-19474500D02*
X10394000Y-19514500D01*
X10416000Y-21633500D02*
X10456000Y-21673500D01*
X10456000Y-21633500D02*
X10416000Y-21673500D01*
X10457500Y-21189000D02*
X10497500Y-21229000D01*
X10497500Y-21189000D02*
X10457500Y-21229000D01*
X10479500Y-21887500D02*
X10519500Y-21927500D01*
X10519500Y-21887500D02*
X10479500Y-21927500D01*
X10521000Y-13632500D02*
X10561000Y-13672500D01*
X10561000Y-13632500D02*
X10521000Y-13672500D01*
X10521000Y-17633000D02*
X10561000Y-17673000D01*
X10561000Y-17633000D02*
X10521000Y-17673000D01*
X10521000Y-18776000D02*
X10561000Y-18816000D01*
X10561000Y-18776000D02*
X10521000Y-18816000D01*
X10521000Y-19728500D02*
X10561000Y-19768500D01*
X10561000Y-19728500D02*
X10521000Y-19768500D01*
X10521000Y-20681000D02*
X10561000Y-20721000D01*
X10561000Y-20681000D02*
X10521000Y-20721000D01*
X10521000Y-21443000D02*
X10561000Y-21483000D01*
X10561000Y-21443000D02*
X10521000Y-21483000D01*
X10521000Y-21760500D02*
X10561000Y-21800500D01*
X10561000Y-21760500D02*
X10521000Y-21800500D01*
X10539894Y-18282438D02*
X10579894Y-18322438D01*
X10579894Y-18282438D02*
X10539894Y-18322438D01*
X10543000Y-22141500D02*
X10583000Y-22181500D01*
X10583000Y-22141500D02*
X10543000Y-22181500D01*
X10546400Y-18039400D02*
X10586400Y-18079400D01*
X10586400Y-18039400D02*
X10546400Y-18079400D01*
X10838500Y-22840000D02*
X10878500Y-22880000D01*
X10878500Y-22840000D02*
X10838500Y-22880000D01*
X10851200Y-22128800D02*
X10891200Y-22168800D01*
X10891200Y-22128800D02*
X10851200Y-22168800D01*
X10965500Y-17252000D02*
X11005500Y-17292000D01*
X11005500Y-17252000D02*
X10965500Y-17292000D01*
X10965500Y-22776500D02*
X11005500Y-22816500D01*
X11005500Y-22776500D02*
X10965500Y-22816500D01*
X11029000Y-19538000D02*
X11069000Y-19578000D01*
X11069000Y-19538000D02*
X11029000Y-19578000D01*
X11092500Y-22713000D02*
X11132500Y-22753000D01*
X11132500Y-22713000D02*
X11092500Y-22753000D01*
X11219500Y-17887000D02*
X11259500Y-17927000D01*
X11259500Y-17887000D02*
X11219500Y-17927000D01*
X11219500Y-20173000D02*
X11259500Y-20213000D01*
X11259500Y-20173000D02*
X11219500Y-20213000D01*
X11219500Y-22649500D02*
X11259500Y-22689500D01*
X11259500Y-22649500D02*
X11219500Y-22689500D01*
X11346500Y-16236000D02*
X11386500Y-16276000D01*
X11386500Y-16236000D02*
X11346500Y-16276000D01*
X11346500Y-22586000D02*
X11386500Y-22626000D01*
X11386500Y-22586000D02*
X11346500Y-22626000D01*
X11537000Y-19665000D02*
X11577000Y-19705000D01*
X11577000Y-19665000D02*
X11537000Y-19705000D01*
X12045000Y-15410500D02*
X12085000Y-15450500D01*
X12085000Y-15410500D02*
X12045000Y-15450500D01*
X12045000Y-19538000D02*
X12085000Y-19578000D01*
X12085000Y-19538000D02*
X12045000Y-19578000D01*
X12172000Y-17887000D02*
X12212000Y-17927000D01*
X12212000Y-17887000D02*
X12172000Y-17927000D01*
X12172000Y-20173000D02*
X12212000Y-20213000D01*
X12212000Y-20173000D02*
X12172000Y-20213000D01*
X12172000Y-22459000D02*
X12212000Y-22499000D01*
X12212000Y-22459000D02*
X12172000Y-22499000D01*
X12616500Y-21697000D02*
X12656500Y-21737000D01*
X12656500Y-21697000D02*
X12616500Y-21737000D01*
X12641900Y-21036600D02*
X12681900Y-21076600D01*
X12681900Y-21036600D02*
X12641900Y-21076600D01*
X12692700Y-14178600D02*
X12732700Y-14218600D01*
X12732700Y-14178600D02*
X12692700Y-14218600D01*
X12870500Y-18712500D02*
X12910500Y-18752500D01*
X12910500Y-18712500D02*
X12870500Y-18752500D01*
X12934000Y-17252000D02*
X12974000Y-17292000D01*
X12974000Y-17252000D02*
X12934000Y-17292000D01*
X12997500Y-19538000D02*
X13037500Y-19578000D01*
X13037500Y-19538000D02*
X12997500Y-19578000D01*
X13251500Y-17887000D02*
X13291500Y-17927000D01*
X13291500Y-17887000D02*
X13251500Y-17927000D01*
X13251500Y-20173000D02*
X13291500Y-20213000D01*
X13291500Y-20173000D02*
X13251500Y-20213000D01*
X13251500Y-22459000D02*
X13291500Y-22499000D01*
X13291500Y-22459000D02*
X13251500Y-22499000D01*
X13569000Y-19665000D02*
X13609000Y-19705000D01*
X13609000Y-19665000D02*
X13569000Y-19705000D01*
X13632500Y-15029500D02*
X13672500Y-15069500D01*
X13672500Y-15029500D02*
X13632500Y-15069500D01*
X13696000Y-21697000D02*
X13736000Y-21737000D01*
X13736000Y-21697000D02*
X13696000Y-21737000D01*
X13721400Y-21036600D02*
X13761400Y-21076600D01*
X13761400Y-21036600D02*
X13721400Y-21076600D01*
X13759500Y-17887000D02*
X13799500Y-17927000D01*
X13799500Y-17887000D02*
X13759500Y-17927000D01*
X13772200Y-14178600D02*
X13812200Y-14218600D01*
X13812200Y-14178600D02*
X13772200Y-14218600D01*
X13795000Y-17379000D02*
X13835000Y-17419000D01*
X13835000Y-17379000D02*
X13795000Y-17419000D01*
X13823000Y-14902500D02*
X13863000Y-14942500D01*
X13863000Y-14902500D02*
X13823000Y-14942500D01*
X14013500Y-14712000D02*
X14053500Y-14752000D01*
X14053500Y-14712000D02*
X14013500Y-14752000D01*
X14140500Y-17887000D02*
X14180500Y-17927000D01*
X14180500Y-17887000D02*
X14140500Y-17927000D01*
X14140500Y-20173000D02*
X14180500Y-20213000D01*
X14180500Y-20173000D02*
X14140500Y-20213000D01*
X14140500Y-22459000D02*
X14180500Y-22499000D01*
X14180500Y-22459000D02*
X14140500Y-22499000D01*
X14559600Y-17277400D02*
X14599600Y-17317400D01*
X14599600Y-17277400D02*
X14559600Y-17317400D01*
X14585000Y-21697000D02*
X14625000Y-21737000D01*
X14625000Y-21697000D02*
X14585000Y-21737000D01*
X14610400Y-21036600D02*
X14650400Y-21076600D01*
X14650400Y-21036600D02*
X14610400Y-21076600D01*
X14661200Y-14178600D02*
X14701200Y-14218600D01*
X14701200Y-14178600D02*
X14661200Y-14218600D01*
X14902500Y-18712500D02*
X14942500Y-18752500D01*
X14942500Y-18712500D02*
X14902500Y-18752500D01*
X14902500Y-20173000D02*
X14942500Y-20213000D01*
X14942500Y-20173000D02*
X14902500Y-20213000D01*
X14902500Y-22459000D02*
X14942500Y-22499000D01*
X14942500Y-22459000D02*
X14902500Y-22499000D01*
X15093000Y-19538000D02*
X15133000Y-19578000D01*
X15133000Y-19538000D02*
X15093000Y-19578000D01*
X15283500Y-17887000D02*
X15323500Y-17927000D01*
X15323500Y-17887000D02*
X15283500Y-17927000D01*
X15347000Y-21697000D02*
X15387000Y-21737000D01*
X15387000Y-21697000D02*
X15347000Y-21737000D01*
X15372400Y-21036600D02*
X15412400Y-21076600D01*
X15412400Y-21036600D02*
X15372400Y-21076600D01*
X15423200Y-14178600D02*
X15463200Y-14218600D01*
X15463200Y-14178600D02*
X15423200Y-14218600D01*
X15601000Y-19665000D02*
X15641000Y-19705000D01*
X15641000Y-19665000D02*
X15601000Y-19705000D01*
X15827000Y-17379000D02*
X15867000Y-17419000D01*
X15867000Y-17379000D02*
X15827000Y-17419000D01*
X15827000Y-19665000D02*
X15867000Y-19705000D01*
X15867000Y-19665000D02*
X15827000Y-19705000D01*
X16045500Y-21824000D02*
X16085500Y-21864000D01*
X16085500Y-21824000D02*
X16045500Y-21864000D01*
X16236000Y-17887000D02*
X16276000Y-17927000D01*
X16276000Y-17887000D02*
X16236000Y-17927000D01*
X16236000Y-20173000D02*
X16276000Y-20213000D01*
X16276000Y-20173000D02*
X16236000Y-20213000D01*
X16299500Y-15601000D02*
X16339500Y-15641000D01*
X16339500Y-15601000D02*
X16299500Y-15641000D01*
X16299500Y-22459000D02*
X16339500Y-22499000D01*
X16339500Y-22459000D02*
X16299500Y-22499000D01*
X16566200Y-15245400D02*
X16606200Y-15285400D01*
X16606200Y-15245400D02*
X16566200Y-15285400D01*
X16807500Y-21951000D02*
X16847500Y-21991000D01*
X16847500Y-21951000D02*
X16807500Y-21991000D01*
X16934500Y-13632500D02*
X16974500Y-13672500D01*
X16974500Y-13632500D02*
X16934500Y-13672500D01*
X16934500Y-18712500D02*
X16974500Y-18752500D01*
X16974500Y-18712500D02*
X16934500Y-18752500D01*
X16998000Y-20173000D02*
X17038000Y-20213000D01*
X17038000Y-20173000D02*
X16998000Y-20213000D01*
X16998000Y-22459000D02*
X17038000Y-22499000D01*
X17038000Y-22459000D02*
X16998000Y-22499000D01*
X17061500Y-17252000D02*
X17101500Y-17292000D01*
X17101500Y-17252000D02*
X17061500Y-17292000D01*
X17061500Y-19538000D02*
X17101500Y-19578000D01*
X17101500Y-19538000D02*
X17061500Y-19578000D01*
X17315500Y-17887000D02*
X17355500Y-17927000D01*
X17355500Y-17887000D02*
X17315500Y-17927000D01*
X17633000Y-19665000D02*
X17673000Y-19705000D01*
X17673000Y-19665000D02*
X17633000Y-19705000D01*
X17859000Y-17379000D02*
X17899000Y-17419000D01*
X17899000Y-17379000D02*
X17859000Y-17419000D01*
X18014000Y-15982000D02*
X18054000Y-16022000D01*
X18054000Y-15982000D02*
X18014000Y-16022000D01*
X18014000Y-22459000D02*
X18054000Y-22499000D01*
X18054000Y-22459000D02*
X18014000Y-22499000D01*
X18077500Y-21824000D02*
X18117500Y-21864000D01*
X18117500Y-21824000D02*
X18077500Y-21864000D01*
X18184641Y-20176671D02*
X18224641Y-20216671D01*
X18224641Y-20176671D02*
X18184641Y-20216671D01*
X18204500Y-17887000D02*
X18244500Y-17927000D01*
X18244500Y-17887000D02*
X18204500Y-17927000D01*
X18331500Y-15601000D02*
X18371500Y-15641000D01*
X18371500Y-15601000D02*
X18331500Y-15641000D01*
X18572800Y-15270800D02*
X18612800Y-15310800D01*
X18612800Y-15270800D02*
X18572800Y-15310800D01*
X18875000Y-21951000D02*
X18915000Y-21991000D01*
X18915000Y-21951000D02*
X18875000Y-21991000D01*
X18966500Y-13569000D02*
X19006500Y-13609000D01*
X19006500Y-13569000D02*
X18966500Y-13609000D01*
X18966500Y-18712500D02*
X19006500Y-18752500D01*
X19006500Y-18712500D02*
X18966500Y-18752500D01*
X18966500Y-20173000D02*
X19006500Y-20213000D01*
X19006500Y-20173000D02*
X18966500Y-20213000D01*
X18966500Y-22459000D02*
X19006500Y-22499000D01*
X19006500Y-22459000D02*
X18966500Y-22499000D01*
X19093500Y-17252000D02*
X19133500Y-17292000D01*
X19133500Y-17252000D02*
X19093500Y-17292000D01*
X19347500Y-17887000D02*
X19387500Y-17927000D01*
X19387500Y-17887000D02*
X19347500Y-17927000D01*
X19665000Y-19665000D02*
X19705000Y-19705000D01*
X19705000Y-19665000D02*
X19665000Y-19705000D01*
X19891000Y-17379000D02*
X19931000Y-17419000D01*
X19931000Y-17379000D02*
X19891000Y-17419000D01*
X20109500Y-21824000D02*
X20149500Y-21864000D01*
X20149500Y-21824000D02*
X20109500Y-21864000D01*
X20236500Y-17887000D02*
X20276500Y-17927000D01*
X20276500Y-17887000D02*
X20236500Y-17927000D01*
X20236500Y-20173000D02*
X20276500Y-20213000D01*
X20276500Y-20173000D02*
X20236500Y-20213000D01*
X20363500Y-15601000D02*
X20403500Y-15641000D01*
X20403500Y-15601000D02*
X20363500Y-15641000D01*
X20363500Y-22459000D02*
X20403500Y-22499000D01*
X20403500Y-22459000D02*
X20363500Y-22499000D01*
X20604800Y-15270800D02*
X20644800Y-15310800D01*
X20644800Y-15270800D02*
X20604800Y-15310800D01*
X20907000Y-21951000D02*
X20947000Y-21991000D01*
X20947000Y-21951000D02*
X20907000Y-21991000D01*
X20935000Y-18712500D02*
X20975000Y-18752500D01*
X20975000Y-18712500D02*
X20935000Y-18752500D01*
X20998500Y-13505500D02*
X21038500Y-13545500D01*
X21038500Y-13505500D02*
X20998500Y-13545500D01*
X21062000Y-17252000D02*
X21102000Y-17292000D01*
X21102000Y-17252000D02*
X21062000Y-17292000D01*
X21062000Y-19538000D02*
X21102000Y-19578000D01*
X21102000Y-19538000D02*
X21062000Y-19578000D01*
X21379500Y-17887000D02*
X21419500Y-17927000D01*
X21419500Y-17887000D02*
X21379500Y-17927000D01*
X21379500Y-20173000D02*
X21419500Y-20213000D01*
X21419500Y-20173000D02*
X21379500Y-20213000D01*
X21379500Y-22459000D02*
X21419500Y-22499000D01*
X21419500Y-22459000D02*
X21379500Y-22499000D01*
X21697000Y-19665000D02*
X21737000Y-19705000D01*
X21737000Y-19665000D02*
X21697000Y-19705000D01*
X21923000Y-17379000D02*
X21963000Y-17419000D01*
X21963000Y-17379000D02*
X21923000Y-17419000D01*
X21923000Y-19665000D02*
X21963000Y-19705000D01*
X21963000Y-19665000D02*
X21923000Y-19705000D01*
X22078000Y-21824000D02*
X22118000Y-21864000D01*
X22118000Y-21824000D02*
X22078000Y-21864000D01*
X22268500Y-17887000D02*
X22308500Y-17927000D01*
X22308500Y-17887000D02*
X22268500Y-17927000D01*
X22395500Y-15601000D02*
X22435500Y-15641000D01*
X22435500Y-15601000D02*
X22395500Y-15641000D01*
X22395500Y-20173000D02*
X22435500Y-20213000D01*
X22435500Y-20173000D02*
X22395500Y-20213000D01*
X22395500Y-22459000D02*
X22435500Y-22499000D01*
X22435500Y-22459000D02*
X22395500Y-22499000D01*
X22636800Y-15296200D02*
X22676800Y-15336200D01*
X22676800Y-15296200D02*
X22636800Y-15336200D01*
X22939000Y-21951000D02*
X22979000Y-21991000D01*
X22979000Y-21951000D02*
X22939000Y-21991000D01*
X23030500Y-13442000D02*
X23070500Y-13482000D01*
X23070500Y-13442000D02*
X23030500Y-13482000D01*
X23094000Y-17252000D02*
X23134000Y-17292000D01*
X23134000Y-17252000D02*
X23094000Y-17292000D01*
X23157500Y-19538000D02*
X23197500Y-19578000D01*
X23197500Y-19538000D02*
X23157500Y-19578000D01*
X23411500Y-17887000D02*
X23451500Y-17927000D01*
X23451500Y-17887000D02*
X23411500Y-17927000D01*
X23411500Y-20173000D02*
X23451500Y-20213000D01*
X23451500Y-20173000D02*
X23411500Y-20213000D01*
X23411500Y-22459000D02*
X23451500Y-22499000D01*
X23451500Y-22459000D02*
X23411500Y-22499000D01*
X23690900Y-20960400D02*
X23730900Y-21000400D01*
X23730900Y-20960400D02*
X23690900Y-21000400D01*
X23729000Y-19665000D02*
X23769000Y-19705000D01*
X23769000Y-19665000D02*
X23729000Y-19705000D01*
X23767100Y-21798600D02*
X23807100Y-21838600D01*
X23807100Y-21798600D02*
X23767100Y-21838600D01*
X23955000Y-17379000D02*
X23995000Y-17419000D01*
X23995000Y-17379000D02*
X23955000Y-17419000D01*
X23955000Y-19665000D02*
X23995000Y-19705000D01*
X23995000Y-19665000D02*
X23955000Y-19705000D01*
X24364000Y-17887000D02*
X24404000Y-17927000D01*
X24404000Y-17887000D02*
X24364000Y-17927000D01*
X24364000Y-20173000D02*
X24404000Y-20213000D01*
X24404000Y-20173000D02*
X24364000Y-20213000D01*
X24364000Y-22459000D02*
X24404000Y-22499000D01*
X24404000Y-22459000D02*
X24364000Y-22499000D01*
X24427500Y-15601000D02*
X24467500Y-15641000D01*
X24467500Y-15601000D02*
X24427500Y-15641000D01*
X24618000Y-17429800D02*
X24658000Y-17469800D01*
X24658000Y-17429800D02*
X24618000Y-17469800D01*
X24668800Y-15270800D02*
X24708800Y-15310800D01*
X24708800Y-15270800D02*
X24668800Y-15310800D01*
X24770400Y-20960400D02*
X24810400Y-21000400D01*
X24810400Y-20960400D02*
X24770400Y-21000400D01*
X24846600Y-21798600D02*
X24886600Y-21838600D01*
X24886600Y-21798600D02*
X24846600Y-21838600D01*
X25062500Y-13378500D02*
X25102500Y-13418500D01*
X25102500Y-13378500D02*
X25062500Y-13418500D01*
X25189500Y-19538000D02*
X25229500Y-19578000D01*
X25229500Y-19538000D02*
X25189500Y-19578000D01*
X25443500Y-17887000D02*
X25483500Y-17927000D01*
X25483500Y-17887000D02*
X25443500Y-17927000D01*
X25443500Y-20173000D02*
X25483500Y-20213000D01*
X25483500Y-20173000D02*
X25443500Y-20213000D01*
X25443500Y-22459000D02*
X25483500Y-22499000D01*
X25483500Y-22459000D02*
X25443500Y-22499000D01*
X25606000Y-18118000D02*
X25646000Y-18158000D01*
X25646000Y-18118000D02*
X25606000Y-18158000D01*
X25659400Y-20960400D02*
X25699400Y-21000400D01*
X25699400Y-20960400D02*
X25659400Y-21000400D01*
X25735600Y-21798600D02*
X25775600Y-21838600D01*
X25775600Y-21798600D02*
X25735600Y-21838600D01*
X25748300Y-14127800D02*
X25788300Y-14167800D01*
X25788300Y-14127800D02*
X25748300Y-14167800D01*
X25761000Y-19665000D02*
X25801000Y-19705000D01*
X25801000Y-19665000D02*
X25761000Y-19705000D01*
X25824500Y-15220000D02*
X25864500Y-15260000D01*
X25864500Y-15220000D02*
X25824500Y-15260000D01*
X25987000Y-17379000D02*
X26027000Y-17419000D01*
X26027000Y-17379000D02*
X25987000Y-17419000D01*
X26396000Y-17887000D02*
X26436000Y-17927000D01*
X26436000Y-17887000D02*
X26396000Y-17927000D01*
X26396000Y-20173000D02*
X26436000Y-20213000D01*
X26436000Y-20173000D02*
X26396000Y-20213000D01*
X26396000Y-22459000D02*
X26436000Y-22499000D01*
X26436000Y-22459000D02*
X26396000Y-22499000D01*
X26421400Y-20960400D02*
X26461400Y-21000400D01*
X26461400Y-20960400D02*
X26421400Y-21000400D01*
X26497600Y-21798600D02*
X26537600Y-21838600D01*
X26537600Y-21798600D02*
X26497600Y-21838600D01*
X26827800Y-14127800D02*
X26867800Y-14167800D01*
X26867800Y-14127800D02*
X26827800Y-14167800D01*
X26904000Y-15220000D02*
X26944000Y-15260000D01*
X26944000Y-15220000D02*
X26904000Y-15260000D01*
X27158000Y-21824000D02*
X27198000Y-21864000D01*
X27198000Y-21824000D02*
X27158000Y-21864000D01*
X27221500Y-17252000D02*
X27261500Y-17292000D01*
X27261500Y-17252000D02*
X27221500Y-17292000D01*
X27221500Y-19538000D02*
X27261500Y-19578000D01*
X27261500Y-19538000D02*
X27221500Y-19578000D01*
X27475500Y-17887000D02*
X27515500Y-17927000D01*
X27515500Y-17887000D02*
X27475500Y-17927000D01*
X27475500Y-20173000D02*
X27515500Y-20213000D01*
X27515500Y-20173000D02*
X27475500Y-20213000D01*
X27475500Y-22459000D02*
X27515500Y-22499000D01*
X27515500Y-22459000D02*
X27475500Y-22499000D01*
X27716800Y-14127800D02*
X27756800Y-14167800D01*
X27756800Y-14127800D02*
X27716800Y-14167800D01*
X27793000Y-15220000D02*
X27833000Y-15260000D01*
X27833000Y-15220000D02*
X27793000Y-15260000D01*
X27793000Y-19665000D02*
X27833000Y-19705000D01*
X27833000Y-19665000D02*
X27793000Y-19705000D01*
X28019000Y-17379000D02*
X28059000Y-17419000D01*
X28059000Y-17379000D02*
X28019000Y-17419000D01*
X28019000Y-21951000D02*
X28059000Y-21991000D01*
X28059000Y-21951000D02*
X28019000Y-21991000D01*
X28301000Y-17887000D02*
X28341000Y-17927000D01*
X28341000Y-17887000D02*
X28301000Y-17927000D01*
X28301000Y-20173000D02*
X28341000Y-20213000D01*
X28341000Y-20173000D02*
X28301000Y-20213000D01*
X28301000Y-22459000D02*
X28341000Y-22499000D01*
X28341000Y-22459000D02*
X28301000Y-22499000D01*
X28478800Y-14127800D02*
X28518800Y-14167800D01*
X28518800Y-14127800D02*
X28478800Y-14167800D01*
X28555000Y-15220000D02*
X28595000Y-15260000D01*
X28595000Y-15220000D02*
X28555000Y-15260000D01*
X29190000Y-17252000D02*
X29230000Y-17292000D01*
X29230000Y-17252000D02*
X29190000Y-17292000D01*
X29190000Y-19538000D02*
X29230000Y-19578000D01*
X29230000Y-19538000D02*
X29190000Y-19578000D01*
X29253500Y-21824000D02*
X29293500Y-21864000D01*
X29293500Y-21824000D02*
X29253500Y-21864000D01*
X29825000Y-19665000D02*
X29865000Y-19705000D01*
X29865000Y-19665000D02*
X29825000Y-19705000D01*
X30051000Y-17379000D02*
X30091000Y-17419000D01*
X30091000Y-17379000D02*
X30051000Y-17419000D01*
X30051000Y-21951000D02*
X30091000Y-21991000D01*
X30091000Y-21951000D02*
X30051000Y-21991000D01*
X30180600Y-17175800D02*
X30220600Y-17215800D01*
X30220600Y-17175800D02*
X30180600Y-17215800D01*
D13*
X14913000Y-14732000D02*
G75*
G03*
X14913000Y-14732000I-25000J0D01*
G01*
X14913000Y-21526500D02*
G75*
G03*
X14913000Y-21526500I-25000J0D01*
G01*
X14978901Y-14572901D02*
G75*
G03*
X14978901Y-14572901I-25000J0D01*
G01*
X14978901Y-14891099D02*
G75*
G03*
X14978901Y-14891099I-25000J0D01*
G01*
X14978901Y-21367401D02*
G75*
G03*
X14978901Y-21367401I-25000J0D01*
G01*
X14978901Y-21685599D02*
G75*
G03*
X14978901Y-21685599I-25000J0D01*
G01*
X15138000Y-14507000D02*
G75*
G03*
X15138000Y-14507000I-25000J0D01*
G01*
X15138000Y-14957000D02*
G75*
G03*
X15138000Y-14957000I-25000J0D01*
G01*
X15138000Y-21301500D02*
G75*
G03*
X15138000Y-21301500I-25000J0D01*
G01*
X15138000Y-21751500D02*
G75*
G03*
X15138000Y-21751500I-25000J0D01*
G01*
X15297099Y-14572901D02*
G75*
G03*
X15297099Y-14572901I-25000J0D01*
G01*
X15297099Y-14891099D02*
G75*
G03*
X15297099Y-14891099I-25000J0D01*
G01*
X15297099Y-21367401D02*
G75*
G03*
X15297099Y-21367401I-25000J0D01*
G01*
X15297099Y-21685599D02*
G75*
G03*
X15297099Y-21685599I-25000J0D01*
G01*
X15363000Y-14732000D02*
G75*
G03*
X15363000Y-14732000I-25000J0D01*
G01*
X15363000Y-21526500D02*
G75*
G03*
X15363000Y-21526500I-25000J0D01*
G01*
X26025500Y-14795500D02*
G75*
G03*
X26025500Y-14795500I-25000J0D01*
G01*
X26025500Y-21526500D02*
G75*
G03*
X26025500Y-21526500I-25000J0D01*
G01*
X26091401Y-14636401D02*
G75*
G03*
X26091401Y-14636401I-25000J0D01*
G01*
X26091401Y-14954599D02*
G75*
G03*
X26091401Y-14954599I-25000J0D01*
G01*
X26091401Y-21367401D02*
G75*
G03*
X26091401Y-21367401I-25000J0D01*
G01*
X26091401Y-21685599D02*
G75*
G03*
X26091401Y-21685599I-25000J0D01*
G01*
X26250500Y-14570500D02*
G75*
G03*
X26250500Y-14570500I-25000J0D01*
G01*
X26250500Y-15020500D02*
G75*
G03*
X26250500Y-15020500I-25000J0D01*
G01*
X26250500Y-21301500D02*
G75*
G03*
X26250500Y-21301500I-25000J0D01*
G01*
X26250500Y-21751500D02*
G75*
G03*
X26250500Y-21751500I-25000J0D01*
G01*
X26409599Y-14636401D02*
G75*
G03*
X26409599Y-14636401I-25000J0D01*
G01*
X26409599Y-14954599D02*
G75*
G03*
X26409599Y-14954599I-25000J0D01*
G01*
X26409599Y-21367401D02*
G75*
G03*
X26409599Y-21367401I-25000J0D01*
G01*
X26409599Y-21685599D02*
G75*
G03*
X26409599Y-21685599I-25000J0D01*
G01*
X26475500Y-14795500D02*
G75*
G03*
X26475500Y-14795500I-25000J0D01*
G01*
X26475500Y-21526500D02*
G75*
G03*
X26475500Y-21526500I-25000J0D01*
G01*
D14*
X8735000Y-19500000D02*
X8735000Y-19570000D01*
X8700000Y-19535000D02*
X8770000Y-19535000D01*
X8735000Y-20262000D02*
X8735000Y-20332000D01*
X8700000Y-20297000D02*
X8770000Y-20297000D01*
X8989000Y-19246000D02*
X8989000Y-19316000D01*
X8954000Y-19281000D02*
X9024000Y-19281000D01*
X8989000Y-20008000D02*
X8989000Y-20078000D01*
X8954000Y-20043000D02*
X9024000Y-20043000D01*
X9370000Y-19627000D02*
X9370000Y-19697000D01*
X9335000Y-19662000D02*
X9405000Y-19662000D01*
X10132000Y-19627000D02*
X10132000Y-19697000D01*
X10097000Y-19662000D02*
X10167000Y-19662000D01*
X10668000Y-15586000D02*
X10668000Y-15656000D01*
X10633000Y-15621000D02*
X10703000Y-15621000D01*
X10668000Y-17872000D02*
X10668000Y-17942000D01*
X10633000Y-17907000D02*
X10703000Y-17907000D01*
X10668000Y-20158000D02*
X10668000Y-20228000D01*
X10633000Y-20193000D02*
X10703000Y-20193000D01*
X10668000Y-22444000D02*
X10668000Y-22514000D01*
X10633000Y-22479000D02*
X10703000Y-22479000D01*
X11430000Y-15586000D02*
X11430000Y-15656000D01*
X11395000Y-15621000D02*
X11465000Y-15621000D01*
X11430000Y-17872000D02*
X11430000Y-17942000D01*
X11395000Y-17907000D02*
X11465000Y-17907000D01*
X11430000Y-20158000D02*
X11430000Y-20228000D01*
X11395000Y-20193000D02*
X11465000Y-20193000D01*
X11430000Y-22444000D02*
X11430000Y-22514000D01*
X11395000Y-22479000D02*
X11465000Y-22479000D01*
X12700000Y-17872000D02*
X12700000Y-17942000D01*
X12665000Y-17907000D02*
X12735000Y-17907000D01*
X12700000Y-20158000D02*
X12700000Y-20228000D01*
X12665000Y-20193000D02*
X12735000Y-20193000D01*
X13462000Y-17872000D02*
X13462000Y-17942000D01*
X13427000Y-17907000D02*
X13497000Y-17907000D01*
X13462000Y-20158000D02*
X13462000Y-20228000D01*
X13427000Y-20193000D02*
X13497000Y-20193000D01*
X14732000Y-17872000D02*
X14732000Y-17942000D01*
X14697000Y-17907000D02*
X14767000Y-17907000D01*
X14732000Y-20158000D02*
X14732000Y-20228000D01*
X14697000Y-20193000D02*
X14767000Y-20193000D01*
X15494000Y-17872000D02*
X15494000Y-17942000D01*
X15459000Y-17907000D02*
X15529000Y-17907000D01*
X15494000Y-20158000D02*
X15494000Y-20228000D01*
X15459000Y-20193000D02*
X15529000Y-20193000D01*
X15748000Y-15586000D02*
X15748000Y-15656000D01*
X15713000Y-15621000D02*
X15783000Y-15621000D01*
X15748000Y-22444000D02*
X15748000Y-22514000D01*
X15713000Y-22479000D02*
X15783000Y-22479000D01*
X16510000Y-15586000D02*
X16510000Y-15656000D01*
X16475000Y-15621000D02*
X16545000Y-15621000D01*
X16510000Y-22444000D02*
X16510000Y-22514000D01*
X16475000Y-22479000D02*
X16545000Y-22479000D01*
X16764000Y-17872000D02*
X16764000Y-17942000D01*
X16729000Y-17907000D02*
X16799000Y-17907000D01*
X16764000Y-20158000D02*
X16764000Y-20228000D01*
X16729000Y-20193000D02*
X16799000Y-20193000D01*
X17526000Y-17872000D02*
X17526000Y-17942000D01*
X17491000Y-17907000D02*
X17561000Y-17907000D01*
X17526000Y-20158000D02*
X17526000Y-20228000D01*
X17491000Y-20193000D02*
X17561000Y-20193000D01*
X17780000Y-15586000D02*
X17780000Y-15656000D01*
X17745000Y-15621000D02*
X17815000Y-15621000D01*
X17780000Y-22444000D02*
X17780000Y-22514000D01*
X17745000Y-22479000D02*
X17815000Y-22479000D01*
X18542000Y-15586000D02*
X18542000Y-15656000D01*
X18507000Y-15621000D02*
X18577000Y-15621000D01*
X18542000Y-22444000D02*
X18542000Y-22514000D01*
X18507000Y-22479000D02*
X18577000Y-22479000D01*
X18796000Y-17872000D02*
X18796000Y-17942000D01*
X18761000Y-17907000D02*
X18831000Y-17907000D01*
X18796000Y-20158000D02*
X18796000Y-20228000D01*
X18761000Y-20193000D02*
X18831000Y-20193000D01*
X19558000Y-17872000D02*
X19558000Y-17942000D01*
X19523000Y-17907000D02*
X19593000Y-17907000D01*
X19558000Y-20158000D02*
X19558000Y-20228000D01*
X19523000Y-20193000D02*
X19593000Y-20193000D01*
X19812000Y-15586000D02*
X19812000Y-15656000D01*
X19777000Y-15621000D02*
X19847000Y-15621000D01*
X19812000Y-22444000D02*
X19812000Y-22514000D01*
X19777000Y-22479000D02*
X19847000Y-22479000D01*
X20574000Y-15586000D02*
X20574000Y-15656000D01*
X20539000Y-15621000D02*
X20609000Y-15621000D01*
X20574000Y-22444000D02*
X20574000Y-22514000D01*
X20539000Y-22479000D02*
X20609000Y-22479000D01*
X20828000Y-17872000D02*
X20828000Y-17942000D01*
X20793000Y-17907000D02*
X20863000Y-17907000D01*
X20828000Y-20158000D02*
X20828000Y-20228000D01*
X20793000Y-20193000D02*
X20863000Y-20193000D01*
X21590000Y-17872000D02*
X21590000Y-17942000D01*
X21555000Y-17907000D02*
X21625000Y-17907000D01*
X21590000Y-20158000D02*
X21590000Y-20228000D01*
X21555000Y-20193000D02*
X21625000Y-20193000D01*
X21844000Y-15586000D02*
X21844000Y-15656000D01*
X21809000Y-15621000D02*
X21879000Y-15621000D01*
X21844000Y-22444000D02*
X21844000Y-22514000D01*
X21809000Y-22479000D02*
X21879000Y-22479000D01*
X22606000Y-15586000D02*
X22606000Y-15656000D01*
X22571000Y-15621000D02*
X22641000Y-15621000D01*
X22606000Y-22444000D02*
X22606000Y-22514000D01*
X22571000Y-22479000D02*
X22641000Y-22479000D01*
X22860000Y-17872000D02*
X22860000Y-17942000D01*
X22825000Y-17907000D02*
X22895000Y-17907000D01*
X22860000Y-20158000D02*
X22860000Y-20228000D01*
X22825000Y-20193000D02*
X22895000Y-20193000D01*
X23622000Y-17872000D02*
X23622000Y-17942000D01*
X23587000Y-17907000D02*
X23657000Y-17907000D01*
X23622000Y-20158000D02*
X23622000Y-20228000D01*
X23587000Y-20193000D02*
X23657000Y-20193000D01*
X23876000Y-15586000D02*
X23876000Y-15656000D01*
X23841000Y-15621000D02*
X23911000Y-15621000D01*
X24638000Y-15586000D02*
X24638000Y-15656000D01*
X24603000Y-15621000D02*
X24673000Y-15621000D01*
X24892000Y-17872000D02*
X24892000Y-17942000D01*
X24857000Y-17907000D02*
X24927000Y-17907000D01*
X24892000Y-20158000D02*
X24892000Y-20228000D01*
X24857000Y-20193000D02*
X24927000Y-20193000D01*
X25654000Y-17872000D02*
X25654000Y-17942000D01*
X25619000Y-17907000D02*
X25689000Y-17907000D01*
X25654000Y-20158000D02*
X25654000Y-20228000D01*
X25619000Y-20193000D02*
X25689000Y-20193000D01*
X26924000Y-17872000D02*
X26924000Y-17942000D01*
X26889000Y-17907000D02*
X26959000Y-17907000D01*
X26924000Y-20158000D02*
X26924000Y-20228000D01*
X26889000Y-20193000D02*
X26959000Y-20193000D01*
X26924000Y-22444000D02*
X26924000Y-22514000D01*
X26889000Y-22479000D02*
X26959000Y-22479000D01*
X27686000Y-17872000D02*
X27686000Y-17942000D01*
X27651000Y-17907000D02*
X27721000Y-17907000D01*
X27686000Y-20158000D02*
X27686000Y-20228000D01*
X27651000Y-20193000D02*
X27721000Y-20193000D01*
X27686000Y-22444000D02*
X27686000Y-22514000D01*
X27651000Y-22479000D02*
X27721000Y-22479000D01*
X28956000Y-15586000D02*
X28956000Y-15656000D01*
X28921000Y-15621000D02*
X28991000Y-15621000D01*
X28956000Y-17872000D02*
X28956000Y-17942000D01*
X28921000Y-17907000D02*
X28991000Y-17907000D01*
X28956000Y-20158000D02*
X28956000Y-20228000D01*
X28921000Y-20193000D02*
X28991000Y-20193000D01*
X28956000Y-22444000D02*
X28956000Y-22514000D01*
X28921000Y-22479000D02*
X28991000Y-22479000D01*
X29718000Y-15586000D02*
X29718000Y-15656000D01*
X29683000Y-15621000D02*
X29753000Y-15621000D01*
X29718000Y-17872000D02*
X29718000Y-17942000D01*
X29683000Y-17907000D02*
X29753000Y-17907000D01*
X29718000Y-20158000D02*
X29718000Y-20228000D01*
X29683000Y-20193000D02*
X29753000Y-20193000D01*
X29718000Y-22444000D02*
X29718000Y-22514000D01*
X29683000Y-22479000D02*
X29753000Y-22479000D01*
D15*
X9777517Y-19307517D02*
X9777517Y-19254483D01*
X9724483Y-19254483D01*
X9724483Y-19307517D01*
X9777517Y-19307517D01*
X9904517Y-19307517D02*
X9904517Y-19254483D01*
X9851483Y-19254483D01*
X9851483Y-19307517D01*
X9904517Y-19307517D01*
X10031517Y-19307517D02*
X10031517Y-19254483D01*
X9978483Y-19254483D01*
X9978483Y-19307517D01*
X10031517Y-19307517D01*
D16*
X9371000Y-20084000D02*
X9411000Y-20044000D01*
X9371000Y-20004000D01*
X9331000Y-20044000D01*
X9371000Y-20084000D01*
X9371000Y-20338000D02*
X9411000Y-20298000D01*
X9371000Y-20258000D01*
X9331000Y-20298000D01*
X9371000Y-20338000D01*
X9371000Y-20592000D02*
X9411000Y-20552000D01*
X9371000Y-20512000D01*
X9331000Y-20552000D01*
X9371000Y-20592000D01*
X9371000Y-20846000D02*
X9411000Y-20806000D01*
X9371000Y-20766000D01*
X9331000Y-20806000D01*
X9371000Y-20846000D01*
X9371000Y-21100000D02*
X9411000Y-21060000D01*
X9371000Y-21020000D01*
X9331000Y-21060000D01*
X9371000Y-21100000D01*
X9371000Y-21354000D02*
X9411000Y-21314000D01*
X9371000Y-21274000D01*
X9331000Y-21314000D01*
X9371000Y-21354000D01*
X9371000Y-21608000D02*
X9411000Y-21568000D01*
X9371000Y-21528000D01*
X9331000Y-21568000D01*
X9371000Y-21608000D01*
X9371000Y-21862000D02*
X9411000Y-21822000D01*
X9371000Y-21782000D01*
X9331000Y-21822000D01*
X9371000Y-21862000D01*
X9371000Y-22116000D02*
X9411000Y-22076000D01*
X9371000Y-22036000D01*
X9331000Y-22076000D01*
X9371000Y-22116000D01*
X10133000Y-20084000D02*
X10173000Y-20044000D01*
X10133000Y-20004000D01*
X10093000Y-20044000D01*
X10133000Y-20084000D01*
X10133000Y-20338000D02*
X10173000Y-20298000D01*
X10133000Y-20258000D01*
X10093000Y-20298000D01*
X10133000Y-20338000D01*
X10133000Y-20592000D02*
X10173000Y-20552000D01*
X10133000Y-20512000D01*
X10093000Y-20552000D01*
X10133000Y-20592000D01*
X10133000Y-20846000D02*
X10173000Y-20806000D01*
X10133000Y-20766000D01*
X10093000Y-20806000D01*
X10133000Y-20846000D01*
X10133000Y-21100000D02*
X10173000Y-21060000D01*
X10133000Y-21020000D01*
X10093000Y-21060000D01*
X10133000Y-21100000D01*
X10133000Y-21354000D02*
X10173000Y-21314000D01*
X10133000Y-21274000D01*
X10093000Y-21314000D01*
X10133000Y-21354000D01*
X10133000Y-21608000D02*
X10173000Y-21568000D01*
X10133000Y-21528000D01*
X10093000Y-21568000D01*
X10133000Y-21608000D01*
X10133000Y-21862000D02*
X10173000Y-21822000D01*
X10133000Y-21782000D01*
X10093000Y-21822000D01*
X10133000Y-21862000D01*
X10133000Y-22116000D02*
X10173000Y-22076000D01*
X10133000Y-22036000D01*
X10093000Y-22076000D01*
X10133000Y-22116000D01*
D17*
X11352470Y-14913470D02*
X11451530Y-15012530D01*
X11451530Y-14913470D02*
X11352470Y-15012530D01*
X11451530Y-14963000D02*
G75*
G03*
X11451530Y-14963000I-49530J0D01*
G01*
X11352470Y-17199470D02*
X11451530Y-17298530D01*
X11451530Y-17199470D02*
X11352470Y-17298530D01*
X11451530Y-17249000D02*
G75*
G03*
X11451530Y-17249000I-49530J0D01*
G01*
X11352470Y-19485470D02*
X11451530Y-19584530D01*
X11451530Y-19485470D02*
X11352470Y-19584530D01*
X11451530Y-19535000D02*
G75*
G03*
X11451530Y-19535000I-49530J0D01*
G01*
X11352470Y-21771470D02*
X11451530Y-21870530D01*
X11451530Y-21771470D02*
X11352470Y-21870530D01*
X11451530Y-21821000D02*
G75*
G03*
X11451530Y-21821000I-49530J0D01*
G01*
X11606470Y-14913470D02*
X11705530Y-15012530D01*
X11705530Y-14913470D02*
X11606470Y-15012530D01*
X11705530Y-14963000D02*
G75*
G03*
X11705530Y-14963000I-49530J0D01*
G01*
X11606470Y-17199470D02*
X11705530Y-17298530D01*
X11705530Y-17199470D02*
X11606470Y-17298530D01*
X11705530Y-17249000D02*
G75*
G03*
X11705530Y-17249000I-49530J0D01*
G01*
X11606470Y-19485470D02*
X11705530Y-19584530D01*
X11705530Y-19485470D02*
X11606470Y-19584530D01*
X11705530Y-19535000D02*
G75*
G03*
X11705530Y-19535000I-49530J0D01*
G01*
X11606470Y-21771470D02*
X11705530Y-21870530D01*
X11705530Y-21771470D02*
X11606470Y-21870530D01*
X11705530Y-21821000D02*
G75*
G03*
X11705530Y-21821000I-49530J0D01*
G01*
X13384470Y-17199470D02*
X13483530Y-17298530D01*
X13483530Y-17199470D02*
X13384470Y-17298530D01*
X13483530Y-17249000D02*
G75*
G03*
X13483530Y-17249000I-49530J0D01*
G01*
X13384470Y-19485470D02*
X13483530Y-19584530D01*
X13483530Y-19485470D02*
X13384470Y-19584530D01*
X13483530Y-19535000D02*
G75*
G03*
X13483530Y-19535000I-49530J0D01*
G01*
X13638470Y-17199470D02*
X13737530Y-17298530D01*
X13737530Y-17199470D02*
X13638470Y-17298530D01*
X13737530Y-17249000D02*
G75*
G03*
X13737530Y-17249000I-49530J0D01*
G01*
X13638470Y-19485470D02*
X13737530Y-19584530D01*
X13737530Y-19485470D02*
X13638470Y-19584530D01*
X13737530Y-19535000D02*
G75*
G03*
X13737530Y-19535000I-49530J0D01*
G01*
X15416470Y-17199470D02*
X15515530Y-17298530D01*
X15515530Y-17199470D02*
X15416470Y-17298530D01*
X15515530Y-17249000D02*
G75*
G03*
X15515530Y-17249000I-49530J0D01*
G01*
X15416470Y-19485470D02*
X15515530Y-19584530D01*
X15515530Y-19485470D02*
X15416470Y-19584530D01*
X15515530Y-19535000D02*
G75*
G03*
X15515530Y-19535000I-49530J0D01*
G01*
X15670470Y-17199470D02*
X15769530Y-17298530D01*
X15769530Y-17199470D02*
X15670470Y-17298530D01*
X15769530Y-17249000D02*
G75*
G03*
X15769530Y-17249000I-49530J0D01*
G01*
X15670470Y-19485470D02*
X15769530Y-19584530D01*
X15769530Y-19485470D02*
X15670470Y-19584530D01*
X15769530Y-19535000D02*
G75*
G03*
X15769530Y-19535000I-49530J0D01*
G01*
X16432470Y-14913470D02*
X16531530Y-15012530D01*
X16531530Y-14913470D02*
X16432470Y-15012530D01*
X16531530Y-14963000D02*
G75*
G03*
X16531530Y-14963000I-49530J0D01*
G01*
X16432470Y-21771470D02*
X16531530Y-21870530D01*
X16531530Y-21771470D02*
X16432470Y-21870530D01*
X16531530Y-21821000D02*
G75*
G03*
X16531530Y-21821000I-49530J0D01*
G01*
X16686470Y-14913470D02*
X16785530Y-15012530D01*
X16785530Y-14913470D02*
X16686470Y-15012530D01*
X16785530Y-14963000D02*
G75*
G03*
X16785530Y-14963000I-49530J0D01*
G01*
X16686470Y-21771470D02*
X16785530Y-21870530D01*
X16785530Y-21771470D02*
X16686470Y-21870530D01*
X16785530Y-21821000D02*
G75*
G03*
X16785530Y-21821000I-49530J0D01*
G01*
X17448470Y-17199470D02*
X17547530Y-17298530D01*
X17547530Y-17199470D02*
X17448470Y-17298530D01*
X17547530Y-17249000D02*
G75*
G03*
X17547530Y-17249000I-49530J0D01*
G01*
X17448470Y-19485470D02*
X17547530Y-19584530D01*
X17547530Y-19485470D02*
X17448470Y-19584530D01*
X17547530Y-19535000D02*
G75*
G03*
X17547530Y-19535000I-49530J0D01*
G01*
X17702470Y-17199470D02*
X17801530Y-17298530D01*
X17801530Y-17199470D02*
X17702470Y-17298530D01*
X17801530Y-17249000D02*
G75*
G03*
X17801530Y-17249000I-49530J0D01*
G01*
X17702470Y-19485470D02*
X17801530Y-19584530D01*
X17801530Y-19485470D02*
X17702470Y-19584530D01*
X17801530Y-19535000D02*
G75*
G03*
X17801530Y-19535000I-49530J0D01*
G01*
X18464470Y-14913470D02*
X18563530Y-15012530D01*
X18563530Y-14913470D02*
X18464470Y-15012530D01*
X18563530Y-14963000D02*
G75*
G03*
X18563530Y-14963000I-49530J0D01*
G01*
X18464470Y-21771470D02*
X18563530Y-21870530D01*
X18563530Y-21771470D02*
X18464470Y-21870530D01*
X18563530Y-21821000D02*
G75*
G03*
X18563530Y-21821000I-49530J0D01*
G01*
X18718470Y-14913470D02*
X18817530Y-15012530D01*
X18817530Y-14913470D02*
X18718470Y-15012530D01*
X18817530Y-14963000D02*
G75*
G03*
X18817530Y-14963000I-49530J0D01*
G01*
X18718470Y-21771470D02*
X18817530Y-21870530D01*
X18817530Y-21771470D02*
X18718470Y-21870530D01*
X18817530Y-21821000D02*
G75*
G03*
X18817530Y-21821000I-49530J0D01*
G01*
X19480470Y-17199470D02*
X19579530Y-17298530D01*
X19579530Y-17199470D02*
X19480470Y-17298530D01*
X19579530Y-17249000D02*
G75*
G03*
X19579530Y-17249000I-49530J0D01*
G01*
X19480470Y-19485470D02*
X19579530Y-19584530D01*
X19579530Y-19485470D02*
X19480470Y-19584530D01*
X19579530Y-19535000D02*
G75*
G03*
X19579530Y-19535000I-49530J0D01*
G01*
X19734470Y-17199470D02*
X19833530Y-17298530D01*
X19833530Y-17199470D02*
X19734470Y-17298530D01*
X19833530Y-17249000D02*
G75*
G03*
X19833530Y-17249000I-49530J0D01*
G01*
X19734470Y-19485470D02*
X19833530Y-19584530D01*
X19833530Y-19485470D02*
X19734470Y-19584530D01*
X19833530Y-19535000D02*
G75*
G03*
X19833530Y-19535000I-49530J0D01*
G01*
X20496470Y-14913470D02*
X20595530Y-15012530D01*
X20595530Y-14913470D02*
X20496470Y-15012530D01*
X20595530Y-14963000D02*
G75*
G03*
X20595530Y-14963000I-49530J0D01*
G01*
X20496470Y-21771470D02*
X20595530Y-21870530D01*
X20595530Y-21771470D02*
X20496470Y-21870530D01*
X20595530Y-21821000D02*
G75*
G03*
X20595530Y-21821000I-49530J0D01*
G01*
X20750470Y-14913470D02*
X20849530Y-15012530D01*
X20849530Y-14913470D02*
X20750470Y-15012530D01*
X20849530Y-14963000D02*
G75*
G03*
X20849530Y-14963000I-49530J0D01*
G01*
X20750470Y-21771470D02*
X20849530Y-21870530D01*
X20849530Y-21771470D02*
X20750470Y-21870530D01*
X20849530Y-21821000D02*
G75*
G03*
X20849530Y-21821000I-49530J0D01*
G01*
X21512470Y-17199470D02*
X21611530Y-17298530D01*
X21611530Y-17199470D02*
X21512470Y-17298530D01*
X21611530Y-17249000D02*
G75*
G03*
X21611530Y-17249000I-49530J0D01*
G01*
X21512470Y-19485470D02*
X21611530Y-19584530D01*
X21611530Y-19485470D02*
X21512470Y-19584530D01*
X21611530Y-19535000D02*
G75*
G03*
X21611530Y-19535000I-49530J0D01*
G01*
X21766470Y-17199470D02*
X21865530Y-17298530D01*
X21865530Y-17199470D02*
X21766470Y-17298530D01*
X21865530Y-17249000D02*
G75*
G03*
X21865530Y-17249000I-49530J0D01*
G01*
X21766470Y-19485470D02*
X21865530Y-19584530D01*
X21865530Y-19485470D02*
X21766470Y-19584530D01*
X21865530Y-19535000D02*
G75*
G03*
X21865530Y-19535000I-49530J0D01*
G01*
X22528470Y-14913470D02*
X22627530Y-15012530D01*
X22627530Y-14913470D02*
X22528470Y-15012530D01*
X22627530Y-14963000D02*
G75*
G03*
X22627530Y-14963000I-49530J0D01*
G01*
X22528470Y-21771470D02*
X22627530Y-21870530D01*
X22627530Y-21771470D02*
X22528470Y-21870530D01*
X22627530Y-21821000D02*
G75*
G03*
X22627530Y-21821000I-49530J0D01*
G01*
X22782470Y-14913470D02*
X22881530Y-15012530D01*
X22881530Y-14913470D02*
X22782470Y-15012530D01*
X22881530Y-14963000D02*
G75*
G03*
X22881530Y-14963000I-49530J0D01*
G01*
X22782470Y-21771470D02*
X22881530Y-21870530D01*
X22881530Y-21771470D02*
X22782470Y-21870530D01*
X22881530Y-21821000D02*
G75*
G03*
X22881530Y-21821000I-49530J0D01*
G01*
X23544470Y-17199470D02*
X23643530Y-17298530D01*
X23643530Y-17199470D02*
X23544470Y-17298530D01*
X23643530Y-17249000D02*
G75*
G03*
X23643530Y-17249000I-49530J0D01*
G01*
X23544470Y-19485470D02*
X23643530Y-19584530D01*
X23643530Y-19485470D02*
X23544470Y-19584530D01*
X23643530Y-19535000D02*
G75*
G03*
X23643530Y-19535000I-49530J0D01*
G01*
X23798470Y-17199470D02*
X23897530Y-17298530D01*
X23897530Y-17199470D02*
X23798470Y-17298530D01*
X23897530Y-17249000D02*
G75*
G03*
X23897530Y-17249000I-49530J0D01*
G01*
X23798470Y-19485470D02*
X23897530Y-19584530D01*
X23897530Y-19485470D02*
X23798470Y-19584530D01*
X23897530Y-19535000D02*
G75*
G03*
X23897530Y-19535000I-49530J0D01*
G01*
X24560470Y-14913470D02*
X24659530Y-15012530D01*
X24659530Y-14913470D02*
X24560470Y-15012530D01*
X24659530Y-14963000D02*
G75*
G03*
X24659530Y-14963000I-49530J0D01*
G01*
X24814470Y-14913470D02*
X24913530Y-15012530D01*
X24913530Y-14913470D02*
X24814470Y-15012530D01*
X24913530Y-14963000D02*
G75*
G03*
X24913530Y-14963000I-49530J0D01*
G01*
X25576470Y-17199470D02*
X25675530Y-17298530D01*
X25675530Y-17199470D02*
X25576470Y-17298530D01*
X25675530Y-17249000D02*
G75*
G03*
X25675530Y-17249000I-49530J0D01*
G01*
X25576470Y-19485470D02*
X25675530Y-19584530D01*
X25675530Y-19485470D02*
X25576470Y-19584530D01*
X25675530Y-19535000D02*
G75*
G03*
X25675530Y-19535000I-49530J0D01*
G01*
X25830470Y-17199470D02*
X25929530Y-17298530D01*
X25929530Y-17199470D02*
X25830470Y-17298530D01*
X25929530Y-17249000D02*
G75*
G03*
X25929530Y-17249000I-49530J0D01*
G01*
X25830470Y-19485470D02*
X25929530Y-19584530D01*
X25929530Y-19485470D02*
X25830470Y-19584530D01*
X25929530Y-19535000D02*
G75*
G03*
X25929530Y-19535000I-49530J0D01*
G01*
X27608470Y-17199470D02*
X27707530Y-17298530D01*
X27707530Y-17199470D02*
X27608470Y-17298530D01*
X27707530Y-17249000D02*
G75*
G03*
X27707530Y-17249000I-49530J0D01*
G01*
X27608470Y-19485470D02*
X27707530Y-19584530D01*
X27707530Y-19485470D02*
X27608470Y-19584530D01*
X27707530Y-19535000D02*
G75*
G03*
X27707530Y-19535000I-49530J0D01*
G01*
X27608470Y-21771470D02*
X27707530Y-21870530D01*
X27707530Y-21771470D02*
X27608470Y-21870530D01*
X27707530Y-21821000D02*
G75*
G03*
X27707530Y-21821000I-49530J0D01*
G01*
X27862470Y-17199470D02*
X27961530Y-17298530D01*
X27961530Y-17199470D02*
X27862470Y-17298530D01*
X27961530Y-17249000D02*
G75*
G03*
X27961530Y-17249000I-49530J0D01*
G01*
X27862470Y-19485470D02*
X27961530Y-19584530D01*
X27961530Y-19485470D02*
X27862470Y-19584530D01*
X27961530Y-19535000D02*
G75*
G03*
X27961530Y-19535000I-49530J0D01*
G01*
X27862470Y-21771470D02*
X27961530Y-21870530D01*
X27961530Y-21771470D02*
X27862470Y-21870530D01*
X27961530Y-21821000D02*
G75*
G03*
X27961530Y-21821000I-49530J0D01*
G01*
X29640470Y-14913470D02*
X29739530Y-15012530D01*
X29739530Y-14913470D02*
X29640470Y-15012530D01*
X29739530Y-14963000D02*
G75*
G03*
X29739530Y-14963000I-49530J0D01*
G01*
X29640470Y-17199470D02*
X29739530Y-17298530D01*
X29739530Y-17199470D02*
X29640470Y-17298530D01*
X29739530Y-17249000D02*
G75*
G03*
X29739530Y-17249000I-49530J0D01*
G01*
X29640470Y-19485470D02*
X29739530Y-19584530D01*
X29739530Y-19485470D02*
X29640470Y-19584530D01*
X29739530Y-19535000D02*
G75*
G03*
X29739530Y-19535000I-49530J0D01*
G01*
X29640470Y-21771470D02*
X29739530Y-21870530D01*
X29739530Y-21771470D02*
X29640470Y-21870530D01*
X29739530Y-21821000D02*
G75*
G03*
X29739530Y-21821000I-49530J0D01*
G01*
X29894470Y-14913470D02*
X29993530Y-15012530D01*
X29993530Y-14913470D02*
X29894470Y-15012530D01*
X29993530Y-14963000D02*
G75*
G03*
X29993530Y-14963000I-49530J0D01*
G01*
X29894470Y-17199470D02*
X29993530Y-17298530D01*
X29993530Y-17199470D02*
X29894470Y-17298530D01*
X29993530Y-17249000D02*
G75*
G03*
X29993530Y-17249000I-49530J0D01*
G01*
X29894470Y-19485470D02*
X29993530Y-19584530D01*
X29993530Y-19485470D02*
X29894470Y-19584530D01*
X29993530Y-19535000D02*
G75*
G03*
X29993530Y-19535000I-49530J0D01*
G01*
X29894470Y-21771470D02*
X29993530Y-21870530D01*
X29993530Y-21771470D02*
X29894470Y-21870530D01*
X29993530Y-21821000D02*
G75*
G03*
X29993530Y-21821000I-49530J0D01*
G01*
D18*
X7923000Y-19231000D02*
X8023000Y-19331000D01*
X8023000Y-19231000D02*
X7923000Y-19331000D01*
X7973000Y-19231000D02*
X7973000Y-19331000D01*
X7923000Y-19281000D02*
X8023000Y-19281000D01*
X8177000Y-19231000D02*
X8277000Y-19331000D01*
X8277000Y-19231000D02*
X8177000Y-19331000D01*
X8227000Y-19231000D02*
X8227000Y-19331000D01*
X8177000Y-19281000D02*
X8277000Y-19281000D01*
X8179600Y-19990600D02*
X8279600Y-20090600D01*
X8279600Y-19990600D02*
X8179600Y-20090600D01*
X8229600Y-19990600D02*
X8229600Y-20090600D01*
X8179600Y-20040600D02*
X8279600Y-20040600D01*
X8179600Y-20244600D02*
X8279600Y-20344600D01*
X8279600Y-20244600D02*
X8179600Y-20344600D01*
X8229600Y-20244600D02*
X8229600Y-20344600D01*
X8179600Y-20294600D02*
X8279600Y-20294600D01*
X8179600Y-20498600D02*
X8279600Y-20598600D01*
X8279600Y-20498600D02*
X8179600Y-20598600D01*
X8229600Y-20498600D02*
X8229600Y-20598600D01*
X8179600Y-20548600D02*
X8279600Y-20548600D01*
X8649500Y-18809500D02*
X8749500Y-18909500D01*
X8749500Y-18809500D02*
X8649500Y-18909500D01*
X8699500Y-18809500D02*
X8699500Y-18909500D01*
X8649500Y-18859500D02*
X8749500Y-18859500D01*
X8903500Y-18809500D02*
X9003500Y-18909500D01*
X9003500Y-18809500D02*
X8903500Y-18909500D01*
X8953500Y-18809500D02*
X8953500Y-18909500D01*
X8903500Y-18859500D02*
X9003500Y-18859500D01*
X9157500Y-18809500D02*
X9257500Y-18909500D01*
X9257500Y-18809500D02*
X9157500Y-18909500D01*
X9207500Y-18809500D02*
X9207500Y-18909500D01*
X9157500Y-18859500D02*
X9257500Y-18859500D01*
D19*
X11073000Y-14126000D02*
X11223000Y-14276000D01*
X11223000Y-14126000D02*
X11073000Y-14276000D01*
X11201033Y-14254033D02*
X11201033Y-14147966D01*
X11094967Y-14147966D01*
X11094967Y-14254033D01*
X11201033Y-14254033D01*
X11073000Y-16412000D02*
X11223000Y-16562000D01*
X11223000Y-16412000D02*
X11073000Y-16562000D01*
X11201033Y-16540033D02*
X11201033Y-16433966D01*
X11094967Y-16433966D01*
X11094967Y-16540033D01*
X11201033Y-16540033D01*
X11073000Y-18698000D02*
X11223000Y-18848000D01*
X11223000Y-18698000D02*
X11073000Y-18848000D01*
X11201033Y-18826034D02*
X11201033Y-18719967D01*
X11094967Y-18719967D01*
X11094967Y-18826034D01*
X11201033Y-18826034D01*
X11073000Y-20984000D02*
X11223000Y-21134000D01*
X11223000Y-20984000D02*
X11073000Y-21134000D01*
X11201033Y-21112034D02*
X11201033Y-21005967D01*
X11094967Y-21005967D01*
X11094967Y-21112034D01*
X11201033Y-21112034D01*
X11708000Y-13872000D02*
X11858000Y-14022000D01*
X11858000Y-13872000D02*
X11708000Y-14022000D01*
X11836033Y-14000033D02*
X11836033Y-13893966D01*
X11729966Y-13893966D01*
X11729966Y-14000033D01*
X11836033Y-14000033D01*
X11708000Y-16158000D02*
X11858000Y-16308000D01*
X11858000Y-16158000D02*
X11708000Y-16308000D01*
X11836033Y-16286033D02*
X11836033Y-16179966D01*
X11729966Y-16179966D01*
X11729966Y-16286033D01*
X11836033Y-16286033D01*
X11708000Y-18444000D02*
X11858000Y-18594000D01*
X11858000Y-18444000D02*
X11708000Y-18594000D01*
X11836033Y-18572034D02*
X11836033Y-18465967D01*
X11729966Y-18465967D01*
X11729966Y-18572034D01*
X11836033Y-18572034D01*
X11708000Y-20730000D02*
X11858000Y-20880000D01*
X11858000Y-20730000D02*
X11708000Y-20880000D01*
X11836033Y-20858034D02*
X11836033Y-20751967D01*
X11729966Y-20751967D01*
X11729966Y-20858034D01*
X11836033Y-20858034D01*
X13105000Y-16412000D02*
X13255000Y-16562000D01*
X13255000Y-16412000D02*
X13105000Y-16562000D01*
X13233033Y-16540033D02*
X13233033Y-16433966D01*
X13126966Y-16433966D01*
X13126966Y-16540033D01*
X13233033Y-16540033D01*
X13105000Y-18698000D02*
X13255000Y-18848000D01*
X13255000Y-18698000D02*
X13105000Y-18848000D01*
X13233033Y-18826034D02*
X13233033Y-18719967D01*
X13126966Y-18719967D01*
X13126966Y-18826034D01*
X13233033Y-18826034D01*
X13740000Y-16158000D02*
X13890000Y-16308000D01*
X13890000Y-16158000D02*
X13740000Y-16308000D01*
X13868033Y-16286033D02*
X13868033Y-16179966D01*
X13761966Y-16179966D01*
X13761966Y-16286033D01*
X13868033Y-16286033D01*
X13740000Y-18444000D02*
X13890000Y-18594000D01*
X13890000Y-18444000D02*
X13740000Y-18594000D01*
X13868033Y-18572034D02*
X13868033Y-18465967D01*
X13761966Y-18465967D01*
X13761966Y-18572034D01*
X13868033Y-18572034D01*
X15137000Y-16412000D02*
X15287000Y-16562000D01*
X15287000Y-16412000D02*
X15137000Y-16562000D01*
X15265033Y-16540033D02*
X15265033Y-16433966D01*
X15158966Y-16433966D01*
X15158966Y-16540033D01*
X15265033Y-16540033D01*
X15137000Y-18698000D02*
X15287000Y-18848000D01*
X15287000Y-18698000D02*
X15137000Y-18848000D01*
X15265033Y-18826034D02*
X15265033Y-18719967D01*
X15158966Y-18719967D01*
X15158966Y-18826034D01*
X15265033Y-18826034D01*
X15772000Y-16158000D02*
X15922000Y-16308000D01*
X15922000Y-16158000D02*
X15772000Y-16308000D01*
X15900033Y-16286033D02*
X15900033Y-16179966D01*
X15793966Y-16179966D01*
X15793966Y-16286033D01*
X15900033Y-16286033D01*
X15772000Y-18444000D02*
X15922000Y-18594000D01*
X15922000Y-18444000D02*
X15772000Y-18594000D01*
X15900033Y-18572034D02*
X15900033Y-18465967D01*
X15793966Y-18465967D01*
X15793966Y-18572034D01*
X15900033Y-18572034D01*
X16153000Y-14126000D02*
X16303000Y-14276000D01*
X16303000Y-14126000D02*
X16153000Y-14276000D01*
X16281033Y-14254033D02*
X16281033Y-14147966D01*
X16174966Y-14147966D01*
X16174966Y-14254033D01*
X16281033Y-14254033D01*
X16153000Y-20984000D02*
X16303000Y-21134000D01*
X16303000Y-20984000D02*
X16153000Y-21134000D01*
X16281033Y-21112034D02*
X16281033Y-21005967D01*
X16174966Y-21005967D01*
X16174966Y-21112034D01*
X16281033Y-21112034D01*
X16788000Y-13872000D02*
X16938000Y-14022000D01*
X16938000Y-13872000D02*
X16788000Y-14022000D01*
X16916034Y-14000033D02*
X16916034Y-13893966D01*
X16809967Y-13893966D01*
X16809967Y-14000033D01*
X16916034Y-14000033D01*
X16788000Y-20730000D02*
X16938000Y-20880000D01*
X16938000Y-20730000D02*
X16788000Y-20880000D01*
X16916034Y-20858034D02*
X16916034Y-20751967D01*
X16809967Y-20751967D01*
X16809967Y-20858034D01*
X16916034Y-20858034D01*
X17169000Y-16412000D02*
X17319000Y-16562000D01*
X17319000Y-16412000D02*
X17169000Y-16562000D01*
X17297034Y-16540033D02*
X17297034Y-16433966D01*
X17190967Y-16433966D01*
X17190967Y-16540033D01*
X17297034Y-16540033D01*
X17169000Y-18698000D02*
X17319000Y-18848000D01*
X17319000Y-18698000D02*
X17169000Y-18848000D01*
X17297034Y-18826034D02*
X17297034Y-18719967D01*
X17190967Y-18719967D01*
X17190967Y-18826034D01*
X17297034Y-18826034D01*
X17804000Y-16158000D02*
X17954000Y-16308000D01*
X17954000Y-16158000D02*
X17804000Y-16308000D01*
X17932034Y-16286033D02*
X17932034Y-16179966D01*
X17825967Y-16179966D01*
X17825967Y-16286033D01*
X17932034Y-16286033D01*
X17804000Y-18444000D02*
X17954000Y-18594000D01*
X17954000Y-18444000D02*
X17804000Y-18594000D01*
X17932034Y-18572034D02*
X17932034Y-18465967D01*
X17825967Y-18465967D01*
X17825967Y-18572034D01*
X17932034Y-18572034D01*
X18185000Y-14126000D02*
X18335000Y-14276000D01*
X18335000Y-14126000D02*
X18185000Y-14276000D01*
X18313034Y-14254033D02*
X18313034Y-14147966D01*
X18206967Y-14147966D01*
X18206967Y-14254033D01*
X18313034Y-14254033D01*
X18185000Y-20984000D02*
X18335000Y-21134000D01*
X18335000Y-20984000D02*
X18185000Y-21134000D01*
X18313034Y-21112034D02*
X18313034Y-21005967D01*
X18206967Y-21005967D01*
X18206967Y-21112034D01*
X18313034Y-21112034D01*
X18820000Y-13872000D02*
X18970000Y-14022000D01*
X18970000Y-13872000D02*
X18820000Y-14022000D01*
X18948034Y-14000033D02*
X18948034Y-13893966D01*
X18841967Y-13893966D01*
X18841967Y-14000033D01*
X18948034Y-14000033D01*
X18820000Y-20730000D02*
X18970000Y-20880000D01*
X18970000Y-20730000D02*
X18820000Y-20880000D01*
X18948034Y-20858034D02*
X18948034Y-20751967D01*
X18841967Y-20751967D01*
X18841967Y-20858034D01*
X18948034Y-20858034D01*
X19201000Y-16412000D02*
X19351000Y-16562000D01*
X19351000Y-16412000D02*
X19201000Y-16562000D01*
X19329034Y-16540033D02*
X19329034Y-16433966D01*
X19222967Y-16433966D01*
X19222967Y-16540033D01*
X19329034Y-16540033D01*
X19201000Y-18698000D02*
X19351000Y-18848000D01*
X19351000Y-18698000D02*
X19201000Y-18848000D01*
X19329034Y-18826034D02*
X19329034Y-18719967D01*
X19222967Y-18719967D01*
X19222967Y-18826034D01*
X19329034Y-18826034D01*
X19836000Y-16158000D02*
X19986000Y-16308000D01*
X19986000Y-16158000D02*
X19836000Y-16308000D01*
X19964034Y-16286033D02*
X19964034Y-16179966D01*
X19857967Y-16179966D01*
X19857967Y-16286033D01*
X19964034Y-16286033D01*
X19836000Y-18444000D02*
X19986000Y-18594000D01*
X19986000Y-18444000D02*
X19836000Y-18594000D01*
X19964034Y-18572034D02*
X19964034Y-18465967D01*
X19857967Y-18465967D01*
X19857967Y-18572034D01*
X19964034Y-18572034D01*
X20217000Y-14126000D02*
X20367000Y-14276000D01*
X20367000Y-14126000D02*
X20217000Y-14276000D01*
X20345034Y-14254033D02*
X20345034Y-14147966D01*
X20238967Y-14147966D01*
X20238967Y-14254033D01*
X20345034Y-14254033D01*
X20217000Y-20984000D02*
X20367000Y-21134000D01*
X20367000Y-20984000D02*
X20217000Y-21134000D01*
X20345034Y-21112034D02*
X20345034Y-21005967D01*
X20238967Y-21005967D01*
X20238967Y-21112034D01*
X20345034Y-21112034D01*
X20852000Y-13872000D02*
X21002000Y-14022000D01*
X21002000Y-13872000D02*
X20852000Y-14022000D01*
X20980034Y-14000033D02*
X20980034Y-13893966D01*
X20873967Y-13893966D01*
X20873967Y-14000033D01*
X20980034Y-14000033D01*
X20852000Y-20730000D02*
X21002000Y-20880000D01*
X21002000Y-20730000D02*
X20852000Y-20880000D01*
X20980034Y-20858034D02*
X20980034Y-20751967D01*
X20873967Y-20751967D01*
X20873967Y-20858034D01*
X20980034Y-20858034D01*
X21233000Y-16412000D02*
X21383000Y-16562000D01*
X21383000Y-16412000D02*
X21233000Y-16562000D01*
X21361034Y-16540033D02*
X21361034Y-16433966D01*
X21254967Y-16433966D01*
X21254967Y-16540033D01*
X21361034Y-16540033D01*
X21233000Y-18698000D02*
X21383000Y-18848000D01*
X21383000Y-18698000D02*
X21233000Y-18848000D01*
X21361034Y-18826034D02*
X21361034Y-18719967D01*
X21254967Y-18719967D01*
X21254967Y-18826034D01*
X21361034Y-18826034D01*
X21868000Y-16158000D02*
X22018000Y-16308000D01*
X22018000Y-16158000D02*
X21868000Y-16308000D01*
X21996034Y-16286033D02*
X21996034Y-16179966D01*
X21889967Y-16179966D01*
X21889967Y-16286033D01*
X21996034Y-16286033D01*
X21868000Y-18444000D02*
X22018000Y-18594000D01*
X22018000Y-18444000D02*
X21868000Y-18594000D01*
X21996034Y-18572034D02*
X21996034Y-18465967D01*
X21889967Y-18465967D01*
X21889967Y-18572034D01*
X21996034Y-18572034D01*
X22249000Y-14126000D02*
X22399000Y-14276000D01*
X22399000Y-14126000D02*
X22249000Y-14276000D01*
X22377033Y-14254033D02*
X22377033Y-14147966D01*
X22270967Y-14147966D01*
X22270967Y-14254033D01*
X22377033Y-14254033D01*
X22249000Y-20984000D02*
X22399000Y-21134000D01*
X22399000Y-20984000D02*
X22249000Y-21134000D01*
X22377033Y-21112034D02*
X22377033Y-21005967D01*
X22270967Y-21005967D01*
X22270967Y-21112034D01*
X22377033Y-21112034D01*
X22884000Y-13872000D02*
X23034000Y-14022000D01*
X23034000Y-13872000D02*
X22884000Y-14022000D01*
X23012033Y-14000033D02*
X23012033Y-13893966D01*
X22905966Y-13893966D01*
X22905966Y-14000033D01*
X23012033Y-14000033D01*
X22884000Y-20730000D02*
X23034000Y-20880000D01*
X23034000Y-20730000D02*
X22884000Y-20880000D01*
X23012033Y-20858034D02*
X23012033Y-20751967D01*
X22905966Y-20751967D01*
X22905966Y-20858034D01*
X23012033Y-20858034D01*
X23265000Y-16412000D02*
X23415000Y-16562000D01*
X23415000Y-16412000D02*
X23265000Y-16562000D01*
X23393033Y-16540033D02*
X23393033Y-16433966D01*
X23286966Y-16433966D01*
X23286966Y-16540033D01*
X23393033Y-16540033D01*
X23265000Y-18698000D02*
X23415000Y-18848000D01*
X23415000Y-18698000D02*
X23265000Y-18848000D01*
X23393033Y-18826034D02*
X23393033Y-18719967D01*
X23286966Y-18719967D01*
X23286966Y-18826034D01*
X23393033Y-18826034D01*
X23900000Y-16158000D02*
X24050000Y-16308000D01*
X24050000Y-16158000D02*
X23900000Y-16308000D01*
X24028033Y-16286033D02*
X24028033Y-16179966D01*
X23921966Y-16179966D01*
X23921966Y-16286033D01*
X24028033Y-16286033D01*
X23900000Y-18444000D02*
X24050000Y-18594000D01*
X24050000Y-18444000D02*
X23900000Y-18594000D01*
X24028033Y-18572034D02*
X24028033Y-18465967D01*
X23921966Y-18465967D01*
X23921966Y-18572034D01*
X24028033Y-18572034D01*
X24281000Y-14126000D02*
X24431000Y-14276000D01*
X24431000Y-14126000D02*
X24281000Y-14276000D01*
X24409033Y-14254033D02*
X24409033Y-14147966D01*
X24302966Y-14147966D01*
X24302966Y-14254033D01*
X24409033Y-14254033D01*
X24916000Y-13872000D02*
X25066000Y-14022000D01*
X25066000Y-13872000D02*
X24916000Y-14022000D01*
X25044033Y-14000033D02*
X25044033Y-13893966D01*
X24937966Y-13893966D01*
X24937966Y-14000033D01*
X25044033Y-14000033D01*
X25297000Y-16412000D02*
X25447000Y-16562000D01*
X25447000Y-16412000D02*
X25297000Y-16562000D01*
X25425033Y-16540033D02*
X25425033Y-16433966D01*
X25318966Y-16433966D01*
X25318966Y-16540033D01*
X25425033Y-16540033D01*
X25297000Y-18698000D02*
X25447000Y-18848000D01*
X25447000Y-18698000D02*
X25297000Y-18848000D01*
X25425033Y-18826034D02*
X25425033Y-18719967D01*
X25318966Y-18719967D01*
X25318966Y-18826034D01*
X25425033Y-18826034D01*
X25932000Y-16158000D02*
X26082000Y-16308000D01*
X26082000Y-16158000D02*
X25932000Y-16308000D01*
X26060033Y-16286033D02*
X26060033Y-16179966D01*
X25953966Y-16179966D01*
X25953966Y-16286033D01*
X26060033Y-16286033D01*
X25932000Y-18444000D02*
X26082000Y-18594000D01*
X26082000Y-18444000D02*
X25932000Y-18594000D01*
X26060033Y-18572034D02*
X26060033Y-18465967D01*
X25953966Y-18465967D01*
X25953966Y-18572034D01*
X26060033Y-18572034D01*
X27329000Y-16412000D02*
X27479000Y-16562000D01*
X27479000Y-16412000D02*
X27329000Y-16562000D01*
X27457033Y-16540033D02*
X27457033Y-16433966D01*
X27350966Y-16433966D01*
X27350966Y-16540033D01*
X27457033Y-16540033D01*
X27329000Y-18698000D02*
X27479000Y-18848000D01*
X27479000Y-18698000D02*
X27329000Y-18848000D01*
X27457033Y-18826034D02*
X27457033Y-18719967D01*
X27350966Y-18719967D01*
X27350966Y-18826034D01*
X27457033Y-18826034D01*
X27329000Y-20984000D02*
X27479000Y-21134000D01*
X27479000Y-20984000D02*
X27329000Y-21134000D01*
X27457033Y-21112034D02*
X27457033Y-21005967D01*
X27350966Y-21005967D01*
X27350966Y-21112034D01*
X27457033Y-21112034D01*
X27964000Y-16158000D02*
X28114000Y-16308000D01*
X28114000Y-16158000D02*
X27964000Y-16308000D01*
X28092033Y-16286033D02*
X28092033Y-16179966D01*
X27985966Y-16179966D01*
X27985966Y-16286033D01*
X28092033Y-16286033D01*
X27964000Y-18444000D02*
X28114000Y-18594000D01*
X28114000Y-18444000D02*
X27964000Y-18594000D01*
X28092033Y-18572034D02*
X28092033Y-18465967D01*
X27985966Y-18465967D01*
X27985966Y-18572034D01*
X28092033Y-18572034D01*
X27964000Y-20730000D02*
X28114000Y-20880000D01*
X28114000Y-20730000D02*
X27964000Y-20880000D01*
X28092033Y-20858034D02*
X28092033Y-20751967D01*
X27985966Y-20751967D01*
X27985966Y-20858034D01*
X28092033Y-20858034D01*
X29361000Y-14126000D02*
X29511000Y-14276000D01*
X29511000Y-14126000D02*
X29361000Y-14276000D01*
X29489033Y-14254033D02*
X29489033Y-14147966D01*
X29382966Y-14147966D01*
X29382966Y-14254033D01*
X29489033Y-14254033D01*
X29361000Y-16412000D02*
X29511000Y-16562000D01*
X29511000Y-16412000D02*
X29361000Y-16562000D01*
X29489033Y-16540033D02*
X29489033Y-16433966D01*
X29382966Y-16433966D01*
X29382966Y-16540033D01*
X29489033Y-16540033D01*
X29361000Y-18698000D02*
X29511000Y-18848000D01*
X29511000Y-18698000D02*
X29361000Y-18848000D01*
X29489033Y-18826034D02*
X29489033Y-18719967D01*
X29382966Y-18719967D01*
X29382966Y-18826034D01*
X29489033Y-18826034D01*
X29361000Y-20984000D02*
X29511000Y-21134000D01*
X29511000Y-20984000D02*
X29361000Y-21134000D01*
X29489033Y-21112034D02*
X29489033Y-21005967D01*
X29382966Y-21005967D01*
X29382966Y-21112034D01*
X29489033Y-21112034D01*
X29996000Y-13872000D02*
X30146000Y-14022000D01*
X30146000Y-13872000D02*
X29996000Y-14022000D01*
X30124033Y-14000033D02*
X30124033Y-13893966D01*
X30017966Y-13893966D01*
X30017966Y-14000033D01*
X30124033Y-14000033D01*
X29996000Y-16158000D02*
X30146000Y-16308000D01*
X30146000Y-16158000D02*
X29996000Y-16308000D01*
X30124033Y-16286033D02*
X30124033Y-16179966D01*
X30017966Y-16179966D01*
X30017966Y-16286033D01*
X30124033Y-16286033D01*
X29996000Y-18444000D02*
X30146000Y-18594000D01*
X30146000Y-18444000D02*
X29996000Y-18594000D01*
X30124033Y-18572034D02*
X30124033Y-18465967D01*
X30017966Y-18465967D01*
X30017966Y-18572034D01*
X30124033Y-18572034D01*
X29996000Y-20730000D02*
X30146000Y-20880000D01*
X30146000Y-20730000D02*
X29996000Y-20880000D01*
X30124033Y-20858034D02*
X30124033Y-20751967D01*
X30017966Y-20751967D01*
X30017966Y-20858034D01*
X30124033Y-20858034D01*
D20*
X14963000Y-14582000D02*
X15263000Y-14882000D01*
X15263000Y-14582000D02*
X14963000Y-14882000D01*
X15113000Y-14882000D02*
X15263000Y-14732000D01*
X15113000Y-14582000D01*
X14963000Y-14732000D01*
X15113000Y-14882000D01*
X14963000Y-21376500D02*
X15263000Y-21676500D01*
X15263000Y-21376500D02*
X14963000Y-21676500D01*
X15113000Y-21676500D02*
X15263000Y-21526500D01*
X15113000Y-21376500D01*
X14963000Y-21526500D01*
X15113000Y-21676500D01*
X26075500Y-14645500D02*
X26375500Y-14945500D01*
X26375500Y-14645500D02*
X26075500Y-14945500D01*
X26225500Y-14945500D02*
X26375500Y-14795500D01*
X26225500Y-14645500D01*
X26075500Y-14795500D01*
X26225500Y-14945500D01*
X26075500Y-21376500D02*
X26375500Y-21676500D01*
X26375500Y-21376500D02*
X26075500Y-21676500D01*
X26225500Y-21676500D02*
X26375500Y-21526500D01*
X26225500Y-21376500D01*
X26075500Y-21526500D01*
X26225500Y-21676500D01*
D11*
X7872619Y-23223568D02*
X7872619Y-23023568D01*
X7920238Y-23023568D01*
X7948809Y-23033092D01*
X7967857Y-23052140D01*
X7977381Y-23071187D01*
X7986905Y-23109283D01*
X7986905Y-23137854D01*
X7977381Y-23175949D01*
X7967857Y-23194997D01*
X7948809Y-23214045D01*
X7920238Y-23223568D01*
X7872619Y-23223568D01*
X8072619Y-23223568D02*
X8072619Y-23090235D01*
X8072619Y-23128330D02*
X8082143Y-23109283D01*
X8091667Y-23099759D01*
X8110714Y-23090235D01*
X8129762Y-23090235D01*
X8196428Y-23223568D02*
X8196428Y-23090235D01*
X8196428Y-23023568D02*
X8186905Y-23033092D01*
X8196428Y-23042616D01*
X8205952Y-23033092D01*
X8196428Y-23023568D01*
X8196428Y-23042616D01*
X8320238Y-23223568D02*
X8301190Y-23214045D01*
X8291667Y-23194997D01*
X8291667Y-23023568D01*
X8425000Y-23223568D02*
X8405952Y-23214045D01*
X8396429Y-23194997D01*
X8396429Y-23023568D01*
X8653571Y-23223568D02*
X8653571Y-23023568D01*
X8720238Y-23166426D01*
X8786905Y-23023568D01*
X8786905Y-23223568D01*
X8967857Y-23223568D02*
X8967857Y-23118806D01*
X8958333Y-23099759D01*
X8939286Y-23090235D01*
X8901190Y-23090235D01*
X8882143Y-23099759D01*
X8967857Y-23214045D02*
X8948810Y-23223568D01*
X8901190Y-23223568D01*
X8882143Y-23214045D01*
X8872619Y-23194997D01*
X8872619Y-23175949D01*
X8882143Y-23156902D01*
X8901190Y-23147378D01*
X8948810Y-23147378D01*
X8967857Y-23137854D01*
X9063095Y-23090235D02*
X9063095Y-23290235D01*
X9063095Y-23099759D02*
X9082143Y-23090235D01*
X9120238Y-23090235D01*
X9139286Y-23099759D01*
X9148810Y-23109283D01*
X9158333Y-23128330D01*
X9158333Y-23185473D01*
X9148810Y-23204521D01*
X9139286Y-23214045D01*
X9120238Y-23223568D01*
X9082143Y-23223568D01*
X9063095Y-23214045D01*
X9244048Y-23204521D02*
X9253571Y-23214045D01*
X9244048Y-23223568D01*
X9234524Y-23214045D01*
X9244048Y-23204521D01*
X9244048Y-23223568D01*
X9244048Y-23099759D02*
X9253571Y-23109283D01*
X9244048Y-23118806D01*
X9234524Y-23109283D01*
X9244048Y-23099759D01*
X9244048Y-23118806D01*
D12*
X7575000Y-23533092D02*
X7615000Y-23573092D01*
X7615000Y-23533092D02*
X7575000Y-23573092D01*
D11*
X7910714Y-23443568D02*
X7929762Y-23443568D01*
X7948809Y-23453092D01*
X7958333Y-23462616D01*
X7967857Y-23481664D01*
X7977381Y-23519759D01*
X7977381Y-23567378D01*
X7967857Y-23605473D01*
X7958333Y-23624521D01*
X7948809Y-23634045D01*
X7929762Y-23643568D01*
X7910714Y-23643568D01*
X7891667Y-23634045D01*
X7882143Y-23624521D01*
X7872619Y-23605473D01*
X7863095Y-23567378D01*
X7863095Y-23519759D01*
X7872619Y-23481664D01*
X7882143Y-23462616D01*
X7891667Y-23453092D01*
X7910714Y-23443568D01*
X8063095Y-23624521D02*
X8072619Y-23634045D01*
X8063095Y-23643568D01*
X8053571Y-23634045D01*
X8063095Y-23624521D01*
X8063095Y-23643568D01*
X8244048Y-23510235D02*
X8244048Y-23643568D01*
X8196428Y-23434045D02*
X8148809Y-23576902D01*
X8272619Y-23576902D01*
X8386905Y-23443568D02*
X8405952Y-23443568D01*
X8425000Y-23453092D01*
X8434524Y-23462616D01*
X8444048Y-23481664D01*
X8453571Y-23519759D01*
X8453571Y-23567378D01*
X8444048Y-23605473D01*
X8434524Y-23624521D01*
X8425000Y-23634045D01*
X8405952Y-23643568D01*
X8386905Y-23643568D01*
X8367857Y-23634045D01*
X8358333Y-23624521D01*
X8348809Y-23605473D01*
X8339286Y-23567378D01*
X8339286Y-23519759D01*
X8348809Y-23481664D01*
X8358333Y-23462616D01*
X8367857Y-23453092D01*
X8386905Y-23443568D01*
X8577381Y-23443568D02*
X8596429Y-23443568D01*
X8615476Y-23453092D01*
X8625000Y-23462616D01*
X8634524Y-23481664D01*
X8644048Y-23519759D01*
X8644048Y-23567378D01*
X8634524Y-23605473D01*
X8625000Y-23624521D01*
X8615476Y-23634045D01*
X8596429Y-23643568D01*
X8577381Y-23643568D01*
X8558333Y-23634045D01*
X8548810Y-23624521D01*
X8539286Y-23605473D01*
X8529762Y-23567378D01*
X8529762Y-23519759D01*
X8539286Y-23481664D01*
X8548810Y-23462616D01*
X8558333Y-23453092D01*
X8577381Y-23443568D01*
X8729762Y-23643568D02*
X8729762Y-23510235D01*
X8729762Y-23529283D02*
X8739286Y-23519759D01*
X8758333Y-23510235D01*
X8786905Y-23510235D01*
X8805952Y-23519759D01*
X8815476Y-23538806D01*
X8815476Y-23643568D01*
X8815476Y-23538806D02*
X8825000Y-23519759D01*
X8844048Y-23510235D01*
X8872619Y-23510235D01*
X8891667Y-23519759D01*
X8901190Y-23538806D01*
X8901190Y-23643568D01*
X8996429Y-23643568D02*
X8996429Y-23510235D01*
X8996429Y-23529283D02*
X9005952Y-23519759D01*
X9025000Y-23510235D01*
X9053571Y-23510235D01*
X9072619Y-23519759D01*
X9082143Y-23538806D01*
X9082143Y-23643568D01*
X9082143Y-23538806D02*
X9091667Y-23519759D01*
X9110714Y-23510235D01*
X9139286Y-23510235D01*
X9158333Y-23519759D01*
X9167857Y-23538806D01*
X9167857Y-23643568D01*
X9558333Y-23434045D02*
X9386905Y-23691187D01*
X9815476Y-23443568D02*
X9834524Y-23443568D01*
X9853571Y-23453092D01*
X9863095Y-23462616D01*
X9872619Y-23481664D01*
X9882143Y-23519759D01*
X9882143Y-23567378D01*
X9872619Y-23605473D01*
X9863095Y-23624521D01*
X9853571Y-23634045D01*
X9834524Y-23643568D01*
X9815476Y-23643568D01*
X9796429Y-23634045D01*
X9786905Y-23624521D01*
X9777381Y-23605473D01*
X9767857Y-23567378D01*
X9767857Y-23519759D01*
X9777381Y-23481664D01*
X9786905Y-23462616D01*
X9796429Y-23453092D01*
X9815476Y-23443568D01*
X9967857Y-23624521D02*
X9977381Y-23634045D01*
X9967857Y-23643568D01*
X9958333Y-23634045D01*
X9967857Y-23624521D01*
X9967857Y-23643568D01*
X10101190Y-23443568D02*
X10120238Y-23443568D01*
X10139286Y-23453092D01*
X10148810Y-23462616D01*
X10158333Y-23481664D01*
X10167857Y-23519759D01*
X10167857Y-23567378D01*
X10158333Y-23605473D01*
X10148810Y-23624521D01*
X10139286Y-23634045D01*
X10120238Y-23643568D01*
X10101190Y-23643568D01*
X10082143Y-23634045D01*
X10072619Y-23624521D01*
X10063095Y-23605473D01*
X10053571Y-23567378D01*
X10053571Y-23519759D01*
X10063095Y-23481664D01*
X10072619Y-23462616D01*
X10082143Y-23453092D01*
X10101190Y-23443568D01*
X10358333Y-23643568D02*
X10244048Y-23643568D01*
X10301190Y-23643568D02*
X10301190Y-23443568D01*
X10282143Y-23472140D01*
X10263095Y-23491187D01*
X10244048Y-23500711D01*
X10539286Y-23443568D02*
X10444048Y-23443568D01*
X10434524Y-23538806D01*
X10444048Y-23529283D01*
X10463095Y-23519759D01*
X10510714Y-23519759D01*
X10529762Y-23529283D01*
X10539286Y-23538806D01*
X10548810Y-23557854D01*
X10548810Y-23605473D01*
X10539286Y-23624521D01*
X10529762Y-23634045D01*
X10510714Y-23643568D01*
X10463095Y-23643568D01*
X10444048Y-23634045D01*
X10434524Y-23624521D01*
X10615476Y-23443568D02*
X10748810Y-23443568D01*
X10663095Y-23643568D01*
X10815476Y-23443568D02*
X10815476Y-23481664D01*
X10891667Y-23443568D02*
X10891667Y-23481664D01*
X11186905Y-23719759D02*
X11177381Y-23710235D01*
X11158333Y-23681664D01*
X11148810Y-23662616D01*
X11139286Y-23634045D01*
X11129762Y-23586426D01*
X11129762Y-23548330D01*
X11139286Y-23500711D01*
X11148810Y-23472140D01*
X11158333Y-23453092D01*
X11177381Y-23424521D01*
X11186905Y-23414997D01*
X11253571Y-23462616D02*
X11263095Y-23453092D01*
X11282143Y-23443568D01*
X11329762Y-23443568D01*
X11348809Y-23453092D01*
X11358333Y-23462616D01*
X11367857Y-23481664D01*
X11367857Y-23500711D01*
X11358333Y-23529283D01*
X11244048Y-23643568D01*
X11367857Y-23643568D01*
X11482143Y-23529283D02*
X11463095Y-23519759D01*
X11453571Y-23510235D01*
X11444048Y-23491187D01*
X11444048Y-23481664D01*
X11453571Y-23462616D01*
X11463095Y-23453092D01*
X11482143Y-23443568D01*
X11520238Y-23443568D01*
X11539286Y-23453092D01*
X11548809Y-23462616D01*
X11558333Y-23481664D01*
X11558333Y-23491187D01*
X11548809Y-23510235D01*
X11539286Y-23519759D01*
X11520238Y-23529283D01*
X11482143Y-23529283D01*
X11463095Y-23538806D01*
X11453571Y-23548330D01*
X11444048Y-23567378D01*
X11444048Y-23605473D01*
X11453571Y-23624521D01*
X11463095Y-23634045D01*
X11482143Y-23643568D01*
X11520238Y-23643568D01*
X11539286Y-23634045D01*
X11548809Y-23624521D01*
X11558333Y-23605473D01*
X11558333Y-23567378D01*
X11548809Y-23548330D01*
X11539286Y-23538806D01*
X11520238Y-23529283D01*
X11653571Y-23643568D02*
X11691667Y-23643568D01*
X11710714Y-23634045D01*
X11720238Y-23624521D01*
X11739286Y-23595949D01*
X11748809Y-23557854D01*
X11748809Y-23481664D01*
X11739286Y-23462616D01*
X11729762Y-23453092D01*
X11710714Y-23443568D01*
X11672619Y-23443568D01*
X11653571Y-23453092D01*
X11644048Y-23462616D01*
X11634524Y-23481664D01*
X11634524Y-23529283D01*
X11644048Y-23548330D01*
X11653571Y-23557854D01*
X11672619Y-23567378D01*
X11710714Y-23567378D01*
X11729762Y-23557854D01*
X11739286Y-23548330D01*
X11748809Y-23529283D01*
X11986905Y-23643568D02*
X11986905Y-23443568D01*
X12072619Y-23643568D02*
X12072619Y-23538806D01*
X12063095Y-23519759D01*
X12044048Y-23510235D01*
X12015476Y-23510235D01*
X11996428Y-23519759D01*
X11986905Y-23529283D01*
X12196428Y-23643568D02*
X12177381Y-23634045D01*
X12167857Y-23624521D01*
X12158333Y-23605473D01*
X12158333Y-23548330D01*
X12167857Y-23529283D01*
X12177381Y-23519759D01*
X12196428Y-23510235D01*
X12225000Y-23510235D01*
X12244048Y-23519759D01*
X12253571Y-23529283D01*
X12263095Y-23548330D01*
X12263095Y-23605473D01*
X12253571Y-23624521D01*
X12244048Y-23634045D01*
X12225000Y-23643568D01*
X12196428Y-23643568D01*
X12377381Y-23643568D02*
X12358333Y-23634045D01*
X12348809Y-23614997D01*
X12348809Y-23443568D01*
X12529762Y-23634045D02*
X12510714Y-23643568D01*
X12472619Y-23643568D01*
X12453571Y-23634045D01*
X12444048Y-23614997D01*
X12444048Y-23538806D01*
X12453571Y-23519759D01*
X12472619Y-23510235D01*
X12510714Y-23510235D01*
X12529762Y-23519759D01*
X12539286Y-23538806D01*
X12539286Y-23557854D01*
X12444048Y-23576902D01*
X12615476Y-23634045D02*
X12634524Y-23643568D01*
X12672619Y-23643568D01*
X12691667Y-23634045D01*
X12701190Y-23614997D01*
X12701190Y-23605473D01*
X12691667Y-23586426D01*
X12672619Y-23576902D01*
X12644048Y-23576902D01*
X12625000Y-23567378D01*
X12615476Y-23548330D01*
X12615476Y-23538806D01*
X12625000Y-23519759D01*
X12644048Y-23510235D01*
X12672619Y-23510235D01*
X12691667Y-23519759D01*
X12767857Y-23719759D02*
X12777381Y-23710235D01*
X12796428Y-23681664D01*
X12805952Y-23662616D01*
X12815476Y-23634045D01*
X12825000Y-23586426D01*
X12825000Y-23548330D01*
X12815476Y-23500711D01*
X12805952Y-23472140D01*
X12796428Y-23453092D01*
X12777381Y-23424521D01*
X12767857Y-23414997D01*
D13*
X7615000Y-23817092D02*
G75*
G03*
X7615000Y-23817092I-25000J0D01*
G01*
D11*
X7910714Y-23707568D02*
X7929762Y-23707568D01*
X7948809Y-23717092D01*
X7958333Y-23726616D01*
X7967857Y-23745664D01*
X7977381Y-23783759D01*
X7977381Y-23831378D01*
X7967857Y-23869473D01*
X7958333Y-23888521D01*
X7948809Y-23898045D01*
X7929762Y-23907568D01*
X7910714Y-23907568D01*
X7891667Y-23898045D01*
X7882143Y-23888521D01*
X7872619Y-23869473D01*
X7863095Y-23831378D01*
X7863095Y-23783759D01*
X7872619Y-23745664D01*
X7882143Y-23726616D01*
X7891667Y-23717092D01*
X7910714Y-23707568D01*
X8063095Y-23888521D02*
X8072619Y-23898045D01*
X8063095Y-23907568D01*
X8053571Y-23898045D01*
X8063095Y-23888521D01*
X8063095Y-23907568D01*
X8253571Y-23707568D02*
X8158333Y-23707568D01*
X8148809Y-23802806D01*
X8158333Y-23793283D01*
X8177381Y-23783759D01*
X8225000Y-23783759D01*
X8244048Y-23793283D01*
X8253571Y-23802806D01*
X8263095Y-23821854D01*
X8263095Y-23869473D01*
X8253571Y-23888521D01*
X8244048Y-23898045D01*
X8225000Y-23907568D01*
X8177381Y-23907568D01*
X8158333Y-23898045D01*
X8148809Y-23888521D01*
X8386905Y-23707568D02*
X8405952Y-23707568D01*
X8425000Y-23717092D01*
X8434524Y-23726616D01*
X8444048Y-23745664D01*
X8453571Y-23783759D01*
X8453571Y-23831378D01*
X8444048Y-23869473D01*
X8434524Y-23888521D01*
X8425000Y-23898045D01*
X8405952Y-23907568D01*
X8386905Y-23907568D01*
X8367857Y-23898045D01*
X8358333Y-23888521D01*
X8348809Y-23869473D01*
X8339286Y-23831378D01*
X8339286Y-23783759D01*
X8348809Y-23745664D01*
X8358333Y-23726616D01*
X8367857Y-23717092D01*
X8386905Y-23707568D01*
X8577381Y-23707568D02*
X8596429Y-23707568D01*
X8615476Y-23717092D01*
X8625000Y-23726616D01*
X8634524Y-23745664D01*
X8644048Y-23783759D01*
X8644048Y-23831378D01*
X8634524Y-23869473D01*
X8625000Y-23888521D01*
X8615476Y-23898045D01*
X8596429Y-23907568D01*
X8577381Y-23907568D01*
X8558333Y-23898045D01*
X8548810Y-23888521D01*
X8539286Y-23869473D01*
X8529762Y-23831378D01*
X8529762Y-23783759D01*
X8539286Y-23745664D01*
X8548810Y-23726616D01*
X8558333Y-23717092D01*
X8577381Y-23707568D01*
X8729762Y-23907568D02*
X8729762Y-23774235D01*
X8729762Y-23793283D02*
X8739286Y-23783759D01*
X8758333Y-23774235D01*
X8786905Y-23774235D01*
X8805952Y-23783759D01*
X8815476Y-23802806D01*
X8815476Y-23907568D01*
X8815476Y-23802806D02*
X8825000Y-23783759D01*
X8844048Y-23774235D01*
X8872619Y-23774235D01*
X8891667Y-23783759D01*
X8901190Y-23802806D01*
X8901190Y-23907568D01*
X8996429Y-23907568D02*
X8996429Y-23774235D01*
X8996429Y-23793283D02*
X9005952Y-23783759D01*
X9025000Y-23774235D01*
X9053571Y-23774235D01*
X9072619Y-23783759D01*
X9082143Y-23802806D01*
X9082143Y-23907568D01*
X9082143Y-23802806D02*
X9091667Y-23783759D01*
X9110714Y-23774235D01*
X9139286Y-23774235D01*
X9158333Y-23783759D01*
X9167857Y-23802806D01*
X9167857Y-23907568D01*
X9558333Y-23698045D02*
X9386905Y-23955187D01*
X9815476Y-23707568D02*
X9834524Y-23707568D01*
X9853571Y-23717092D01*
X9863095Y-23726616D01*
X9872619Y-23745664D01*
X9882143Y-23783759D01*
X9882143Y-23831378D01*
X9872619Y-23869473D01*
X9863095Y-23888521D01*
X9853571Y-23898045D01*
X9834524Y-23907568D01*
X9815476Y-23907568D01*
X9796429Y-23898045D01*
X9786905Y-23888521D01*
X9777381Y-23869473D01*
X9767857Y-23831378D01*
X9767857Y-23783759D01*
X9777381Y-23745664D01*
X9786905Y-23726616D01*
X9796429Y-23717092D01*
X9815476Y-23707568D01*
X9967857Y-23888521D02*
X9977381Y-23898045D01*
X9967857Y-23907568D01*
X9958333Y-23898045D01*
X9967857Y-23888521D01*
X9967857Y-23907568D01*
X10101190Y-23707568D02*
X10120238Y-23707568D01*
X10139286Y-23717092D01*
X10148810Y-23726616D01*
X10158333Y-23745664D01*
X10167857Y-23783759D01*
X10167857Y-23831378D01*
X10158333Y-23869473D01*
X10148810Y-23888521D01*
X10139286Y-23898045D01*
X10120238Y-23907568D01*
X10101190Y-23907568D01*
X10082143Y-23898045D01*
X10072619Y-23888521D01*
X10063095Y-23869473D01*
X10053571Y-23831378D01*
X10053571Y-23783759D01*
X10063095Y-23745664D01*
X10072619Y-23726616D01*
X10082143Y-23717092D01*
X10101190Y-23707568D01*
X10358333Y-23907568D02*
X10244048Y-23907568D01*
X10301190Y-23907568D02*
X10301190Y-23707568D01*
X10282143Y-23736140D01*
X10263095Y-23755187D01*
X10244048Y-23764711D01*
X10453571Y-23907568D02*
X10491667Y-23907568D01*
X10510714Y-23898045D01*
X10520238Y-23888521D01*
X10539286Y-23859949D01*
X10548810Y-23821854D01*
X10548810Y-23745664D01*
X10539286Y-23726616D01*
X10529762Y-23717092D01*
X10510714Y-23707568D01*
X10472619Y-23707568D01*
X10453571Y-23717092D01*
X10444048Y-23726616D01*
X10434524Y-23745664D01*
X10434524Y-23793283D01*
X10444048Y-23812330D01*
X10453571Y-23821854D01*
X10472619Y-23831378D01*
X10510714Y-23831378D01*
X10529762Y-23821854D01*
X10539286Y-23812330D01*
X10548810Y-23793283D01*
X10615476Y-23707568D02*
X10748810Y-23707568D01*
X10663095Y-23907568D01*
X10815476Y-23707568D02*
X10815476Y-23745664D01*
X10891667Y-23707568D02*
X10891667Y-23745664D01*
X11186905Y-23983759D02*
X11177381Y-23974235D01*
X11158333Y-23945664D01*
X11148810Y-23926616D01*
X11139286Y-23898045D01*
X11129762Y-23850426D01*
X11129762Y-23812330D01*
X11139286Y-23764711D01*
X11148810Y-23736140D01*
X11158333Y-23717092D01*
X11177381Y-23688521D01*
X11186905Y-23678997D01*
X11244048Y-23707568D02*
X11367857Y-23707568D01*
X11301190Y-23783759D01*
X11329762Y-23783759D01*
X11348809Y-23793283D01*
X11358333Y-23802806D01*
X11367857Y-23821854D01*
X11367857Y-23869473D01*
X11358333Y-23888521D01*
X11348809Y-23898045D01*
X11329762Y-23907568D01*
X11272619Y-23907568D01*
X11253571Y-23898045D01*
X11244048Y-23888521D01*
X11444048Y-23726616D02*
X11453571Y-23717092D01*
X11472619Y-23707568D01*
X11520238Y-23707568D01*
X11539286Y-23717092D01*
X11548809Y-23726616D01*
X11558333Y-23745664D01*
X11558333Y-23764711D01*
X11548809Y-23793283D01*
X11434524Y-23907568D01*
X11558333Y-23907568D01*
X11796428Y-23907568D02*
X11796428Y-23707568D01*
X11882143Y-23907568D02*
X11882143Y-23802806D01*
X11872619Y-23783759D01*
X11853571Y-23774235D01*
X11825000Y-23774235D01*
X11805952Y-23783759D01*
X11796428Y-23793283D01*
X12005952Y-23907568D02*
X11986905Y-23898045D01*
X11977381Y-23888521D01*
X11967857Y-23869473D01*
X11967857Y-23812330D01*
X11977381Y-23793283D01*
X11986905Y-23783759D01*
X12005952Y-23774235D01*
X12034524Y-23774235D01*
X12053571Y-23783759D01*
X12063095Y-23793283D01*
X12072619Y-23812330D01*
X12072619Y-23869473D01*
X12063095Y-23888521D01*
X12053571Y-23898045D01*
X12034524Y-23907568D01*
X12005952Y-23907568D01*
X12186905Y-23907568D02*
X12167857Y-23898045D01*
X12158333Y-23878997D01*
X12158333Y-23707568D01*
X12339286Y-23898045D02*
X12320238Y-23907568D01*
X12282143Y-23907568D01*
X12263095Y-23898045D01*
X12253571Y-23878997D01*
X12253571Y-23802806D01*
X12263095Y-23783759D01*
X12282143Y-23774235D01*
X12320238Y-23774235D01*
X12339286Y-23783759D01*
X12348809Y-23802806D01*
X12348809Y-23821854D01*
X12253571Y-23840902D01*
X12425000Y-23898045D02*
X12444048Y-23907568D01*
X12482143Y-23907568D01*
X12501190Y-23898045D01*
X12510714Y-23878997D01*
X12510714Y-23869473D01*
X12501190Y-23850426D01*
X12482143Y-23840902D01*
X12453571Y-23840902D01*
X12434524Y-23831378D01*
X12425000Y-23812330D01*
X12425000Y-23802806D01*
X12434524Y-23783759D01*
X12453571Y-23774235D01*
X12482143Y-23774235D01*
X12501190Y-23783759D01*
X12577381Y-23983759D02*
X12586905Y-23974235D01*
X12605952Y-23945664D01*
X12615476Y-23926616D01*
X12625000Y-23898045D01*
X12634524Y-23850426D01*
X12634524Y-23812330D01*
X12625000Y-23764711D01*
X12615476Y-23736140D01*
X12605952Y-23717092D01*
X12586905Y-23688521D01*
X12577381Y-23678997D01*
D14*
X7580000Y-24046092D02*
X7580000Y-24116092D01*
X7545000Y-24081092D02*
X7615000Y-24081092D01*
D11*
X7910714Y-23971568D02*
X7929762Y-23971568D01*
X7948809Y-23981092D01*
X7958333Y-23990616D01*
X7967857Y-24009664D01*
X7977381Y-24047759D01*
X7977381Y-24095378D01*
X7967857Y-24133473D01*
X7958333Y-24152521D01*
X7948809Y-24162045D01*
X7929762Y-24171568D01*
X7910714Y-24171568D01*
X7891667Y-24162045D01*
X7882143Y-24152521D01*
X7872619Y-24133473D01*
X7863095Y-24095378D01*
X7863095Y-24047759D01*
X7872619Y-24009664D01*
X7882143Y-23990616D01*
X7891667Y-23981092D01*
X7910714Y-23971568D01*
X8063095Y-24152521D02*
X8072619Y-24162045D01*
X8063095Y-24171568D01*
X8053571Y-24162045D01*
X8063095Y-24152521D01*
X8063095Y-24171568D01*
X8139286Y-23971568D02*
X8272619Y-23971568D01*
X8186905Y-24171568D01*
X8386905Y-23971568D02*
X8405952Y-23971568D01*
X8425000Y-23981092D01*
X8434524Y-23990616D01*
X8444048Y-24009664D01*
X8453571Y-24047759D01*
X8453571Y-24095378D01*
X8444048Y-24133473D01*
X8434524Y-24152521D01*
X8425000Y-24162045D01*
X8405952Y-24171568D01*
X8386905Y-24171568D01*
X8367857Y-24162045D01*
X8358333Y-24152521D01*
X8348809Y-24133473D01*
X8339286Y-24095378D01*
X8339286Y-24047759D01*
X8348809Y-24009664D01*
X8358333Y-23990616D01*
X8367857Y-23981092D01*
X8386905Y-23971568D01*
X8577381Y-23971568D02*
X8596429Y-23971568D01*
X8615476Y-23981092D01*
X8625000Y-23990616D01*
X8634524Y-24009664D01*
X8644048Y-24047759D01*
X8644048Y-24095378D01*
X8634524Y-24133473D01*
X8625000Y-24152521D01*
X8615476Y-24162045D01*
X8596429Y-24171568D01*
X8577381Y-24171568D01*
X8558333Y-24162045D01*
X8548810Y-24152521D01*
X8539286Y-24133473D01*
X8529762Y-24095378D01*
X8529762Y-24047759D01*
X8539286Y-24009664D01*
X8548810Y-23990616D01*
X8558333Y-23981092D01*
X8577381Y-23971568D01*
X8729762Y-24171568D02*
X8729762Y-24038235D01*
X8729762Y-24057283D02*
X8739286Y-24047759D01*
X8758333Y-24038235D01*
X8786905Y-24038235D01*
X8805952Y-24047759D01*
X8815476Y-24066806D01*
X8815476Y-24171568D01*
X8815476Y-24066806D02*
X8825000Y-24047759D01*
X8844048Y-24038235D01*
X8872619Y-24038235D01*
X8891667Y-24047759D01*
X8901190Y-24066806D01*
X8901190Y-24171568D01*
X8996429Y-24171568D02*
X8996429Y-24038235D01*
X8996429Y-24057283D02*
X9005952Y-24047759D01*
X9025000Y-24038235D01*
X9053571Y-24038235D01*
X9072619Y-24047759D01*
X9082143Y-24066806D01*
X9082143Y-24171568D01*
X9082143Y-24066806D02*
X9091667Y-24047759D01*
X9110714Y-24038235D01*
X9139286Y-24038235D01*
X9158333Y-24047759D01*
X9167857Y-24066806D01*
X9167857Y-24171568D01*
X9558333Y-23962045D02*
X9386905Y-24219187D01*
X9815476Y-23971568D02*
X9834524Y-23971568D01*
X9853571Y-23981092D01*
X9863095Y-23990616D01*
X9872619Y-24009664D01*
X9882143Y-24047759D01*
X9882143Y-24095378D01*
X9872619Y-24133473D01*
X9863095Y-24152521D01*
X9853571Y-24162045D01*
X9834524Y-24171568D01*
X9815476Y-24171568D01*
X9796429Y-24162045D01*
X9786905Y-24152521D01*
X9777381Y-24133473D01*
X9767857Y-24095378D01*
X9767857Y-24047759D01*
X9777381Y-24009664D01*
X9786905Y-23990616D01*
X9796429Y-23981092D01*
X9815476Y-23971568D01*
X9967857Y-24152521D02*
X9977381Y-24162045D01*
X9967857Y-24171568D01*
X9958333Y-24162045D01*
X9967857Y-24152521D01*
X9967857Y-24171568D01*
X10101190Y-23971568D02*
X10120238Y-23971568D01*
X10139286Y-23981092D01*
X10148810Y-23990616D01*
X10158333Y-24009664D01*
X10167857Y-24047759D01*
X10167857Y-24095378D01*
X10158333Y-24133473D01*
X10148810Y-24152521D01*
X10139286Y-24162045D01*
X10120238Y-24171568D01*
X10101190Y-24171568D01*
X10082143Y-24162045D01*
X10072619Y-24152521D01*
X10063095Y-24133473D01*
X10053571Y-24095378D01*
X10053571Y-24047759D01*
X10063095Y-24009664D01*
X10072619Y-23990616D01*
X10082143Y-23981092D01*
X10101190Y-23971568D01*
X10244048Y-23990616D02*
X10253571Y-23981092D01*
X10272619Y-23971568D01*
X10320238Y-23971568D01*
X10339286Y-23981092D01*
X10348810Y-23990616D01*
X10358333Y-24009664D01*
X10358333Y-24028711D01*
X10348810Y-24057283D01*
X10234524Y-24171568D01*
X10358333Y-24171568D01*
X10425000Y-23971568D02*
X10558333Y-23971568D01*
X10472619Y-24171568D01*
X10720238Y-23971568D02*
X10682143Y-23971568D01*
X10663095Y-23981092D01*
X10653571Y-23990616D01*
X10634524Y-24019187D01*
X10625000Y-24057283D01*
X10625000Y-24133473D01*
X10634524Y-24152521D01*
X10644048Y-24162045D01*
X10663095Y-24171568D01*
X10701190Y-24171568D01*
X10720238Y-24162045D01*
X10729762Y-24152521D01*
X10739286Y-24133473D01*
X10739286Y-24085854D01*
X10729762Y-24066806D01*
X10720238Y-24057283D01*
X10701190Y-24047759D01*
X10663095Y-24047759D01*
X10644048Y-24057283D01*
X10634524Y-24066806D01*
X10625000Y-24085854D01*
X10815476Y-23971568D02*
X10815476Y-24009664D01*
X10891667Y-23971568D02*
X10891667Y-24009664D01*
X11186905Y-24247759D02*
X11177381Y-24238235D01*
X11158333Y-24209664D01*
X11148810Y-24190616D01*
X11139286Y-24162045D01*
X11129762Y-24114426D01*
X11129762Y-24076330D01*
X11139286Y-24028711D01*
X11148810Y-24000140D01*
X11158333Y-23981092D01*
X11177381Y-23952521D01*
X11186905Y-23942997D01*
X11244048Y-23971568D02*
X11377381Y-23971568D01*
X11291667Y-24171568D01*
X11539286Y-24038235D02*
X11539286Y-24171568D01*
X11491667Y-23962045D02*
X11444048Y-24104902D01*
X11567857Y-24104902D01*
X11796428Y-24171568D02*
X11796428Y-23971568D01*
X11882143Y-24171568D02*
X11882143Y-24066806D01*
X11872619Y-24047759D01*
X11853571Y-24038235D01*
X11825000Y-24038235D01*
X11805952Y-24047759D01*
X11796428Y-24057283D01*
X12005952Y-24171568D02*
X11986905Y-24162045D01*
X11977381Y-24152521D01*
X11967857Y-24133473D01*
X11967857Y-24076330D01*
X11977381Y-24057283D01*
X11986905Y-24047759D01*
X12005952Y-24038235D01*
X12034524Y-24038235D01*
X12053571Y-24047759D01*
X12063095Y-24057283D01*
X12072619Y-24076330D01*
X12072619Y-24133473D01*
X12063095Y-24152521D01*
X12053571Y-24162045D01*
X12034524Y-24171568D01*
X12005952Y-24171568D01*
X12186905Y-24171568D02*
X12167857Y-24162045D01*
X12158333Y-24142997D01*
X12158333Y-23971568D01*
X12339286Y-24162045D02*
X12320238Y-24171568D01*
X12282143Y-24171568D01*
X12263095Y-24162045D01*
X12253571Y-24142997D01*
X12253571Y-24066806D01*
X12263095Y-24047759D01*
X12282143Y-24038235D01*
X12320238Y-24038235D01*
X12339286Y-24047759D01*
X12348809Y-24066806D01*
X12348809Y-24085854D01*
X12253571Y-24104902D01*
X12425000Y-24162045D02*
X12444048Y-24171568D01*
X12482143Y-24171568D01*
X12501190Y-24162045D01*
X12510714Y-24142997D01*
X12510714Y-24133473D01*
X12501190Y-24114426D01*
X12482143Y-24104902D01*
X12453571Y-24104902D01*
X12434524Y-24095378D01*
X12425000Y-24076330D01*
X12425000Y-24066806D01*
X12434524Y-24047759D01*
X12453571Y-24038235D01*
X12482143Y-24038235D01*
X12501190Y-24047759D01*
X12577381Y-24247759D02*
X12586905Y-24238235D01*
X12605952Y-24209664D01*
X12615476Y-24190616D01*
X12625000Y-24162045D01*
X12634524Y-24114426D01*
X12634524Y-24076330D01*
X12625000Y-24028711D01*
X12615476Y-24000140D01*
X12605952Y-23981092D01*
X12586905Y-23952521D01*
X12577381Y-23942997D01*
D15*
X7604017Y-24371609D02*
X7604017Y-24318575D01*
X7550983Y-24318575D01*
X7550983Y-24371609D01*
X7604017Y-24371609D01*
D11*
X7910714Y-24235568D02*
X7929762Y-24235568D01*
X7948809Y-24245092D01*
X7958333Y-24254616D01*
X7967857Y-24273664D01*
X7977381Y-24311759D01*
X7977381Y-24359378D01*
X7967857Y-24397473D01*
X7958333Y-24416521D01*
X7948809Y-24426045D01*
X7929762Y-24435568D01*
X7910714Y-24435568D01*
X7891667Y-24426045D01*
X7882143Y-24416521D01*
X7872619Y-24397473D01*
X7863095Y-24359378D01*
X7863095Y-24311759D01*
X7872619Y-24273664D01*
X7882143Y-24254616D01*
X7891667Y-24245092D01*
X7910714Y-24235568D01*
X8063095Y-24416521D02*
X8072619Y-24426045D01*
X8063095Y-24435568D01*
X8053571Y-24426045D01*
X8063095Y-24416521D01*
X8063095Y-24435568D01*
X8139286Y-24235568D02*
X8272619Y-24235568D01*
X8186905Y-24435568D01*
X8444048Y-24235568D02*
X8348809Y-24235568D01*
X8339286Y-24330806D01*
X8348809Y-24321283D01*
X8367857Y-24311759D01*
X8415476Y-24311759D01*
X8434524Y-24321283D01*
X8444048Y-24330806D01*
X8453571Y-24349854D01*
X8453571Y-24397473D01*
X8444048Y-24416521D01*
X8434524Y-24426045D01*
X8415476Y-24435568D01*
X8367857Y-24435568D01*
X8348809Y-24426045D01*
X8339286Y-24416521D01*
X8577381Y-24235568D02*
X8596429Y-24235568D01*
X8615476Y-24245092D01*
X8625000Y-24254616D01*
X8634524Y-24273664D01*
X8644048Y-24311759D01*
X8644048Y-24359378D01*
X8634524Y-24397473D01*
X8625000Y-24416521D01*
X8615476Y-24426045D01*
X8596429Y-24435568D01*
X8577381Y-24435568D01*
X8558333Y-24426045D01*
X8548810Y-24416521D01*
X8539286Y-24397473D01*
X8529762Y-24359378D01*
X8529762Y-24311759D01*
X8539286Y-24273664D01*
X8548810Y-24254616D01*
X8558333Y-24245092D01*
X8577381Y-24235568D01*
X8729762Y-24435568D02*
X8729762Y-24302235D01*
X8729762Y-24321283D02*
X8739286Y-24311759D01*
X8758333Y-24302235D01*
X8786905Y-24302235D01*
X8805952Y-24311759D01*
X8815476Y-24330806D01*
X8815476Y-24435568D01*
X8815476Y-24330806D02*
X8825000Y-24311759D01*
X8844048Y-24302235D01*
X8872619Y-24302235D01*
X8891667Y-24311759D01*
X8901190Y-24330806D01*
X8901190Y-24435568D01*
X8996429Y-24435568D02*
X8996429Y-24302235D01*
X8996429Y-24321283D02*
X9005952Y-24311759D01*
X9025000Y-24302235D01*
X9053571Y-24302235D01*
X9072619Y-24311759D01*
X9082143Y-24330806D01*
X9082143Y-24435568D01*
X9082143Y-24330806D02*
X9091667Y-24311759D01*
X9110714Y-24302235D01*
X9139286Y-24302235D01*
X9158333Y-24311759D01*
X9167857Y-24330806D01*
X9167857Y-24435568D01*
X9558333Y-24226045D02*
X9386905Y-24483187D01*
X9815476Y-24235568D02*
X9834524Y-24235568D01*
X9853571Y-24245092D01*
X9863095Y-24254616D01*
X9872619Y-24273664D01*
X9882143Y-24311759D01*
X9882143Y-24359378D01*
X9872619Y-24397473D01*
X9863095Y-24416521D01*
X9853571Y-24426045D01*
X9834524Y-24435568D01*
X9815476Y-24435568D01*
X9796429Y-24426045D01*
X9786905Y-24416521D01*
X9777381Y-24397473D01*
X9767857Y-24359378D01*
X9767857Y-24311759D01*
X9777381Y-24273664D01*
X9786905Y-24254616D01*
X9796429Y-24245092D01*
X9815476Y-24235568D01*
X9967857Y-24416521D02*
X9977381Y-24426045D01*
X9967857Y-24435568D01*
X9958333Y-24426045D01*
X9967857Y-24416521D01*
X9967857Y-24435568D01*
X10101190Y-24235568D02*
X10120238Y-24235568D01*
X10139286Y-24245092D01*
X10148810Y-24254616D01*
X10158333Y-24273664D01*
X10167857Y-24311759D01*
X10167857Y-24359378D01*
X10158333Y-24397473D01*
X10148810Y-24416521D01*
X10139286Y-24426045D01*
X10120238Y-24435568D01*
X10101190Y-24435568D01*
X10082143Y-24426045D01*
X10072619Y-24416521D01*
X10063095Y-24397473D01*
X10053571Y-24359378D01*
X10053571Y-24311759D01*
X10063095Y-24273664D01*
X10072619Y-24254616D01*
X10082143Y-24245092D01*
X10101190Y-24235568D01*
X10244048Y-24254616D02*
X10253571Y-24245092D01*
X10272619Y-24235568D01*
X10320238Y-24235568D01*
X10339286Y-24245092D01*
X10348810Y-24254616D01*
X10358333Y-24273664D01*
X10358333Y-24292711D01*
X10348810Y-24321283D01*
X10234524Y-24435568D01*
X10358333Y-24435568D01*
X10453571Y-24435568D02*
X10491667Y-24435568D01*
X10510714Y-24426045D01*
X10520238Y-24416521D01*
X10539286Y-24387949D01*
X10548810Y-24349854D01*
X10548810Y-24273664D01*
X10539286Y-24254616D01*
X10529762Y-24245092D01*
X10510714Y-24235568D01*
X10472619Y-24235568D01*
X10453571Y-24245092D01*
X10444048Y-24254616D01*
X10434524Y-24273664D01*
X10434524Y-24321283D01*
X10444048Y-24340330D01*
X10453571Y-24349854D01*
X10472619Y-24359378D01*
X10510714Y-24359378D01*
X10529762Y-24349854D01*
X10539286Y-24340330D01*
X10548810Y-24321283D01*
X10729762Y-24235568D02*
X10634524Y-24235568D01*
X10625000Y-24330806D01*
X10634524Y-24321283D01*
X10653571Y-24311759D01*
X10701190Y-24311759D01*
X10720238Y-24321283D01*
X10729762Y-24330806D01*
X10739286Y-24349854D01*
X10739286Y-24397473D01*
X10729762Y-24416521D01*
X10720238Y-24426045D01*
X10701190Y-24435568D01*
X10653571Y-24435568D01*
X10634524Y-24426045D01*
X10625000Y-24416521D01*
X10815476Y-24235568D02*
X10815476Y-24273664D01*
X10891667Y-24235568D02*
X10891667Y-24273664D01*
X11186905Y-24511759D02*
X11177381Y-24502235D01*
X11158333Y-24473664D01*
X11148810Y-24454616D01*
X11139286Y-24426045D01*
X11129762Y-24378426D01*
X11129762Y-24340330D01*
X11139286Y-24292711D01*
X11148810Y-24264140D01*
X11158333Y-24245092D01*
X11177381Y-24216521D01*
X11186905Y-24206997D01*
X11244048Y-24235568D02*
X11367857Y-24235568D01*
X11301190Y-24311759D01*
X11329762Y-24311759D01*
X11348809Y-24321283D01*
X11358333Y-24330806D01*
X11367857Y-24349854D01*
X11367857Y-24397473D01*
X11358333Y-24416521D01*
X11348809Y-24426045D01*
X11329762Y-24435568D01*
X11272619Y-24435568D01*
X11253571Y-24426045D01*
X11244048Y-24416521D01*
X11605952Y-24435568D02*
X11605952Y-24235568D01*
X11691667Y-24435568D02*
X11691667Y-24330806D01*
X11682143Y-24311759D01*
X11663095Y-24302235D01*
X11634524Y-24302235D01*
X11615476Y-24311759D01*
X11605952Y-24321283D01*
X11815476Y-24435568D02*
X11796428Y-24426045D01*
X11786905Y-24416521D01*
X11777381Y-24397473D01*
X11777381Y-24340330D01*
X11786905Y-24321283D01*
X11796428Y-24311759D01*
X11815476Y-24302235D01*
X11844048Y-24302235D01*
X11863095Y-24311759D01*
X11872619Y-24321283D01*
X11882143Y-24340330D01*
X11882143Y-24397473D01*
X11872619Y-24416521D01*
X11863095Y-24426045D01*
X11844048Y-24435568D01*
X11815476Y-24435568D01*
X11996428Y-24435568D02*
X11977381Y-24426045D01*
X11967857Y-24406997D01*
X11967857Y-24235568D01*
X12148809Y-24426045D02*
X12129762Y-24435568D01*
X12091667Y-24435568D01*
X12072619Y-24426045D01*
X12063095Y-24406997D01*
X12063095Y-24330806D01*
X12072619Y-24311759D01*
X12091667Y-24302235D01*
X12129762Y-24302235D01*
X12148809Y-24311759D01*
X12158333Y-24330806D01*
X12158333Y-24349854D01*
X12063095Y-24368902D01*
X12234524Y-24426045D02*
X12253571Y-24435568D01*
X12291667Y-24435568D01*
X12310714Y-24426045D01*
X12320238Y-24406997D01*
X12320238Y-24397473D01*
X12310714Y-24378426D01*
X12291667Y-24368902D01*
X12263095Y-24368902D01*
X12244048Y-24359378D01*
X12234524Y-24340330D01*
X12234524Y-24330806D01*
X12244048Y-24311759D01*
X12263095Y-24302235D01*
X12291667Y-24302235D01*
X12310714Y-24311759D01*
X12386905Y-24511759D02*
X12396428Y-24502235D01*
X12415476Y-24473664D01*
X12425000Y-24454616D01*
X12434524Y-24426045D01*
X12444048Y-24378426D01*
X12444048Y-24340330D01*
X12434524Y-24292711D01*
X12425000Y-24264140D01*
X12415476Y-24245092D01*
X12396428Y-24216521D01*
X12386905Y-24206997D01*
D16*
X7575000Y-24649092D02*
X7615000Y-24609092D01*
X7575000Y-24569092D01*
X7535000Y-24609092D01*
X7575000Y-24649092D01*
D11*
X7910714Y-24499568D02*
X7929762Y-24499568D01*
X7948809Y-24509092D01*
X7958333Y-24518616D01*
X7967857Y-24537664D01*
X7977381Y-24575759D01*
X7977381Y-24623378D01*
X7967857Y-24661473D01*
X7958333Y-24680521D01*
X7948809Y-24690045D01*
X7929762Y-24699568D01*
X7910714Y-24699568D01*
X7891667Y-24690045D01*
X7882143Y-24680521D01*
X7872619Y-24661473D01*
X7863095Y-24623378D01*
X7863095Y-24575759D01*
X7872619Y-24537664D01*
X7882143Y-24518616D01*
X7891667Y-24509092D01*
X7910714Y-24499568D01*
X8063095Y-24680521D02*
X8072619Y-24690045D01*
X8063095Y-24699568D01*
X8053571Y-24690045D01*
X8063095Y-24680521D01*
X8063095Y-24699568D01*
X8186905Y-24585283D02*
X8167857Y-24575759D01*
X8158333Y-24566235D01*
X8148809Y-24547187D01*
X8148809Y-24537664D01*
X8158333Y-24518616D01*
X8167857Y-24509092D01*
X8186905Y-24499568D01*
X8225000Y-24499568D01*
X8244048Y-24509092D01*
X8253571Y-24518616D01*
X8263095Y-24537664D01*
X8263095Y-24547187D01*
X8253571Y-24566235D01*
X8244048Y-24575759D01*
X8225000Y-24585283D01*
X8186905Y-24585283D01*
X8167857Y-24594806D01*
X8158333Y-24604330D01*
X8148809Y-24623378D01*
X8148809Y-24661473D01*
X8158333Y-24680521D01*
X8167857Y-24690045D01*
X8186905Y-24699568D01*
X8225000Y-24699568D01*
X8244048Y-24690045D01*
X8253571Y-24680521D01*
X8263095Y-24661473D01*
X8263095Y-24623378D01*
X8253571Y-24604330D01*
X8244048Y-24594806D01*
X8225000Y-24585283D01*
X8386905Y-24499568D02*
X8405952Y-24499568D01*
X8425000Y-24509092D01*
X8434524Y-24518616D01*
X8444048Y-24537664D01*
X8453571Y-24575759D01*
X8453571Y-24623378D01*
X8444048Y-24661473D01*
X8434524Y-24680521D01*
X8425000Y-24690045D01*
X8405952Y-24699568D01*
X8386905Y-24699568D01*
X8367857Y-24690045D01*
X8358333Y-24680521D01*
X8348809Y-24661473D01*
X8339286Y-24623378D01*
X8339286Y-24575759D01*
X8348809Y-24537664D01*
X8358333Y-24518616D01*
X8367857Y-24509092D01*
X8386905Y-24499568D01*
X8577381Y-24499568D02*
X8596429Y-24499568D01*
X8615476Y-24509092D01*
X8625000Y-24518616D01*
X8634524Y-24537664D01*
X8644048Y-24575759D01*
X8644048Y-24623378D01*
X8634524Y-24661473D01*
X8625000Y-24680521D01*
X8615476Y-24690045D01*
X8596429Y-24699568D01*
X8577381Y-24699568D01*
X8558333Y-24690045D01*
X8548810Y-24680521D01*
X8539286Y-24661473D01*
X8529762Y-24623378D01*
X8529762Y-24575759D01*
X8539286Y-24537664D01*
X8548810Y-24518616D01*
X8558333Y-24509092D01*
X8577381Y-24499568D01*
X8729762Y-24699568D02*
X8729762Y-24566235D01*
X8729762Y-24585283D02*
X8739286Y-24575759D01*
X8758333Y-24566235D01*
X8786905Y-24566235D01*
X8805952Y-24575759D01*
X8815476Y-24594806D01*
X8815476Y-24699568D01*
X8815476Y-24594806D02*
X8825000Y-24575759D01*
X8844048Y-24566235D01*
X8872619Y-24566235D01*
X8891667Y-24575759D01*
X8901190Y-24594806D01*
X8901190Y-24699568D01*
X8996429Y-24699568D02*
X8996429Y-24566235D01*
X8996429Y-24585283D02*
X9005952Y-24575759D01*
X9025000Y-24566235D01*
X9053571Y-24566235D01*
X9072619Y-24575759D01*
X9082143Y-24594806D01*
X9082143Y-24699568D01*
X9082143Y-24594806D02*
X9091667Y-24575759D01*
X9110714Y-24566235D01*
X9139286Y-24566235D01*
X9158333Y-24575759D01*
X9167857Y-24594806D01*
X9167857Y-24699568D01*
X9558333Y-24490045D02*
X9386905Y-24747187D01*
X9815476Y-24499568D02*
X9834524Y-24499568D01*
X9853571Y-24509092D01*
X9863095Y-24518616D01*
X9872619Y-24537664D01*
X9882143Y-24575759D01*
X9882143Y-24623378D01*
X9872619Y-24661473D01*
X9863095Y-24680521D01*
X9853571Y-24690045D01*
X9834524Y-24699568D01*
X9815476Y-24699568D01*
X9796429Y-24690045D01*
X9786905Y-24680521D01*
X9777381Y-24661473D01*
X9767857Y-24623378D01*
X9767857Y-24575759D01*
X9777381Y-24537664D01*
X9786905Y-24518616D01*
X9796429Y-24509092D01*
X9815476Y-24499568D01*
X9967857Y-24680521D02*
X9977381Y-24690045D01*
X9967857Y-24699568D01*
X9958333Y-24690045D01*
X9967857Y-24680521D01*
X9967857Y-24699568D01*
X10101190Y-24499568D02*
X10120238Y-24499568D01*
X10139286Y-24509092D01*
X10148810Y-24518616D01*
X10158333Y-24537664D01*
X10167857Y-24575759D01*
X10167857Y-24623378D01*
X10158333Y-24661473D01*
X10148810Y-24680521D01*
X10139286Y-24690045D01*
X10120238Y-24699568D01*
X10101190Y-24699568D01*
X10082143Y-24690045D01*
X10072619Y-24680521D01*
X10063095Y-24661473D01*
X10053571Y-24623378D01*
X10053571Y-24575759D01*
X10063095Y-24537664D01*
X10072619Y-24518616D01*
X10082143Y-24509092D01*
X10101190Y-24499568D01*
X10234524Y-24499568D02*
X10358333Y-24499568D01*
X10291667Y-24575759D01*
X10320238Y-24575759D01*
X10339286Y-24585283D01*
X10348810Y-24594806D01*
X10358333Y-24613854D01*
X10358333Y-24661473D01*
X10348810Y-24680521D01*
X10339286Y-24690045D01*
X10320238Y-24699568D01*
X10263095Y-24699568D01*
X10244048Y-24690045D01*
X10234524Y-24680521D01*
X10548810Y-24699568D02*
X10434524Y-24699568D01*
X10491667Y-24699568D02*
X10491667Y-24499568D01*
X10472619Y-24528140D01*
X10453571Y-24547187D01*
X10434524Y-24556711D01*
X10729762Y-24499568D02*
X10634524Y-24499568D01*
X10625000Y-24594806D01*
X10634524Y-24585283D01*
X10653571Y-24575759D01*
X10701190Y-24575759D01*
X10720238Y-24585283D01*
X10729762Y-24594806D01*
X10739286Y-24613854D01*
X10739286Y-24661473D01*
X10729762Y-24680521D01*
X10720238Y-24690045D01*
X10701190Y-24699568D01*
X10653571Y-24699568D01*
X10634524Y-24690045D01*
X10625000Y-24680521D01*
X10815476Y-24499568D02*
X10815476Y-24537664D01*
X10891667Y-24499568D02*
X10891667Y-24537664D01*
X11186905Y-24775759D02*
X11177381Y-24766235D01*
X11158333Y-24737664D01*
X11148810Y-24718616D01*
X11139286Y-24690045D01*
X11129762Y-24642426D01*
X11129762Y-24604330D01*
X11139286Y-24556711D01*
X11148810Y-24528140D01*
X11158333Y-24509092D01*
X11177381Y-24480521D01*
X11186905Y-24470997D01*
X11367857Y-24699568D02*
X11253571Y-24699568D01*
X11310714Y-24699568D02*
X11310714Y-24499568D01*
X11291667Y-24528140D01*
X11272619Y-24547187D01*
X11253571Y-24556711D01*
X11482143Y-24585283D02*
X11463095Y-24575759D01*
X11453571Y-24566235D01*
X11444048Y-24547187D01*
X11444048Y-24537664D01*
X11453571Y-24518616D01*
X11463095Y-24509092D01*
X11482143Y-24499568D01*
X11520238Y-24499568D01*
X11539286Y-24509092D01*
X11548809Y-24518616D01*
X11558333Y-24537664D01*
X11558333Y-24547187D01*
X11548809Y-24566235D01*
X11539286Y-24575759D01*
X11520238Y-24585283D01*
X11482143Y-24585283D01*
X11463095Y-24594806D01*
X11453571Y-24604330D01*
X11444048Y-24623378D01*
X11444048Y-24661473D01*
X11453571Y-24680521D01*
X11463095Y-24690045D01*
X11482143Y-24699568D01*
X11520238Y-24699568D01*
X11539286Y-24690045D01*
X11548809Y-24680521D01*
X11558333Y-24661473D01*
X11558333Y-24623378D01*
X11548809Y-24604330D01*
X11539286Y-24594806D01*
X11520238Y-24585283D01*
X11796428Y-24699568D02*
X11796428Y-24499568D01*
X11882143Y-24699568D02*
X11882143Y-24594806D01*
X11872619Y-24575759D01*
X11853571Y-24566235D01*
X11825000Y-24566235D01*
X11805952Y-24575759D01*
X11796428Y-24585283D01*
X12005952Y-24699568D02*
X11986905Y-24690045D01*
X11977381Y-24680521D01*
X11967857Y-24661473D01*
X11967857Y-24604330D01*
X11977381Y-24585283D01*
X11986905Y-24575759D01*
X12005952Y-24566235D01*
X12034524Y-24566235D01*
X12053571Y-24575759D01*
X12063095Y-24585283D01*
X12072619Y-24604330D01*
X12072619Y-24661473D01*
X12063095Y-24680521D01*
X12053571Y-24690045D01*
X12034524Y-24699568D01*
X12005952Y-24699568D01*
X12186905Y-24699568D02*
X12167857Y-24690045D01*
X12158333Y-24670997D01*
X12158333Y-24499568D01*
X12339286Y-24690045D02*
X12320238Y-24699568D01*
X12282143Y-24699568D01*
X12263095Y-24690045D01*
X12253571Y-24670997D01*
X12253571Y-24594806D01*
X12263095Y-24575759D01*
X12282143Y-24566235D01*
X12320238Y-24566235D01*
X12339286Y-24575759D01*
X12348809Y-24594806D01*
X12348809Y-24613854D01*
X12253571Y-24632902D01*
X12425000Y-24690045D02*
X12444048Y-24699568D01*
X12482143Y-24699568D01*
X12501190Y-24690045D01*
X12510714Y-24670997D01*
X12510714Y-24661473D01*
X12501190Y-24642426D01*
X12482143Y-24632902D01*
X12453571Y-24632902D01*
X12434524Y-24623378D01*
X12425000Y-24604330D01*
X12425000Y-24594806D01*
X12434524Y-24575759D01*
X12453571Y-24566235D01*
X12482143Y-24566235D01*
X12501190Y-24575759D01*
X12577381Y-24775759D02*
X12586905Y-24766235D01*
X12605952Y-24737664D01*
X12615476Y-24718616D01*
X12625000Y-24690045D01*
X12634524Y-24642426D01*
X12634524Y-24604330D01*
X12625000Y-24556711D01*
X12615476Y-24528140D01*
X12605952Y-24509092D01*
X12586905Y-24480521D01*
X12577381Y-24470997D01*
D17*
X7515940Y-24823562D02*
X7615000Y-24922622D01*
X7615000Y-24823562D02*
X7515940Y-24922622D01*
X7615000Y-24873092D02*
G75*
G03*
X7615000Y-24873092I-49530J0D01*
G01*
D11*
X7910714Y-24763568D02*
X7929762Y-24763568D01*
X7948809Y-24773092D01*
X7958333Y-24782616D01*
X7967857Y-24801664D01*
X7977381Y-24839759D01*
X7977381Y-24887378D01*
X7967857Y-24925473D01*
X7958333Y-24944521D01*
X7948809Y-24954045D01*
X7929762Y-24963568D01*
X7910714Y-24963568D01*
X7891667Y-24954045D01*
X7882143Y-24944521D01*
X7872619Y-24925473D01*
X7863095Y-24887378D01*
X7863095Y-24839759D01*
X7872619Y-24801664D01*
X7882143Y-24782616D01*
X7891667Y-24773092D01*
X7910714Y-24763568D01*
X8063095Y-24944521D02*
X8072619Y-24954045D01*
X8063095Y-24963568D01*
X8053571Y-24954045D01*
X8063095Y-24944521D01*
X8063095Y-24963568D01*
X8167857Y-24963568D02*
X8205952Y-24963568D01*
X8225000Y-24954045D01*
X8234524Y-24944521D01*
X8253571Y-24915949D01*
X8263095Y-24877854D01*
X8263095Y-24801664D01*
X8253571Y-24782616D01*
X8244048Y-24773092D01*
X8225000Y-24763568D01*
X8186905Y-24763568D01*
X8167857Y-24773092D01*
X8158333Y-24782616D01*
X8148809Y-24801664D01*
X8148809Y-24849283D01*
X8158333Y-24868330D01*
X8167857Y-24877854D01*
X8186905Y-24887378D01*
X8225000Y-24887378D01*
X8244048Y-24877854D01*
X8253571Y-24868330D01*
X8263095Y-24849283D01*
X8358333Y-24963568D02*
X8396429Y-24963568D01*
X8415476Y-24954045D01*
X8425000Y-24944521D01*
X8444048Y-24915949D01*
X8453571Y-24877854D01*
X8453571Y-24801664D01*
X8444048Y-24782616D01*
X8434524Y-24773092D01*
X8415476Y-24763568D01*
X8377381Y-24763568D01*
X8358333Y-24773092D01*
X8348809Y-24782616D01*
X8339286Y-24801664D01*
X8339286Y-24849283D01*
X8348809Y-24868330D01*
X8358333Y-24877854D01*
X8377381Y-24887378D01*
X8415476Y-24887378D01*
X8434524Y-24877854D01*
X8444048Y-24868330D01*
X8453571Y-24849283D01*
X8644048Y-24963568D02*
X8529762Y-24963568D01*
X8586905Y-24963568D02*
X8586905Y-24763568D01*
X8567857Y-24792140D01*
X8548810Y-24811187D01*
X8529762Y-24820711D01*
X8729762Y-24963568D02*
X8729762Y-24830235D01*
X8729762Y-24849283D02*
X8739286Y-24839759D01*
X8758333Y-24830235D01*
X8786905Y-24830235D01*
X8805952Y-24839759D01*
X8815476Y-24858806D01*
X8815476Y-24963568D01*
X8815476Y-24858806D02*
X8825000Y-24839759D01*
X8844048Y-24830235D01*
X8872619Y-24830235D01*
X8891667Y-24839759D01*
X8901190Y-24858806D01*
X8901190Y-24963568D01*
X8996429Y-24963568D02*
X8996429Y-24830235D01*
X8996429Y-24849283D02*
X9005952Y-24839759D01*
X9025000Y-24830235D01*
X9053571Y-24830235D01*
X9072619Y-24839759D01*
X9082143Y-24858806D01*
X9082143Y-24963568D01*
X9082143Y-24858806D02*
X9091667Y-24839759D01*
X9110714Y-24830235D01*
X9139286Y-24830235D01*
X9158333Y-24839759D01*
X9167857Y-24858806D01*
X9167857Y-24963568D01*
X9558333Y-24754045D02*
X9386905Y-25011187D01*
X9815476Y-24763568D02*
X9834524Y-24763568D01*
X9853571Y-24773092D01*
X9863095Y-24782616D01*
X9872619Y-24801664D01*
X9882143Y-24839759D01*
X9882143Y-24887378D01*
X9872619Y-24925473D01*
X9863095Y-24944521D01*
X9853571Y-24954045D01*
X9834524Y-24963568D01*
X9815476Y-24963568D01*
X9796429Y-24954045D01*
X9786905Y-24944521D01*
X9777381Y-24925473D01*
X9767857Y-24887378D01*
X9767857Y-24839759D01*
X9777381Y-24801664D01*
X9786905Y-24782616D01*
X9796429Y-24773092D01*
X9815476Y-24763568D01*
X9967857Y-24944521D02*
X9977381Y-24954045D01*
X9967857Y-24963568D01*
X9958333Y-24954045D01*
X9967857Y-24944521D01*
X9967857Y-24963568D01*
X10101190Y-24763568D02*
X10120238Y-24763568D01*
X10139286Y-24773092D01*
X10148810Y-24782616D01*
X10158333Y-24801664D01*
X10167857Y-24839759D01*
X10167857Y-24887378D01*
X10158333Y-24925473D01*
X10148810Y-24944521D01*
X10139286Y-24954045D01*
X10120238Y-24963568D01*
X10101190Y-24963568D01*
X10082143Y-24954045D01*
X10072619Y-24944521D01*
X10063095Y-24925473D01*
X10053571Y-24887378D01*
X10053571Y-24839759D01*
X10063095Y-24801664D01*
X10072619Y-24782616D01*
X10082143Y-24773092D01*
X10101190Y-24763568D01*
X10234524Y-24763568D02*
X10358333Y-24763568D01*
X10291667Y-24839759D01*
X10320238Y-24839759D01*
X10339286Y-24849283D01*
X10348810Y-24858806D01*
X10358333Y-24877854D01*
X10358333Y-24925473D01*
X10348810Y-24944521D01*
X10339286Y-24954045D01*
X10320238Y-24963568D01*
X10263095Y-24963568D01*
X10244048Y-24954045D01*
X10234524Y-24944521D01*
X10453571Y-24963568D02*
X10491667Y-24963568D01*
X10510714Y-24954045D01*
X10520238Y-24944521D01*
X10539286Y-24915949D01*
X10548810Y-24877854D01*
X10548810Y-24801664D01*
X10539286Y-24782616D01*
X10529762Y-24773092D01*
X10510714Y-24763568D01*
X10472619Y-24763568D01*
X10453571Y-24773092D01*
X10444048Y-24782616D01*
X10434524Y-24801664D01*
X10434524Y-24849283D01*
X10444048Y-24868330D01*
X10453571Y-24877854D01*
X10472619Y-24887378D01*
X10510714Y-24887378D01*
X10529762Y-24877854D01*
X10539286Y-24868330D01*
X10548810Y-24849283D01*
X10672619Y-24763568D02*
X10691667Y-24763568D01*
X10710714Y-24773092D01*
X10720238Y-24782616D01*
X10729762Y-24801664D01*
X10739286Y-24839759D01*
X10739286Y-24887378D01*
X10729762Y-24925473D01*
X10720238Y-24944521D01*
X10710714Y-24954045D01*
X10691667Y-24963568D01*
X10672619Y-24963568D01*
X10653571Y-24954045D01*
X10644048Y-24944521D01*
X10634524Y-24925473D01*
X10625000Y-24887378D01*
X10625000Y-24839759D01*
X10634524Y-24801664D01*
X10644048Y-24782616D01*
X10653571Y-24773092D01*
X10672619Y-24763568D01*
X10815476Y-24763568D02*
X10815476Y-24801664D01*
X10891667Y-24763568D02*
X10891667Y-24801664D01*
X11186905Y-25039759D02*
X11177381Y-25030235D01*
X11158333Y-25001664D01*
X11148810Y-24982616D01*
X11139286Y-24954045D01*
X11129762Y-24906426D01*
X11129762Y-24868330D01*
X11139286Y-24820711D01*
X11148810Y-24792140D01*
X11158333Y-24773092D01*
X11177381Y-24744521D01*
X11186905Y-24734997D01*
X11348809Y-24763568D02*
X11310714Y-24763568D01*
X11291667Y-24773092D01*
X11282143Y-24782616D01*
X11263095Y-24811187D01*
X11253571Y-24849283D01*
X11253571Y-24925473D01*
X11263095Y-24944521D01*
X11272619Y-24954045D01*
X11291667Y-24963568D01*
X11329762Y-24963568D01*
X11348809Y-24954045D01*
X11358333Y-24944521D01*
X11367857Y-24925473D01*
X11367857Y-24877854D01*
X11358333Y-24858806D01*
X11348809Y-24849283D01*
X11329762Y-24839759D01*
X11291667Y-24839759D01*
X11272619Y-24849283D01*
X11263095Y-24858806D01*
X11253571Y-24877854D01*
X11482143Y-24849283D02*
X11463095Y-24839759D01*
X11453571Y-24830235D01*
X11444048Y-24811187D01*
X11444048Y-24801664D01*
X11453571Y-24782616D01*
X11463095Y-24773092D01*
X11482143Y-24763568D01*
X11520238Y-24763568D01*
X11539286Y-24773092D01*
X11548809Y-24782616D01*
X11558333Y-24801664D01*
X11558333Y-24811187D01*
X11548809Y-24830235D01*
X11539286Y-24839759D01*
X11520238Y-24849283D01*
X11482143Y-24849283D01*
X11463095Y-24858806D01*
X11453571Y-24868330D01*
X11444048Y-24887378D01*
X11444048Y-24925473D01*
X11453571Y-24944521D01*
X11463095Y-24954045D01*
X11482143Y-24963568D01*
X11520238Y-24963568D01*
X11539286Y-24954045D01*
X11548809Y-24944521D01*
X11558333Y-24925473D01*
X11558333Y-24887378D01*
X11548809Y-24868330D01*
X11539286Y-24858806D01*
X11520238Y-24849283D01*
X11796428Y-24963568D02*
X11796428Y-24763568D01*
X11882143Y-24963568D02*
X11882143Y-24858806D01*
X11872619Y-24839759D01*
X11853571Y-24830235D01*
X11825000Y-24830235D01*
X11805952Y-24839759D01*
X11796428Y-24849283D01*
X12005952Y-24963568D02*
X11986905Y-24954045D01*
X11977381Y-24944521D01*
X11967857Y-24925473D01*
X11967857Y-24868330D01*
X11977381Y-24849283D01*
X11986905Y-24839759D01*
X12005952Y-24830235D01*
X12034524Y-24830235D01*
X12053571Y-24839759D01*
X12063095Y-24849283D01*
X12072619Y-24868330D01*
X12072619Y-24925473D01*
X12063095Y-24944521D01*
X12053571Y-24954045D01*
X12034524Y-24963568D01*
X12005952Y-24963568D01*
X12186905Y-24963568D02*
X12167857Y-24954045D01*
X12158333Y-24934997D01*
X12158333Y-24763568D01*
X12339286Y-24954045D02*
X12320238Y-24963568D01*
X12282143Y-24963568D01*
X12263095Y-24954045D01*
X12253571Y-24934997D01*
X12253571Y-24858806D01*
X12263095Y-24839759D01*
X12282143Y-24830235D01*
X12320238Y-24830235D01*
X12339286Y-24839759D01*
X12348809Y-24858806D01*
X12348809Y-24877854D01*
X12253571Y-24896902D01*
X12425000Y-24954045D02*
X12444048Y-24963568D01*
X12482143Y-24963568D01*
X12501190Y-24954045D01*
X12510714Y-24934997D01*
X12510714Y-24925473D01*
X12501190Y-24906426D01*
X12482143Y-24896902D01*
X12453571Y-24896902D01*
X12434524Y-24887378D01*
X12425000Y-24868330D01*
X12425000Y-24858806D01*
X12434524Y-24839759D01*
X12453571Y-24830235D01*
X12482143Y-24830235D01*
X12501190Y-24839759D01*
X12577381Y-25039759D02*
X12586905Y-25030235D01*
X12605952Y-25001664D01*
X12615476Y-24982616D01*
X12625000Y-24954045D01*
X12634524Y-24906426D01*
X12634524Y-24868330D01*
X12625000Y-24820711D01*
X12615476Y-24792140D01*
X12605952Y-24773092D01*
X12586905Y-24744521D01*
X12577381Y-24734997D01*
D18*
X7515000Y-25087092D02*
X7615000Y-25187092D01*
X7615000Y-25087092D02*
X7515000Y-25187092D01*
X7565000Y-25087092D02*
X7565000Y-25187092D01*
X7515000Y-25137092D02*
X7615000Y-25137092D01*
D11*
X7977381Y-25227568D02*
X7863095Y-25227568D01*
X7920238Y-25227568D02*
X7920238Y-25027568D01*
X7901190Y-25056140D01*
X7882143Y-25075187D01*
X7863095Y-25084711D01*
X8063095Y-25208521D02*
X8072619Y-25218045D01*
X8063095Y-25227568D01*
X8053571Y-25218045D01*
X8063095Y-25208521D01*
X8063095Y-25227568D01*
X8196428Y-25027568D02*
X8215476Y-25027568D01*
X8234524Y-25037092D01*
X8244048Y-25046616D01*
X8253571Y-25065664D01*
X8263095Y-25103759D01*
X8263095Y-25151378D01*
X8253571Y-25189473D01*
X8244048Y-25208521D01*
X8234524Y-25218045D01*
X8215476Y-25227568D01*
X8196428Y-25227568D01*
X8177381Y-25218045D01*
X8167857Y-25208521D01*
X8158333Y-25189473D01*
X8148809Y-25151378D01*
X8148809Y-25103759D01*
X8158333Y-25065664D01*
X8167857Y-25046616D01*
X8177381Y-25037092D01*
X8196428Y-25027568D01*
X8386905Y-25027568D02*
X8405952Y-25027568D01*
X8425000Y-25037092D01*
X8434524Y-25046616D01*
X8444048Y-25065664D01*
X8453571Y-25103759D01*
X8453571Y-25151378D01*
X8444048Y-25189473D01*
X8434524Y-25208521D01*
X8425000Y-25218045D01*
X8405952Y-25227568D01*
X8386905Y-25227568D01*
X8367857Y-25218045D01*
X8358333Y-25208521D01*
X8348809Y-25189473D01*
X8339286Y-25151378D01*
X8339286Y-25103759D01*
X8348809Y-25065664D01*
X8358333Y-25046616D01*
X8367857Y-25037092D01*
X8386905Y-25027568D01*
X8577381Y-25027568D02*
X8596429Y-25027568D01*
X8615476Y-25037092D01*
X8625000Y-25046616D01*
X8634524Y-25065664D01*
X8644048Y-25103759D01*
X8644048Y-25151378D01*
X8634524Y-25189473D01*
X8625000Y-25208521D01*
X8615476Y-25218045D01*
X8596429Y-25227568D01*
X8577381Y-25227568D01*
X8558333Y-25218045D01*
X8548810Y-25208521D01*
X8539286Y-25189473D01*
X8529762Y-25151378D01*
X8529762Y-25103759D01*
X8539286Y-25065664D01*
X8548810Y-25046616D01*
X8558333Y-25037092D01*
X8577381Y-25027568D01*
X8729762Y-25227568D02*
X8729762Y-25094235D01*
X8729762Y-25113283D02*
X8739286Y-25103759D01*
X8758333Y-25094235D01*
X8786905Y-25094235D01*
X8805952Y-25103759D01*
X8815476Y-25122806D01*
X8815476Y-25227568D01*
X8815476Y-25122806D02*
X8825000Y-25103759D01*
X8844048Y-25094235D01*
X8872619Y-25094235D01*
X8891667Y-25103759D01*
X8901190Y-25122806D01*
X8901190Y-25227568D01*
X8996429Y-25227568D02*
X8996429Y-25094235D01*
X8996429Y-25113283D02*
X9005952Y-25103759D01*
X9025000Y-25094235D01*
X9053571Y-25094235D01*
X9072619Y-25103759D01*
X9082143Y-25122806D01*
X9082143Y-25227568D01*
X9082143Y-25122806D02*
X9091667Y-25103759D01*
X9110714Y-25094235D01*
X9139286Y-25094235D01*
X9158333Y-25103759D01*
X9167857Y-25122806D01*
X9167857Y-25227568D01*
X9558333Y-25018045D02*
X9386905Y-25275187D01*
X9815476Y-25027568D02*
X9834524Y-25027568D01*
X9853571Y-25037092D01*
X9863095Y-25046616D01*
X9872619Y-25065664D01*
X9882143Y-25103759D01*
X9882143Y-25151378D01*
X9872619Y-25189473D01*
X9863095Y-25208521D01*
X9853571Y-25218045D01*
X9834524Y-25227568D01*
X9815476Y-25227568D01*
X9796429Y-25218045D01*
X9786905Y-25208521D01*
X9777381Y-25189473D01*
X9767857Y-25151378D01*
X9767857Y-25103759D01*
X9777381Y-25065664D01*
X9786905Y-25046616D01*
X9796429Y-25037092D01*
X9815476Y-25027568D01*
X9967857Y-25208521D02*
X9977381Y-25218045D01*
X9967857Y-25227568D01*
X9958333Y-25218045D01*
X9967857Y-25208521D01*
X9967857Y-25227568D01*
X10101190Y-25027568D02*
X10120238Y-25027568D01*
X10139286Y-25037092D01*
X10148810Y-25046616D01*
X10158333Y-25065664D01*
X10167857Y-25103759D01*
X10167857Y-25151378D01*
X10158333Y-25189473D01*
X10148810Y-25208521D01*
X10139286Y-25218045D01*
X10120238Y-25227568D01*
X10101190Y-25227568D01*
X10082143Y-25218045D01*
X10072619Y-25208521D01*
X10063095Y-25189473D01*
X10053571Y-25151378D01*
X10053571Y-25103759D01*
X10063095Y-25065664D01*
X10072619Y-25046616D01*
X10082143Y-25037092D01*
X10101190Y-25027568D01*
X10234524Y-25027568D02*
X10358333Y-25027568D01*
X10291667Y-25103759D01*
X10320238Y-25103759D01*
X10339286Y-25113283D01*
X10348810Y-25122806D01*
X10358333Y-25141854D01*
X10358333Y-25189473D01*
X10348810Y-25208521D01*
X10339286Y-25218045D01*
X10320238Y-25227568D01*
X10263095Y-25227568D01*
X10244048Y-25218045D01*
X10234524Y-25208521D01*
X10453571Y-25227568D02*
X10491667Y-25227568D01*
X10510714Y-25218045D01*
X10520238Y-25208521D01*
X10539286Y-25179949D01*
X10548810Y-25141854D01*
X10548810Y-25065664D01*
X10539286Y-25046616D01*
X10529762Y-25037092D01*
X10510714Y-25027568D01*
X10472619Y-25027568D01*
X10453571Y-25037092D01*
X10444048Y-25046616D01*
X10434524Y-25065664D01*
X10434524Y-25113283D01*
X10444048Y-25132330D01*
X10453571Y-25141854D01*
X10472619Y-25151378D01*
X10510714Y-25151378D01*
X10529762Y-25141854D01*
X10539286Y-25132330D01*
X10548810Y-25113283D01*
X10720238Y-25094235D02*
X10720238Y-25227568D01*
X10672619Y-25018045D02*
X10625000Y-25160902D01*
X10748810Y-25160902D01*
X10815476Y-25027568D02*
X10815476Y-25065664D01*
X10891667Y-25027568D02*
X10891667Y-25065664D01*
X11186905Y-25303759D02*
X11177381Y-25294235D01*
X11158333Y-25265664D01*
X11148810Y-25246616D01*
X11139286Y-25218045D01*
X11129762Y-25170426D01*
X11129762Y-25132330D01*
X11139286Y-25084711D01*
X11148810Y-25056140D01*
X11158333Y-25037092D01*
X11177381Y-25008521D01*
X11186905Y-24998997D01*
X11291667Y-25113283D02*
X11272619Y-25103759D01*
X11263095Y-25094235D01*
X11253571Y-25075187D01*
X11253571Y-25065664D01*
X11263095Y-25046616D01*
X11272619Y-25037092D01*
X11291667Y-25027568D01*
X11329762Y-25027568D01*
X11348809Y-25037092D01*
X11358333Y-25046616D01*
X11367857Y-25065664D01*
X11367857Y-25075187D01*
X11358333Y-25094235D01*
X11348809Y-25103759D01*
X11329762Y-25113283D01*
X11291667Y-25113283D01*
X11272619Y-25122806D01*
X11263095Y-25132330D01*
X11253571Y-25151378D01*
X11253571Y-25189473D01*
X11263095Y-25208521D01*
X11272619Y-25218045D01*
X11291667Y-25227568D01*
X11329762Y-25227568D01*
X11348809Y-25218045D01*
X11358333Y-25208521D01*
X11367857Y-25189473D01*
X11367857Y-25151378D01*
X11358333Y-25132330D01*
X11348809Y-25122806D01*
X11329762Y-25113283D01*
X11605952Y-25227568D02*
X11605952Y-25027568D01*
X11691667Y-25227568D02*
X11691667Y-25122806D01*
X11682143Y-25103759D01*
X11663095Y-25094235D01*
X11634524Y-25094235D01*
X11615476Y-25103759D01*
X11605952Y-25113283D01*
X11815476Y-25227568D02*
X11796428Y-25218045D01*
X11786905Y-25208521D01*
X11777381Y-25189473D01*
X11777381Y-25132330D01*
X11786905Y-25113283D01*
X11796428Y-25103759D01*
X11815476Y-25094235D01*
X11844048Y-25094235D01*
X11863095Y-25103759D01*
X11872619Y-25113283D01*
X11882143Y-25132330D01*
X11882143Y-25189473D01*
X11872619Y-25208521D01*
X11863095Y-25218045D01*
X11844048Y-25227568D01*
X11815476Y-25227568D01*
X11996428Y-25227568D02*
X11977381Y-25218045D01*
X11967857Y-25198997D01*
X11967857Y-25027568D01*
X12148809Y-25218045D02*
X12129762Y-25227568D01*
X12091667Y-25227568D01*
X12072619Y-25218045D01*
X12063095Y-25198997D01*
X12063095Y-25122806D01*
X12072619Y-25103759D01*
X12091667Y-25094235D01*
X12129762Y-25094235D01*
X12148809Y-25103759D01*
X12158333Y-25122806D01*
X12158333Y-25141854D01*
X12063095Y-25160902D01*
X12234524Y-25218045D02*
X12253571Y-25227568D01*
X12291667Y-25227568D01*
X12310714Y-25218045D01*
X12320238Y-25198997D01*
X12320238Y-25189473D01*
X12310714Y-25170426D01*
X12291667Y-25160902D01*
X12263095Y-25160902D01*
X12244048Y-25151378D01*
X12234524Y-25132330D01*
X12234524Y-25122806D01*
X12244048Y-25103759D01*
X12263095Y-25094235D01*
X12291667Y-25094235D01*
X12310714Y-25103759D01*
X12386905Y-25303759D02*
X12396428Y-25294235D01*
X12415476Y-25265664D01*
X12425000Y-25246616D01*
X12434524Y-25218045D01*
X12444048Y-25170426D01*
X12444048Y-25132330D01*
X12434524Y-25084711D01*
X12425000Y-25056140D01*
X12415476Y-25037092D01*
X12396428Y-25008521D01*
X12386905Y-24998997D01*
D19*
X7465000Y-25326092D02*
X7615000Y-25476092D01*
X7615000Y-25326092D02*
X7465000Y-25476092D01*
X7593033Y-25454126D02*
X7593033Y-25348059D01*
X7486966Y-25348059D01*
X7486966Y-25454126D01*
X7593033Y-25454126D01*
D11*
X7977381Y-25491568D02*
X7863095Y-25491568D01*
X7920238Y-25491568D02*
X7920238Y-25291568D01*
X7901190Y-25320140D01*
X7882143Y-25339187D01*
X7863095Y-25348711D01*
X8063095Y-25472521D02*
X8072619Y-25482045D01*
X8063095Y-25491568D01*
X8053571Y-25482045D01*
X8063095Y-25472521D01*
X8063095Y-25491568D01*
X8253571Y-25291568D02*
X8158333Y-25291568D01*
X8148809Y-25386806D01*
X8158333Y-25377283D01*
X8177381Y-25367759D01*
X8225000Y-25367759D01*
X8244048Y-25377283D01*
X8253571Y-25386806D01*
X8263095Y-25405854D01*
X8263095Y-25453473D01*
X8253571Y-25472521D01*
X8244048Y-25482045D01*
X8225000Y-25491568D01*
X8177381Y-25491568D01*
X8158333Y-25482045D01*
X8148809Y-25472521D01*
X8386905Y-25291568D02*
X8405952Y-25291568D01*
X8425000Y-25301092D01*
X8434524Y-25310616D01*
X8444048Y-25329664D01*
X8453571Y-25367759D01*
X8453571Y-25415378D01*
X8444048Y-25453473D01*
X8434524Y-25472521D01*
X8425000Y-25482045D01*
X8405952Y-25491568D01*
X8386905Y-25491568D01*
X8367857Y-25482045D01*
X8358333Y-25472521D01*
X8348809Y-25453473D01*
X8339286Y-25415378D01*
X8339286Y-25367759D01*
X8348809Y-25329664D01*
X8358333Y-25310616D01*
X8367857Y-25301092D01*
X8386905Y-25291568D01*
X8577381Y-25291568D02*
X8596429Y-25291568D01*
X8615476Y-25301092D01*
X8625000Y-25310616D01*
X8634524Y-25329664D01*
X8644048Y-25367759D01*
X8644048Y-25415378D01*
X8634524Y-25453473D01*
X8625000Y-25472521D01*
X8615476Y-25482045D01*
X8596429Y-25491568D01*
X8577381Y-25491568D01*
X8558333Y-25482045D01*
X8548810Y-25472521D01*
X8539286Y-25453473D01*
X8529762Y-25415378D01*
X8529762Y-25367759D01*
X8539286Y-25329664D01*
X8548810Y-25310616D01*
X8558333Y-25301092D01*
X8577381Y-25291568D01*
X8729762Y-25491568D02*
X8729762Y-25358235D01*
X8729762Y-25377283D02*
X8739286Y-25367759D01*
X8758333Y-25358235D01*
X8786905Y-25358235D01*
X8805952Y-25367759D01*
X8815476Y-25386806D01*
X8815476Y-25491568D01*
X8815476Y-25386806D02*
X8825000Y-25367759D01*
X8844048Y-25358235D01*
X8872619Y-25358235D01*
X8891667Y-25367759D01*
X8901190Y-25386806D01*
X8901190Y-25491568D01*
X8996429Y-25491568D02*
X8996429Y-25358235D01*
X8996429Y-25377283D02*
X9005952Y-25367759D01*
X9025000Y-25358235D01*
X9053571Y-25358235D01*
X9072619Y-25367759D01*
X9082143Y-25386806D01*
X9082143Y-25491568D01*
X9082143Y-25386806D02*
X9091667Y-25367759D01*
X9110714Y-25358235D01*
X9139286Y-25358235D01*
X9158333Y-25367759D01*
X9167857Y-25386806D01*
X9167857Y-25491568D01*
X9558333Y-25282045D02*
X9386905Y-25539187D01*
X9815476Y-25291568D02*
X9834524Y-25291568D01*
X9853571Y-25301092D01*
X9863095Y-25310616D01*
X9872619Y-25329664D01*
X9882143Y-25367759D01*
X9882143Y-25415378D01*
X9872619Y-25453473D01*
X9863095Y-25472521D01*
X9853571Y-25482045D01*
X9834524Y-25491568D01*
X9815476Y-25491568D01*
X9796429Y-25482045D01*
X9786905Y-25472521D01*
X9777381Y-25453473D01*
X9767857Y-25415378D01*
X9767857Y-25367759D01*
X9777381Y-25329664D01*
X9786905Y-25310616D01*
X9796429Y-25301092D01*
X9815476Y-25291568D01*
X9967857Y-25472521D02*
X9977381Y-25482045D01*
X9967857Y-25491568D01*
X9958333Y-25482045D01*
X9967857Y-25472521D01*
X9967857Y-25491568D01*
X10101190Y-25291568D02*
X10120238Y-25291568D01*
X10139286Y-25301092D01*
X10148810Y-25310616D01*
X10158333Y-25329664D01*
X10167857Y-25367759D01*
X10167857Y-25415378D01*
X10158333Y-25453473D01*
X10148810Y-25472521D01*
X10139286Y-25482045D01*
X10120238Y-25491568D01*
X10101190Y-25491568D01*
X10082143Y-25482045D01*
X10072619Y-25472521D01*
X10063095Y-25453473D01*
X10053571Y-25415378D01*
X10053571Y-25367759D01*
X10063095Y-25329664D01*
X10072619Y-25310616D01*
X10082143Y-25301092D01*
X10101190Y-25291568D01*
X10348810Y-25291568D02*
X10253571Y-25291568D01*
X10244048Y-25386806D01*
X10253571Y-25377283D01*
X10272619Y-25367759D01*
X10320238Y-25367759D01*
X10339286Y-25377283D01*
X10348810Y-25386806D01*
X10358333Y-25405854D01*
X10358333Y-25453473D01*
X10348810Y-25472521D01*
X10339286Y-25482045D01*
X10320238Y-25491568D01*
X10272619Y-25491568D01*
X10253571Y-25482045D01*
X10244048Y-25472521D01*
X10453571Y-25491568D02*
X10491667Y-25491568D01*
X10510714Y-25482045D01*
X10520238Y-25472521D01*
X10539286Y-25443949D01*
X10548810Y-25405854D01*
X10548810Y-25329664D01*
X10539286Y-25310616D01*
X10529762Y-25301092D01*
X10510714Y-25291568D01*
X10472619Y-25291568D01*
X10453571Y-25301092D01*
X10444048Y-25310616D01*
X10434524Y-25329664D01*
X10434524Y-25377283D01*
X10444048Y-25396330D01*
X10453571Y-25405854D01*
X10472619Y-25415378D01*
X10510714Y-25415378D01*
X10529762Y-25405854D01*
X10539286Y-25396330D01*
X10548810Y-25377283D01*
X10739286Y-25491568D02*
X10625000Y-25491568D01*
X10682143Y-25491568D02*
X10682143Y-25291568D01*
X10663095Y-25320140D01*
X10644048Y-25339187D01*
X10625000Y-25348711D01*
X10815476Y-25291568D02*
X10815476Y-25329664D01*
X10891667Y-25291568D02*
X10891667Y-25329664D01*
X11186905Y-25567759D02*
X11177381Y-25558235D01*
X11158333Y-25529664D01*
X11148810Y-25510616D01*
X11139286Y-25482045D01*
X11129762Y-25434426D01*
X11129762Y-25396330D01*
X11139286Y-25348711D01*
X11148810Y-25320140D01*
X11158333Y-25301092D01*
X11177381Y-25272521D01*
X11186905Y-25262997D01*
X11348809Y-25291568D02*
X11310714Y-25291568D01*
X11291667Y-25301092D01*
X11282143Y-25310616D01*
X11263095Y-25339187D01*
X11253571Y-25377283D01*
X11253571Y-25453473D01*
X11263095Y-25472521D01*
X11272619Y-25482045D01*
X11291667Y-25491568D01*
X11329762Y-25491568D01*
X11348809Y-25482045D01*
X11358333Y-25472521D01*
X11367857Y-25453473D01*
X11367857Y-25405854D01*
X11358333Y-25386806D01*
X11348809Y-25377283D01*
X11329762Y-25367759D01*
X11291667Y-25367759D01*
X11272619Y-25377283D01*
X11263095Y-25386806D01*
X11253571Y-25405854D01*
X11482143Y-25377283D02*
X11463095Y-25367759D01*
X11453571Y-25358235D01*
X11444048Y-25339187D01*
X11444048Y-25329664D01*
X11453571Y-25310616D01*
X11463095Y-25301092D01*
X11482143Y-25291568D01*
X11520238Y-25291568D01*
X11539286Y-25301092D01*
X11548809Y-25310616D01*
X11558333Y-25329664D01*
X11558333Y-25339187D01*
X11548809Y-25358235D01*
X11539286Y-25367759D01*
X11520238Y-25377283D01*
X11482143Y-25377283D01*
X11463095Y-25386806D01*
X11453571Y-25396330D01*
X11444048Y-25415378D01*
X11444048Y-25453473D01*
X11453571Y-25472521D01*
X11463095Y-25482045D01*
X11482143Y-25491568D01*
X11520238Y-25491568D01*
X11539286Y-25482045D01*
X11548809Y-25472521D01*
X11558333Y-25453473D01*
X11558333Y-25415378D01*
X11548809Y-25396330D01*
X11539286Y-25386806D01*
X11520238Y-25377283D01*
X11796428Y-25491568D02*
X11796428Y-25291568D01*
X11882143Y-25491568D02*
X11882143Y-25386806D01*
X11872619Y-25367759D01*
X11853571Y-25358235D01*
X11825000Y-25358235D01*
X11805952Y-25367759D01*
X11796428Y-25377283D01*
X12005952Y-25491568D02*
X11986905Y-25482045D01*
X11977381Y-25472521D01*
X11967857Y-25453473D01*
X11967857Y-25396330D01*
X11977381Y-25377283D01*
X11986905Y-25367759D01*
X12005952Y-25358235D01*
X12034524Y-25358235D01*
X12053571Y-25367759D01*
X12063095Y-25377283D01*
X12072619Y-25396330D01*
X12072619Y-25453473D01*
X12063095Y-25472521D01*
X12053571Y-25482045D01*
X12034524Y-25491568D01*
X12005952Y-25491568D01*
X12186905Y-25491568D02*
X12167857Y-25482045D01*
X12158333Y-25462997D01*
X12158333Y-25291568D01*
X12339286Y-25482045D02*
X12320238Y-25491568D01*
X12282143Y-25491568D01*
X12263095Y-25482045D01*
X12253571Y-25462997D01*
X12253571Y-25386806D01*
X12263095Y-25367759D01*
X12282143Y-25358235D01*
X12320238Y-25358235D01*
X12339286Y-25367759D01*
X12348809Y-25386806D01*
X12348809Y-25405854D01*
X12253571Y-25424902D01*
X12425000Y-25482045D02*
X12444048Y-25491568D01*
X12482143Y-25491568D01*
X12501190Y-25482045D01*
X12510714Y-25462997D01*
X12510714Y-25453473D01*
X12501190Y-25434426D01*
X12482143Y-25424902D01*
X12453571Y-25424902D01*
X12434524Y-25415378D01*
X12425000Y-25396330D01*
X12425000Y-25386806D01*
X12434524Y-25367759D01*
X12453571Y-25358235D01*
X12482143Y-25358235D01*
X12501190Y-25367759D01*
X12577381Y-25567759D02*
X12586905Y-25558235D01*
X12605952Y-25529664D01*
X12615476Y-25510616D01*
X12625000Y-25482045D01*
X12634524Y-25434426D01*
X12634524Y-25396330D01*
X12625000Y-25348711D01*
X12615476Y-25320140D01*
X12605952Y-25301092D01*
X12586905Y-25272521D01*
X12577381Y-25262997D01*
X7415000Y-25571092D02*
X7615000Y-25771092D01*
X7615000Y-25571092D02*
X7415000Y-25771092D01*
X7515000Y-25771092D02*
X7615000Y-25671092D01*
X7515000Y-25571092D01*
X7415000Y-25671092D01*
X7515000Y-25771092D01*
X7853571Y-25561568D02*
X7977381Y-25561568D01*
X7910714Y-25637759D01*
X7939286Y-25637759D01*
X7958333Y-25647283D01*
X7967857Y-25656806D01*
X7977381Y-25675854D01*
X7977381Y-25723473D01*
X7967857Y-25742521D01*
X7958333Y-25752045D01*
X7939286Y-25761568D01*
X7882143Y-25761568D01*
X7863095Y-25752045D01*
X7853571Y-25742521D01*
X8063095Y-25742521D02*
X8072619Y-25752045D01*
X8063095Y-25761568D01*
X8053571Y-25752045D01*
X8063095Y-25742521D01*
X8063095Y-25761568D01*
X8196428Y-25561568D02*
X8215476Y-25561568D01*
X8234524Y-25571092D01*
X8244048Y-25580616D01*
X8253571Y-25599664D01*
X8263095Y-25637759D01*
X8263095Y-25685378D01*
X8253571Y-25723473D01*
X8244048Y-25742521D01*
X8234524Y-25752045D01*
X8215476Y-25761568D01*
X8196428Y-25761568D01*
X8177381Y-25752045D01*
X8167857Y-25742521D01*
X8158333Y-25723473D01*
X8148809Y-25685378D01*
X8148809Y-25637759D01*
X8158333Y-25599664D01*
X8167857Y-25580616D01*
X8177381Y-25571092D01*
X8196428Y-25561568D01*
X8386905Y-25561568D02*
X8405952Y-25561568D01*
X8425000Y-25571092D01*
X8434524Y-25580616D01*
X8444048Y-25599664D01*
X8453571Y-25637759D01*
X8453571Y-25685378D01*
X8444048Y-25723473D01*
X8434524Y-25742521D01*
X8425000Y-25752045D01*
X8405952Y-25761568D01*
X8386905Y-25761568D01*
X8367857Y-25752045D01*
X8358333Y-25742521D01*
X8348809Y-25723473D01*
X8339286Y-25685378D01*
X8339286Y-25637759D01*
X8348809Y-25599664D01*
X8358333Y-25580616D01*
X8367857Y-25571092D01*
X8386905Y-25561568D01*
X8577381Y-25561568D02*
X8596429Y-25561568D01*
X8615476Y-25571092D01*
X8625000Y-25580616D01*
X8634524Y-25599664D01*
X8644048Y-25637759D01*
X8644048Y-25685378D01*
X8634524Y-25723473D01*
X8625000Y-25742521D01*
X8615476Y-25752045D01*
X8596429Y-25761568D01*
X8577381Y-25761568D01*
X8558333Y-25752045D01*
X8548810Y-25742521D01*
X8539286Y-25723473D01*
X8529762Y-25685378D01*
X8529762Y-25637759D01*
X8539286Y-25599664D01*
X8548810Y-25580616D01*
X8558333Y-25571092D01*
X8577381Y-25561568D01*
X8729762Y-25761568D02*
X8729762Y-25628235D01*
X8729762Y-25647283D02*
X8739286Y-25637759D01*
X8758333Y-25628235D01*
X8786905Y-25628235D01*
X8805952Y-25637759D01*
X8815476Y-25656806D01*
X8815476Y-25761568D01*
X8815476Y-25656806D02*
X8825000Y-25637759D01*
X8844048Y-25628235D01*
X8872619Y-25628235D01*
X8891667Y-25637759D01*
X8901190Y-25656806D01*
X8901190Y-25761568D01*
X8996429Y-25761568D02*
X8996429Y-25628235D01*
X8996429Y-25647283D02*
X9005952Y-25637759D01*
X9025000Y-25628235D01*
X9053571Y-25628235D01*
X9072619Y-25637759D01*
X9082143Y-25656806D01*
X9082143Y-25761568D01*
X9082143Y-25656806D02*
X9091667Y-25637759D01*
X9110714Y-25628235D01*
X9139286Y-25628235D01*
X9158333Y-25637759D01*
X9167857Y-25656806D01*
X9167857Y-25761568D01*
X9558333Y-25552045D02*
X9386905Y-25809187D01*
X9815476Y-25561568D02*
X9834524Y-25561568D01*
X9853571Y-25571092D01*
X9863095Y-25580616D01*
X9872619Y-25599664D01*
X9882143Y-25637759D01*
X9882143Y-25685378D01*
X9872619Y-25723473D01*
X9863095Y-25742521D01*
X9853571Y-25752045D01*
X9834524Y-25761568D01*
X9815476Y-25761568D01*
X9796429Y-25752045D01*
X9786905Y-25742521D01*
X9777381Y-25723473D01*
X9767857Y-25685378D01*
X9767857Y-25637759D01*
X9777381Y-25599664D01*
X9786905Y-25580616D01*
X9796429Y-25571092D01*
X9815476Y-25561568D01*
X9967857Y-25742521D02*
X9977381Y-25752045D01*
X9967857Y-25761568D01*
X9958333Y-25752045D01*
X9967857Y-25742521D01*
X9967857Y-25761568D01*
X10167857Y-25761568D02*
X10053571Y-25761568D01*
X10110714Y-25761568D02*
X10110714Y-25561568D01*
X10091667Y-25590140D01*
X10072619Y-25609187D01*
X10053571Y-25618711D01*
X10358333Y-25761568D02*
X10244048Y-25761568D01*
X10301190Y-25761568D02*
X10301190Y-25561568D01*
X10282143Y-25590140D01*
X10263095Y-25609187D01*
X10244048Y-25618711D01*
X10472619Y-25647283D02*
X10453571Y-25637759D01*
X10444048Y-25628235D01*
X10434524Y-25609187D01*
X10434524Y-25599664D01*
X10444048Y-25580616D01*
X10453571Y-25571092D01*
X10472619Y-25561568D01*
X10510714Y-25561568D01*
X10529762Y-25571092D01*
X10539286Y-25580616D01*
X10548810Y-25599664D01*
X10548810Y-25609187D01*
X10539286Y-25628235D01*
X10529762Y-25637759D01*
X10510714Y-25647283D01*
X10472619Y-25647283D01*
X10453571Y-25656806D01*
X10444048Y-25666330D01*
X10434524Y-25685378D01*
X10434524Y-25723473D01*
X10444048Y-25742521D01*
X10453571Y-25752045D01*
X10472619Y-25761568D01*
X10510714Y-25761568D01*
X10529762Y-25752045D01*
X10539286Y-25742521D01*
X10548810Y-25723473D01*
X10548810Y-25685378D01*
X10539286Y-25666330D01*
X10529762Y-25656806D01*
X10510714Y-25647283D01*
X10739286Y-25761568D02*
X10625000Y-25761568D01*
X10682143Y-25761568D02*
X10682143Y-25561568D01*
X10663095Y-25590140D01*
X10644048Y-25609187D01*
X10625000Y-25618711D01*
X10815476Y-25561568D02*
X10815476Y-25599664D01*
X10891667Y-25561568D02*
X10891667Y-25599664D01*
X11186905Y-25837759D02*
X11177381Y-25828235D01*
X11158333Y-25799664D01*
X11148810Y-25780616D01*
X11139286Y-25752045D01*
X11129762Y-25704426D01*
X11129762Y-25666330D01*
X11139286Y-25618711D01*
X11148810Y-25590140D01*
X11158333Y-25571092D01*
X11177381Y-25542521D01*
X11186905Y-25532997D01*
X11348809Y-25628235D02*
X11348809Y-25761568D01*
X11301190Y-25552045D02*
X11253571Y-25694902D01*
X11377381Y-25694902D01*
X11605952Y-25761568D02*
X11605952Y-25561568D01*
X11691667Y-25761568D02*
X11691667Y-25656806D01*
X11682143Y-25637759D01*
X11663095Y-25628235D01*
X11634524Y-25628235D01*
X11615476Y-25637759D01*
X11605952Y-25647283D01*
X11815476Y-25761568D02*
X11796428Y-25752045D01*
X11786905Y-25742521D01*
X11777381Y-25723473D01*
X11777381Y-25666330D01*
X11786905Y-25647283D01*
X11796428Y-25637759D01*
X11815476Y-25628235D01*
X11844048Y-25628235D01*
X11863095Y-25637759D01*
X11872619Y-25647283D01*
X11882143Y-25666330D01*
X11882143Y-25723473D01*
X11872619Y-25742521D01*
X11863095Y-25752045D01*
X11844048Y-25761568D01*
X11815476Y-25761568D01*
X11996428Y-25761568D02*
X11977381Y-25752045D01*
X11967857Y-25732997D01*
X11967857Y-25561568D01*
X12148809Y-25752045D02*
X12129762Y-25761568D01*
X12091667Y-25761568D01*
X12072619Y-25752045D01*
X12063095Y-25732997D01*
X12063095Y-25656806D01*
X12072619Y-25637759D01*
X12091667Y-25628235D01*
X12129762Y-25628235D01*
X12148809Y-25637759D01*
X12158333Y-25656806D01*
X12158333Y-25675854D01*
X12063095Y-25694902D01*
X12234524Y-25752045D02*
X12253571Y-25761568D01*
X12291667Y-25761568D01*
X12310714Y-25752045D01*
X12320238Y-25732997D01*
X12320238Y-25723473D01*
X12310714Y-25704426D01*
X12291667Y-25694902D01*
X12263095Y-25694902D01*
X12244048Y-25685378D01*
X12234524Y-25666330D01*
X12234524Y-25656806D01*
X12244048Y-25637759D01*
X12263095Y-25628235D01*
X12291667Y-25628235D01*
X12310714Y-25637759D01*
X12386905Y-25837759D02*
X12396428Y-25828235D01*
X12415476Y-25799664D01*
X12425000Y-25780616D01*
X12434524Y-25752045D01*
X12444048Y-25704426D01*
X12444048Y-25666330D01*
X12434524Y-25618711D01*
X12425000Y-25590140D01*
X12415476Y-25571092D01*
X12396428Y-25542521D01*
X12386905Y-25532997D01*
M02*
