%FSLAX45Y45*%
G04 Gerber Fmt 4.5, Leading zero omitted, Abs format (unit mm)*
G04 Created by KiCad (PCBNEW 6.0.6-3a73a75311~116~ubuntu20.04.1) date 2022-07-30 23:42:23*
%MOMM*%
%LPD*%
G01*
G04 APERTURE LIST*
%TA.AperFunction,Profile*%
%ADD10C,0.100000*%
%TD*%
%ADD11C,0.200000*%
%ADD12C,0.400000*%
G04 APERTURE END LIST*
D10*
X30734000Y-13335000D02*
X8001000Y-13335000D01*
X31115000Y-13716000D02*
G75*
G03*
X30734000Y-13335000I-381000J0D01*
G01*
X7620000Y-13716000D02*
X7620000Y-22527092D01*
X8001000Y-13335000D02*
G75*
G03*
X7620000Y-13716000I0J-381000D01*
G01*
X31115000Y-22527092D02*
X31115000Y-13716000D01*
X8001000Y-22908092D02*
X30734000Y-22908092D01*
X7619998Y-22527092D02*
G75*
G03*
X8001000Y-22908092I381002J2D01*
G01*
X30734000Y-22908090D02*
G75*
G03*
X31115000Y-22527092I0J381000D01*
G01*
D11*
D12*
X11329000Y-14255000D02*
X11729000Y-14655000D01*
X11729000Y-14255000D02*
X11329000Y-14655000D01*
X11329000Y-16541000D02*
X11729000Y-16941000D01*
X11729000Y-16541000D02*
X11329000Y-16941000D01*
X11329000Y-18827000D02*
X11729000Y-19227000D01*
X11729000Y-18827000D02*
X11329000Y-19227000D01*
X11329000Y-21113000D02*
X11729000Y-21513000D01*
X11729000Y-21113000D02*
X11329000Y-21513000D01*
X13361000Y-16541000D02*
X13761000Y-16941000D01*
X13761000Y-16541000D02*
X13361000Y-16941000D01*
X13361000Y-18827000D02*
X13761000Y-19227000D01*
X13761000Y-18827000D02*
X13361000Y-19227000D01*
X15393000Y-16541000D02*
X15793000Y-16941000D01*
X15793000Y-16541000D02*
X15393000Y-16941000D01*
X15393000Y-18827000D02*
X15793000Y-19227000D01*
X15793000Y-18827000D02*
X15393000Y-19227000D01*
X16409000Y-14255000D02*
X16809000Y-14655000D01*
X16809000Y-14255000D02*
X16409000Y-14655000D01*
X16409000Y-21113000D02*
X16809000Y-21513000D01*
X16809000Y-21113000D02*
X16409000Y-21513000D01*
X17425000Y-16541000D02*
X17825000Y-16941000D01*
X17825000Y-16541000D02*
X17425000Y-16941000D01*
X17425000Y-18827000D02*
X17825000Y-19227000D01*
X17825000Y-18827000D02*
X17425000Y-19227000D01*
X18441000Y-14255000D02*
X18841000Y-14655000D01*
X18841000Y-14255000D02*
X18441000Y-14655000D01*
X18441000Y-21113000D02*
X18841000Y-21513000D01*
X18841000Y-21113000D02*
X18441000Y-21513000D01*
X19457000Y-16541000D02*
X19857000Y-16941000D01*
X19857000Y-16541000D02*
X19457000Y-16941000D01*
X19457000Y-18827000D02*
X19857000Y-19227000D01*
X19857000Y-18827000D02*
X19457000Y-19227000D01*
X20473000Y-14255000D02*
X20873000Y-14655000D01*
X20873000Y-14255000D02*
X20473000Y-14655000D01*
X20473000Y-21113000D02*
X20873000Y-21513000D01*
X20873000Y-21113000D02*
X20473000Y-21513000D01*
X21489000Y-16541000D02*
X21889000Y-16941000D01*
X21889000Y-16541000D02*
X21489000Y-16941000D01*
X21489000Y-18827000D02*
X21889000Y-19227000D01*
X21889000Y-18827000D02*
X21489000Y-19227000D01*
X22505000Y-14255000D02*
X22905000Y-14655000D01*
X22905000Y-14255000D02*
X22505000Y-14655000D01*
X22505000Y-21113000D02*
X22905000Y-21513000D01*
X22905000Y-21113000D02*
X22505000Y-21513000D01*
X23521000Y-16541000D02*
X23921000Y-16941000D01*
X23921000Y-16541000D02*
X23521000Y-16941000D01*
X23521000Y-18827000D02*
X23921000Y-19227000D01*
X23921000Y-18827000D02*
X23521000Y-19227000D01*
X24537000Y-14255000D02*
X24937000Y-14655000D01*
X24937000Y-14255000D02*
X24537000Y-14655000D01*
X25553000Y-16541000D02*
X25953000Y-16941000D01*
X25953000Y-16541000D02*
X25553000Y-16941000D01*
X25553000Y-18827000D02*
X25953000Y-19227000D01*
X25953000Y-18827000D02*
X25553000Y-19227000D01*
X27585000Y-16541000D02*
X27985000Y-16941000D01*
X27985000Y-16541000D02*
X27585000Y-16941000D01*
X27585000Y-18827000D02*
X27985000Y-19227000D01*
X27985000Y-18827000D02*
X27585000Y-19227000D01*
X27585000Y-21113000D02*
X27985000Y-21513000D01*
X27985000Y-21113000D02*
X27585000Y-21513000D01*
X29617000Y-14255000D02*
X30017000Y-14655000D01*
X30017000Y-14255000D02*
X29617000Y-14655000D01*
X29617000Y-16541000D02*
X30017000Y-16941000D01*
X30017000Y-16541000D02*
X29617000Y-16941000D01*
X29617000Y-18827000D02*
X30017000Y-19227000D01*
X30017000Y-18827000D02*
X29617000Y-19227000D01*
X29617000Y-21113000D02*
X30017000Y-21513000D01*
X30017000Y-21113000D02*
X29617000Y-21513000D01*
D11*
X7872619Y-23223568D02*
X7872619Y-23023568D01*
X7920238Y-23023568D01*
X7948809Y-23033092D01*
X7967857Y-23052140D01*
X7977381Y-23071187D01*
X7986905Y-23109283D01*
X7986905Y-23137854D01*
X7977381Y-23175949D01*
X7967857Y-23194997D01*
X7948809Y-23214045D01*
X7920238Y-23223568D01*
X7872619Y-23223568D01*
X8072619Y-23223568D02*
X8072619Y-23090235D01*
X8072619Y-23128330D02*
X8082143Y-23109283D01*
X8091667Y-23099759D01*
X8110714Y-23090235D01*
X8129762Y-23090235D01*
X8196428Y-23223568D02*
X8196428Y-23090235D01*
X8196428Y-23023568D02*
X8186905Y-23033092D01*
X8196428Y-23042616D01*
X8205952Y-23033092D01*
X8196428Y-23023568D01*
X8196428Y-23042616D01*
X8320238Y-23223568D02*
X8301190Y-23214045D01*
X8291667Y-23194997D01*
X8291667Y-23023568D01*
X8425000Y-23223568D02*
X8405952Y-23214045D01*
X8396429Y-23194997D01*
X8396429Y-23023568D01*
X8653571Y-23223568D02*
X8653571Y-23023568D01*
X8720238Y-23166426D01*
X8786905Y-23023568D01*
X8786905Y-23223568D01*
X8967857Y-23223568D02*
X8967857Y-23118806D01*
X8958333Y-23099759D01*
X8939286Y-23090235D01*
X8901190Y-23090235D01*
X8882143Y-23099759D01*
X8967857Y-23214045D02*
X8948810Y-23223568D01*
X8901190Y-23223568D01*
X8882143Y-23214045D01*
X8872619Y-23194997D01*
X8872619Y-23175949D01*
X8882143Y-23156902D01*
X8901190Y-23147378D01*
X8948810Y-23147378D01*
X8967857Y-23137854D01*
X9063095Y-23090235D02*
X9063095Y-23290235D01*
X9063095Y-23099759D02*
X9082143Y-23090235D01*
X9120238Y-23090235D01*
X9139286Y-23099759D01*
X9148810Y-23109283D01*
X9158333Y-23128330D01*
X9158333Y-23185473D01*
X9148810Y-23204521D01*
X9139286Y-23214045D01*
X9120238Y-23223568D01*
X9082143Y-23223568D01*
X9063095Y-23214045D01*
X9244048Y-23204521D02*
X9253571Y-23214045D01*
X9244048Y-23223568D01*
X9234524Y-23214045D01*
X9244048Y-23204521D01*
X9244048Y-23223568D01*
X9244048Y-23099759D02*
X9253571Y-23109283D01*
X9244048Y-23118806D01*
X9234524Y-23109283D01*
X9244048Y-23099759D01*
X9244048Y-23118806D01*
X7415000Y-23453092D02*
X7615000Y-23653092D01*
X7615000Y-23453092D02*
X7415000Y-23653092D01*
X7958333Y-23510235D02*
X7958333Y-23643568D01*
X7910714Y-23434045D02*
X7863095Y-23576902D01*
X7986905Y-23576902D01*
X8063095Y-23624521D02*
X8072619Y-23634045D01*
X8063095Y-23643568D01*
X8053571Y-23634045D01*
X8063095Y-23624521D01*
X8063095Y-23643568D01*
X8196428Y-23443568D02*
X8215476Y-23443568D01*
X8234524Y-23453092D01*
X8244048Y-23462616D01*
X8253571Y-23481664D01*
X8263095Y-23519759D01*
X8263095Y-23567378D01*
X8253571Y-23605473D01*
X8244048Y-23624521D01*
X8234524Y-23634045D01*
X8215476Y-23643568D01*
X8196428Y-23643568D01*
X8177381Y-23634045D01*
X8167857Y-23624521D01*
X8158333Y-23605473D01*
X8148809Y-23567378D01*
X8148809Y-23519759D01*
X8158333Y-23481664D01*
X8167857Y-23462616D01*
X8177381Y-23453092D01*
X8196428Y-23443568D01*
X8386905Y-23443568D02*
X8405952Y-23443568D01*
X8425000Y-23453092D01*
X8434524Y-23462616D01*
X8444048Y-23481664D01*
X8453571Y-23519759D01*
X8453571Y-23567378D01*
X8444048Y-23605473D01*
X8434524Y-23624521D01*
X8425000Y-23634045D01*
X8405952Y-23643568D01*
X8386905Y-23643568D01*
X8367857Y-23634045D01*
X8358333Y-23624521D01*
X8348809Y-23605473D01*
X8339286Y-23567378D01*
X8339286Y-23519759D01*
X8348809Y-23481664D01*
X8358333Y-23462616D01*
X8367857Y-23453092D01*
X8386905Y-23443568D01*
X8577381Y-23443568D02*
X8596429Y-23443568D01*
X8615476Y-23453092D01*
X8625000Y-23462616D01*
X8634524Y-23481664D01*
X8644048Y-23519759D01*
X8644048Y-23567378D01*
X8634524Y-23605473D01*
X8625000Y-23624521D01*
X8615476Y-23634045D01*
X8596429Y-23643568D01*
X8577381Y-23643568D01*
X8558333Y-23634045D01*
X8548810Y-23624521D01*
X8539286Y-23605473D01*
X8529762Y-23567378D01*
X8529762Y-23519759D01*
X8539286Y-23481664D01*
X8548810Y-23462616D01*
X8558333Y-23453092D01*
X8577381Y-23443568D01*
X8729762Y-23643568D02*
X8729762Y-23510235D01*
X8729762Y-23529283D02*
X8739286Y-23519759D01*
X8758333Y-23510235D01*
X8786905Y-23510235D01*
X8805952Y-23519759D01*
X8815476Y-23538806D01*
X8815476Y-23643568D01*
X8815476Y-23538806D02*
X8825000Y-23519759D01*
X8844048Y-23510235D01*
X8872619Y-23510235D01*
X8891667Y-23519759D01*
X8901190Y-23538806D01*
X8901190Y-23643568D01*
X8996429Y-23643568D02*
X8996429Y-23510235D01*
X8996429Y-23529283D02*
X9005952Y-23519759D01*
X9025000Y-23510235D01*
X9053571Y-23510235D01*
X9072619Y-23519759D01*
X9082143Y-23538806D01*
X9082143Y-23643568D01*
X9082143Y-23538806D02*
X9091667Y-23519759D01*
X9110714Y-23510235D01*
X9139286Y-23510235D01*
X9158333Y-23519759D01*
X9167857Y-23538806D01*
X9167857Y-23643568D01*
X9558333Y-23434045D02*
X9386905Y-23691187D01*
X9815476Y-23443568D02*
X9834524Y-23443568D01*
X9853571Y-23453092D01*
X9863095Y-23462616D01*
X9872619Y-23481664D01*
X9882143Y-23519759D01*
X9882143Y-23567378D01*
X9872619Y-23605473D01*
X9863095Y-23624521D01*
X9853571Y-23634045D01*
X9834524Y-23643568D01*
X9815476Y-23643568D01*
X9796429Y-23634045D01*
X9786905Y-23624521D01*
X9777381Y-23605473D01*
X9767857Y-23567378D01*
X9767857Y-23519759D01*
X9777381Y-23481664D01*
X9786905Y-23462616D01*
X9796429Y-23453092D01*
X9815476Y-23443568D01*
X9967857Y-23624521D02*
X9977381Y-23634045D01*
X9967857Y-23643568D01*
X9958333Y-23634045D01*
X9967857Y-23624521D01*
X9967857Y-23643568D01*
X10167857Y-23643568D02*
X10053571Y-23643568D01*
X10110714Y-23643568D02*
X10110714Y-23443568D01*
X10091667Y-23472140D01*
X10072619Y-23491187D01*
X10053571Y-23500711D01*
X10348810Y-23443568D02*
X10253571Y-23443568D01*
X10244048Y-23538806D01*
X10253571Y-23529283D01*
X10272619Y-23519759D01*
X10320238Y-23519759D01*
X10339286Y-23529283D01*
X10348810Y-23538806D01*
X10358333Y-23557854D01*
X10358333Y-23605473D01*
X10348810Y-23624521D01*
X10339286Y-23634045D01*
X10320238Y-23643568D01*
X10272619Y-23643568D01*
X10253571Y-23634045D01*
X10244048Y-23624521D01*
X10425000Y-23443568D02*
X10558333Y-23443568D01*
X10472619Y-23643568D01*
X10729762Y-23443568D02*
X10634524Y-23443568D01*
X10625000Y-23538806D01*
X10634524Y-23529283D01*
X10653571Y-23519759D01*
X10701190Y-23519759D01*
X10720238Y-23529283D01*
X10729762Y-23538806D01*
X10739286Y-23557854D01*
X10739286Y-23605473D01*
X10729762Y-23624521D01*
X10720238Y-23634045D01*
X10701190Y-23643568D01*
X10653571Y-23643568D01*
X10634524Y-23634045D01*
X10625000Y-23624521D01*
X10815476Y-23443568D02*
X10815476Y-23481664D01*
X10891667Y-23443568D02*
X10891667Y-23481664D01*
X11186905Y-23719759D02*
X11177381Y-23710235D01*
X11158333Y-23681664D01*
X11148810Y-23662616D01*
X11139286Y-23634045D01*
X11129762Y-23586426D01*
X11129762Y-23548330D01*
X11139286Y-23500711D01*
X11148810Y-23472140D01*
X11158333Y-23453092D01*
X11177381Y-23424521D01*
X11186905Y-23414997D01*
X11244048Y-23443568D02*
X11367857Y-23443568D01*
X11301190Y-23519759D01*
X11329762Y-23519759D01*
X11348809Y-23529283D01*
X11358333Y-23538806D01*
X11367857Y-23557854D01*
X11367857Y-23605473D01*
X11358333Y-23624521D01*
X11348809Y-23634045D01*
X11329762Y-23643568D01*
X11272619Y-23643568D01*
X11253571Y-23634045D01*
X11244048Y-23624521D01*
X11539286Y-23510235D02*
X11539286Y-23643568D01*
X11491667Y-23434045D02*
X11444048Y-23576902D01*
X11567857Y-23576902D01*
X11796428Y-23643568D02*
X11796428Y-23443568D01*
X11882143Y-23643568D02*
X11882143Y-23538806D01*
X11872619Y-23519759D01*
X11853571Y-23510235D01*
X11825000Y-23510235D01*
X11805952Y-23519759D01*
X11796428Y-23529283D01*
X12005952Y-23643568D02*
X11986905Y-23634045D01*
X11977381Y-23624521D01*
X11967857Y-23605473D01*
X11967857Y-23548330D01*
X11977381Y-23529283D01*
X11986905Y-23519759D01*
X12005952Y-23510235D01*
X12034524Y-23510235D01*
X12053571Y-23519759D01*
X12063095Y-23529283D01*
X12072619Y-23548330D01*
X12072619Y-23605473D01*
X12063095Y-23624521D01*
X12053571Y-23634045D01*
X12034524Y-23643568D01*
X12005952Y-23643568D01*
X12186905Y-23643568D02*
X12167857Y-23634045D01*
X12158333Y-23614997D01*
X12158333Y-23443568D01*
X12339286Y-23634045D02*
X12320238Y-23643568D01*
X12282143Y-23643568D01*
X12263095Y-23634045D01*
X12253571Y-23614997D01*
X12253571Y-23538806D01*
X12263095Y-23519759D01*
X12282143Y-23510235D01*
X12320238Y-23510235D01*
X12339286Y-23519759D01*
X12348809Y-23538806D01*
X12348809Y-23557854D01*
X12253571Y-23576902D01*
X12425000Y-23634045D02*
X12444048Y-23643568D01*
X12482143Y-23643568D01*
X12501190Y-23634045D01*
X12510714Y-23614997D01*
X12510714Y-23605473D01*
X12501190Y-23586426D01*
X12482143Y-23576902D01*
X12453571Y-23576902D01*
X12434524Y-23567378D01*
X12425000Y-23548330D01*
X12425000Y-23538806D01*
X12434524Y-23519759D01*
X12453571Y-23510235D01*
X12482143Y-23510235D01*
X12501190Y-23519759D01*
X12577381Y-23719759D02*
X12586905Y-23710235D01*
X12605952Y-23681664D01*
X12615476Y-23662616D01*
X12625000Y-23634045D01*
X12634524Y-23586426D01*
X12634524Y-23548330D01*
X12625000Y-23500711D01*
X12615476Y-23472140D01*
X12605952Y-23453092D01*
X12586905Y-23424521D01*
X12577381Y-23414997D01*
X12939286Y-23719759D02*
X12929762Y-23710235D01*
X12910714Y-23681664D01*
X12901190Y-23662616D01*
X12891667Y-23634045D01*
X12882143Y-23586426D01*
X12882143Y-23548330D01*
X12891667Y-23500711D01*
X12901190Y-23472140D01*
X12910714Y-23453092D01*
X12929762Y-23424521D01*
X12939286Y-23414997D01*
X13015476Y-23510235D02*
X13015476Y-23643568D01*
X13015476Y-23529283D02*
X13025000Y-23519759D01*
X13044048Y-23510235D01*
X13072619Y-23510235D01*
X13091667Y-23519759D01*
X13101190Y-23538806D01*
X13101190Y-23643568D01*
X13225000Y-23643568D02*
X13205952Y-23634045D01*
X13196428Y-23624521D01*
X13186905Y-23605473D01*
X13186905Y-23548330D01*
X13196428Y-23529283D01*
X13205952Y-23519759D01*
X13225000Y-23510235D01*
X13253571Y-23510235D01*
X13272619Y-23519759D01*
X13282143Y-23529283D01*
X13291667Y-23548330D01*
X13291667Y-23605473D01*
X13282143Y-23624521D01*
X13272619Y-23634045D01*
X13253571Y-23643568D01*
X13225000Y-23643568D01*
X13348809Y-23510235D02*
X13425000Y-23510235D01*
X13377381Y-23443568D02*
X13377381Y-23614997D01*
X13386905Y-23634045D01*
X13405952Y-23643568D01*
X13425000Y-23643568D01*
X13644048Y-23510235D02*
X13644048Y-23710235D01*
X13644048Y-23519759D02*
X13663095Y-23510235D01*
X13701190Y-23510235D01*
X13720238Y-23519759D01*
X13729762Y-23529283D01*
X13739286Y-23548330D01*
X13739286Y-23605473D01*
X13729762Y-23624521D01*
X13720238Y-23634045D01*
X13701190Y-23643568D01*
X13663095Y-23643568D01*
X13644048Y-23634045D01*
X13853571Y-23643568D02*
X13834524Y-23634045D01*
X13825000Y-23614997D01*
X13825000Y-23443568D01*
X14015476Y-23643568D02*
X14015476Y-23538806D01*
X14005952Y-23519759D01*
X13986905Y-23510235D01*
X13948809Y-23510235D01*
X13929762Y-23519759D01*
X14015476Y-23634045D02*
X13996428Y-23643568D01*
X13948809Y-23643568D01*
X13929762Y-23634045D01*
X13920238Y-23614997D01*
X13920238Y-23595949D01*
X13929762Y-23576902D01*
X13948809Y-23567378D01*
X13996428Y-23567378D01*
X14015476Y-23557854D01*
X14082143Y-23510235D02*
X14158333Y-23510235D01*
X14110714Y-23443568D02*
X14110714Y-23614997D01*
X14120238Y-23634045D01*
X14139286Y-23643568D01*
X14158333Y-23643568D01*
X14301190Y-23634045D02*
X14282143Y-23643568D01*
X14244048Y-23643568D01*
X14225000Y-23634045D01*
X14215476Y-23614997D01*
X14215476Y-23538806D01*
X14225000Y-23519759D01*
X14244048Y-23510235D01*
X14282143Y-23510235D01*
X14301190Y-23519759D01*
X14310714Y-23538806D01*
X14310714Y-23557854D01*
X14215476Y-23576902D01*
X14482143Y-23643568D02*
X14482143Y-23443568D01*
X14482143Y-23634045D02*
X14463095Y-23643568D01*
X14425000Y-23643568D01*
X14405952Y-23634045D01*
X14396428Y-23624521D01*
X14386905Y-23605473D01*
X14386905Y-23548330D01*
X14396428Y-23529283D01*
X14405952Y-23519759D01*
X14425000Y-23510235D01*
X14463095Y-23510235D01*
X14482143Y-23519759D01*
X14558333Y-23719759D02*
X14567857Y-23710235D01*
X14586905Y-23681664D01*
X14596428Y-23662616D01*
X14605952Y-23634045D01*
X14615476Y-23586426D01*
X14615476Y-23548330D01*
X14605952Y-23500711D01*
X14596428Y-23472140D01*
X14586905Y-23453092D01*
X14567857Y-23424521D01*
X14558333Y-23414997D01*
M02*
