M48
; DRILL file {KiCad 6.0.6-3a73a75311~116~ubuntu20.04.1} date Sun 31 Jul 2022 18:11:12
; FORMAT={-:-/ absolute / metric / decimal}
; #@! TF.CreationDate,2022-07-31T18:11:12+12:00
; #@! TF.GenerationSoftware,Kicad,Pcbnew,6.0.6-3a73a75311~116~ubuntu20.04.1
; #@! TF.FileFunction,NonPlated,1,2,NPTH
FMAT,2
METRIC
; #@! TA.AperFunction,NonPlated,NPTH,ComponentDrill
T1C4.000
%
G90
G05
T1
X115.29Y-144.55
X115.29Y-167.41
X115.29Y-190.27
X115.29Y-213.13
X135.61Y-167.41
X135.61Y-190.27
X155.93Y-167.41
X155.93Y-190.27
X166.09Y-144.55
X166.09Y-213.13
X176.25Y-167.41
X176.25Y-190.27
X186.41Y-144.55
X186.41Y-213.13
X196.57Y-167.41
X196.57Y-190.27
X206.73Y-144.55
X206.73Y-213.13
X216.89Y-167.41
X216.89Y-190.27
X227.05Y-144.55
X227.05Y-213.13
X237.21Y-167.41
X237.21Y-190.27
X247.37Y-144.55
X257.53Y-167.41
X257.53Y-190.27
X277.85Y-167.41
X277.85Y-190.27
X277.85Y-213.13
X298.17Y-144.55
X298.17Y-167.41
X298.17Y-190.27
X298.17Y-213.13
T0
M30
