M48
; DRILL file {KiCad 6.0.6-3a73a75311~116~ubuntu20.04.1} date Sun 31 Jul 2022 18:11:12
; FORMAT={-:-/ absolute / metric / decimal}
; #@! TF.CreationDate,2022-07-31T18:11:12+12:00
; #@! TF.GenerationSoftware,Kicad,Pcbnew,6.0.6-3a73a75311~116~ubuntu20.04.1
; #@! TF.FileFunction,Plated,1,2,PTH
FMAT,2
METRIC
; #@! TA.AperFunction,Plated,PTH,ViaDrill
T1C0.400
; #@! TA.AperFunction,Plated,PTH,ComponentDrill
T2C0.500
; #@! TA.AperFunction,Plated,PTH,ComponentDrill
T3C0.700
; #@! TA.AperFunction,Plated,PTH,ComponentDrill
T4C0.750
; #@! TA.AperFunction,Plated,PTH,ComponentDrill
T5C0.800
; #@! TA.AperFunction,Plated,PTH,ComponentDrill
T6C0.991
; #@! TA.AperFunction,Plated,PTH,ComponentDrill
T7C1.000
; #@! TA.AperFunction,Plated,PTH,ComponentDrill
T8C1.500
; #@! TA.AperFunction,Plated,PTH,ComponentDrill
T9C3.000
%
G90
G05
T1
X76.835Y-161.29
X76.835Y-171.45
X77.47Y-136.525
X77.47Y-158.75
X77.47Y-166.116
X77.47Y-168.91
X77.47Y-187.325
X78.994Y-197.866
X80.01Y-208.28
X80.01Y-217.678
X80.01Y-221.615
X81.28Y-222.25
X81.534Y-189.738
X81.788Y-195.326
X81.788Y-197.358
X81.915Y-211.455
X82.55Y-162.56
X82.55Y-222.885
X82.55Y-226.314
X83.058Y-186.944
X83.312Y-157.226
X83.82Y-134.62
X83.82Y-138.43
X83.82Y-140.97
X83.82Y-151.13
X83.82Y-153.67
X83.82Y-166.37
X83.82Y-179.07
X83.82Y-184.15
X83.82Y-209.55
X83.82Y-223.52
X84.074Y-144.526
X84.074Y-147.32
X84.455Y-207.01
X85.09Y-137.16
X85.09Y-204.47
X85.09Y-217.678
X85.725Y-158.75
X86.106Y-199.39
X86.36Y-176.53
X86.36Y-205.994
X87.202Y-191.878
X87.63Y-165.735
X87.63Y-198.12
X87.63Y-209.55
X87.884Y-171.958
X88.265Y-212.09
X88.646Y-201.93
X88.9Y-146.685
X88.9Y-163.83
X89.535Y-207.01
X90.17Y-137.16
X90.17Y-181.61
X90.17Y-217.678
X91.44Y-209.55
X91.44Y-226.314
X91.872Y-145.81
X92.075Y-192.405
X92.075Y-196.215
X92.202Y-201.93
X92.456Y-152.146
X92.456Y-157.226
X92.456Y-178.562
X92.71Y-160.528
X93.218Y-140.97
X93.345Y-169.545
X93.98Y-137.16
X93.98Y-166.116
X94.234Y-159.766
X94.996Y-171.196
X94.996Y-179.07
X95.25Y-187.96
X95.885Y-140.97
X95.885Y-192.405
X96.012Y-145.796
X96.012Y-197.612
X96.012Y-208.026
X96.012Y-217.805
X96.52Y-134.62
X97.155Y-156.21
X97.155Y-201.93
X97.282Y-195.58
X97.282Y-222.25
X97.79Y-187.96
X98.552Y-222.25
X99.06Y-226.314
X99.314Y-197.866
X100.33Y-187.96
X101.6Y-189.23
X102.235Y-146.05
X102.235Y-151.13
X102.235Y-171.45
X102.235Y-173.99
X102.235Y-184.15
X102.616Y-182.372
X102.87Y-134.62
X102.87Y-186.055
X103.09Y-211.455
X103.469Y-190.98
X103.505Y-177.8
X103.505Y-201.295
X103.505Y-205.105
X103.505Y-209.55
X103.725Y-213.995
X103.886Y-174.244
X104.14Y-194.945
X104.36Y-216.535
X104.775Y-212.09
X104.995Y-219.075
X105.41Y-136.525
X105.41Y-176.53
X105.41Y-187.96
X105.41Y-197.485
X105.41Y-207.01
X105.41Y-214.63
X105.41Y-217.805
X105.599Y-183.024
X105.63Y-221.615
X105.664Y-180.594
X108.585Y-228.6
X108.712Y-221.488
X109.855Y-172.72
X109.855Y-227.965
X110.49Y-195.58
X111.125Y-227.33
X112.395Y-179.07
X112.395Y-201.93
X112.395Y-226.695
X113.665Y-162.56
X113.665Y-226.06
X115.57Y-196.85
X120.65Y-154.305
X120.65Y-195.58
X121.92Y-179.07
X121.92Y-201.93
X121.92Y-224.79
X126.365Y-217.17
X126.619Y-210.566
X127.127Y-141.986
X128.905Y-187.325
X129.54Y-172.72
X130.175Y-195.58
X132.715Y-179.07
X132.715Y-201.93
X132.715Y-224.79
X135.89Y-196.85
X136.525Y-150.495
X137.16Y-217.17
X137.414Y-210.566
X137.795Y-179.07
X137.922Y-141.986
X138.15Y-173.99
X138.43Y-149.225
X140.335Y-147.32
X141.605Y-179.07
X141.605Y-201.93
X141.605Y-224.79
X145.796Y-172.974
X146.05Y-217.17
X146.304Y-210.566
X146.812Y-141.986
X149.225Y-187.325
X149.225Y-201.93
X149.225Y-224.79
X151.13Y-195.58
X153.035Y-179.07
X153.67Y-217.17
X153.924Y-210.566
X154.432Y-141.986
X156.21Y-196.85
X158.47Y-173.99
X158.47Y-196.85
X160.655Y-218.44
X162.56Y-179.07
X162.56Y-201.93
X163.195Y-156.21
X163.195Y-224.79
X165.862Y-152.654
X168.275Y-219.71
X169.545Y-136.525
X169.545Y-187.325
X170.18Y-201.93
X170.18Y-224.79
X170.815Y-172.72
X170.815Y-195.58
X173.355Y-179.07
X176.53Y-196.85
X178.79Y-173.99
X180.34Y-160.02
X180.34Y-224.79
X180.975Y-218.44
X182.046Y-201.967
X182.245Y-179.07
X183.515Y-156.21
X185.928Y-152.908
X188.95Y-219.71
X189.865Y-135.89
X189.865Y-187.325
X189.865Y-201.93
X189.865Y-224.79
X191.135Y-172.72
X193.675Y-179.07
X196.85Y-196.85
X199.11Y-173.99
X201.295Y-218.44
X202.565Y-179.07
X202.565Y-201.93
X203.835Y-156.21
X203.835Y-224.79
X206.248Y-152.908
X209.27Y-219.71
X209.55Y-187.325
X210.185Y-135.255
X210.82Y-172.72
X210.82Y-195.58
X213.995Y-179.07
X213.995Y-201.93
X213.995Y-224.79
X217.17Y-196.85
X219.43Y-173.99
X219.43Y-196.85
X220.98Y-218.44
X222.885Y-179.07
X224.155Y-156.21
X224.155Y-201.93
X224.155Y-224.79
X226.568Y-153.162
X229.59Y-219.71
X230.505Y-134.62
X231.14Y-172.72
X231.775Y-195.58
X234.315Y-179.07
X234.315Y-201.93
X234.315Y-224.79
X237.109Y-209.804
X237.49Y-196.85
X237.871Y-218.186
X239.75Y-173.99
X239.75Y-196.85
X243.84Y-179.07
X243.84Y-201.93
X243.84Y-224.79
X244.475Y-156.21
X246.38Y-174.498
X246.888Y-152.908
X247.904Y-209.804
X248.666Y-218.186
X250.825Y-133.985
X252.095Y-195.58
X254.635Y-179.07
X254.635Y-201.93
X254.635Y-224.79
X256.26Y-181.38
X256.794Y-209.804
X257.556Y-218.186
X257.683Y-141.478
X257.81Y-196.85
X258.445Y-152.4
X260.07Y-173.99
X264.16Y-179.07
X264.16Y-201.93
X264.16Y-224.79
X264.414Y-209.804
X265.176Y-218.186
X268.478Y-141.478
X269.24Y-152.4
X271.78Y-218.44
X272.415Y-172.72
X272.415Y-195.58
X274.955Y-179.07
X274.955Y-201.93
X274.955Y-224.79
X277.368Y-141.478
X278.13Y-152.4
X278.13Y-196.85
X280.39Y-173.99
X280.39Y-219.71
X283.21Y-179.07
X283.21Y-201.93
X283.21Y-224.79
X284.988Y-141.478
X285.75Y-152.4
X292.1Y-172.72
X292.1Y-195.58
X292.735Y-218.44
X298.45Y-196.85
X300.71Y-173.99
X300.71Y-219.71
X302.006Y-171.958
T2
X148.88Y-147.32
X148.88Y-215.265
X149.539Y-145.729
X149.539Y-148.911
X149.539Y-213.674
X149.539Y-216.856
X151.13Y-145.07
X151.13Y-149.57
X151.13Y-213.015
X151.13Y-217.515
X152.721Y-145.729
X152.721Y-148.911
X152.721Y-213.674
X152.721Y-216.856
X153.38Y-147.32
X153.38Y-215.265
X260.005Y-147.955
X260.005Y-215.265
X260.664Y-146.364
X260.664Y-149.546
X260.664Y-213.674
X260.664Y-216.856
X262.255Y-145.705
X262.255Y-150.205
X262.255Y-213.015
X262.255Y-217.515
X263.846Y-146.364
X263.846Y-149.546
X263.846Y-213.674
X263.846Y-216.856
X264.505Y-147.955
X264.505Y-215.265
T3
X87.35Y-195.35
X87.35Y-202.97
X89.89Y-192.81
X89.89Y-200.43
X93.7Y-196.62
X101.32Y-196.62
X106.68Y-156.21
X106.68Y-179.07
X106.68Y-201.93
X106.68Y-224.79
X114.3Y-156.21
X114.3Y-179.07
X114.3Y-201.93
X114.3Y-224.79
X127.0Y-179.07
X127.0Y-201.93
X134.62Y-179.07
X134.62Y-201.93
X147.32Y-179.07
X147.32Y-201.93
X154.94Y-179.07
X154.94Y-201.93
X157.48Y-156.21
X157.48Y-224.79
X165.1Y-156.21
X165.1Y-224.79
X167.64Y-179.07
X167.64Y-201.93
X175.26Y-179.07
X175.26Y-201.93
X177.8Y-156.21
X177.8Y-224.79
X185.42Y-156.21
X185.42Y-224.79
X187.96Y-179.07
X187.96Y-201.93
X195.58Y-179.07
X195.58Y-201.93
X198.12Y-156.21
X198.12Y-224.79
X205.74Y-156.21
X205.74Y-224.79
X208.28Y-179.07
X208.28Y-201.93
X215.9Y-179.07
X215.9Y-201.93
X218.44Y-156.21
X218.44Y-224.79
X226.06Y-156.21
X226.06Y-224.79
X228.6Y-179.07
X228.6Y-201.93
X236.22Y-179.07
X236.22Y-201.93
X238.76Y-156.21
X246.38Y-156.21
X248.92Y-179.07
X248.92Y-201.93
X256.54Y-179.07
X256.54Y-201.93
X269.24Y-179.07
X269.24Y-201.93
X269.24Y-224.79
X276.86Y-179.07
X276.86Y-201.93
X276.86Y-224.79
X289.56Y-156.21
X289.56Y-179.07
X289.56Y-201.93
X289.56Y-224.79
X297.18Y-156.21
X297.18Y-179.07
X297.18Y-201.93
X297.18Y-224.79
T4
X97.51Y-192.81
X98.78Y-192.81
X100.05Y-192.81
T5
X93.71Y-200.44
X93.71Y-202.98
X93.71Y-205.52
X93.71Y-208.06
X93.71Y-210.6
X93.71Y-213.14
X93.71Y-215.68
X93.71Y-218.22
X93.71Y-220.76
X101.33Y-200.44
X101.33Y-202.98
X101.33Y-205.52
X101.33Y-208.06
X101.33Y-210.6
X101.33Y-213.14
X101.33Y-215.68
X101.33Y-218.22
X101.33Y-220.76
T6
X114.02Y-149.63
X114.02Y-172.49
X114.02Y-195.35
X114.02Y-218.21
X116.56Y-149.63
X116.56Y-172.49
X116.56Y-195.35
X116.56Y-218.21
X134.34Y-172.49
X134.34Y-195.35
X136.88Y-172.49
X136.88Y-195.35
X154.66Y-172.49
X154.66Y-195.35
X157.2Y-172.49
X157.2Y-195.35
X164.82Y-149.63
X164.82Y-218.21
X167.36Y-149.63
X167.36Y-218.21
X174.98Y-172.49
X174.98Y-195.35
X177.52Y-172.49
X177.52Y-195.35
X185.14Y-149.63
X185.14Y-218.21
X187.68Y-149.63
X187.68Y-218.21
X195.3Y-172.49
X195.3Y-195.35
X197.84Y-172.49
X197.84Y-195.35
X205.46Y-149.63
X205.46Y-218.21
X208.0Y-149.63
X208.0Y-218.21
X215.62Y-172.49
X215.62Y-195.35
X218.16Y-172.49
X218.16Y-195.35
X225.78Y-149.63
X225.78Y-218.21
X228.32Y-149.63
X228.32Y-218.21
X235.94Y-172.49
X235.94Y-195.35
X238.48Y-172.49
X238.48Y-195.35
X246.1Y-149.63
X248.64Y-149.63
X256.26Y-172.49
X256.26Y-195.35
X258.8Y-172.49
X258.8Y-195.35
X276.58Y-172.49
X276.58Y-195.35
X276.58Y-218.21
X279.12Y-172.49
X279.12Y-195.35
X279.12Y-218.21
X296.9Y-149.63
X296.9Y-172.49
X296.9Y-195.35
X296.9Y-218.21
X299.44Y-149.63
X299.44Y-172.49
X299.44Y-195.35
X299.44Y-218.21
T7
X79.73Y-192.81
X82.27Y-192.81
X82.296Y-200.406
X82.296Y-202.946
X82.296Y-205.486
X86.995Y-188.595
X89.535Y-188.595
X92.075Y-188.595
T8
X111.48Y-142.01
X111.48Y-164.87
X111.48Y-187.73
X111.48Y-210.59
X117.83Y-139.47
X117.83Y-162.33
X117.83Y-185.19
X117.83Y-208.05
X131.8Y-164.87
X131.8Y-187.73
X138.15Y-162.33
X138.15Y-185.19
X152.12Y-164.87
X152.12Y-187.73
X158.47Y-162.33
X158.47Y-185.19
X162.28Y-142.01
X162.28Y-210.59
X168.63Y-139.47
X168.63Y-208.05
X172.44Y-164.87
X172.44Y-187.73
X178.79Y-162.33
X178.79Y-185.19
X182.6Y-142.01
X182.6Y-210.59
X188.95Y-139.47
X188.95Y-208.05
X192.76Y-164.87
X192.76Y-187.73
X199.11Y-162.33
X199.11Y-185.19
X202.92Y-142.01
X202.92Y-210.59
X209.27Y-139.47
X209.27Y-208.05
X213.08Y-164.87
X213.08Y-187.73
X219.43Y-162.33
X219.43Y-185.19
X223.24Y-142.01
X223.24Y-210.59
X229.59Y-139.47
X229.59Y-208.05
X233.4Y-164.87
X233.4Y-187.73
X239.75Y-162.33
X239.75Y-185.19
X243.56Y-142.01
X249.91Y-139.47
X253.72Y-164.87
X253.72Y-187.73
X260.07Y-162.33
X260.07Y-185.19
X274.04Y-164.87
X274.04Y-187.73
X274.04Y-210.59
X280.39Y-162.33
X280.39Y-185.19
X280.39Y-208.05
X294.36Y-142.01
X294.36Y-164.87
X294.36Y-187.73
X294.36Y-210.59
X300.71Y-139.47
X300.71Y-162.33
X300.71Y-185.19
X300.71Y-208.05
T9
X151.13Y-147.32
X151.13Y-215.265
X262.255Y-147.955
X262.255Y-215.265
T0
M30
